<?xml version="1.0" encoding="UTF-8"?>
<svg version="1.1" xmlns="http://www.w3.org/2000/svg" width="500" height="500">
<path d="M0 0 C165 0 330 0 500 0 C500 165 500 330 500 500 C335 500 170 500 0 500 C0 335 0 170 0 0 Z " fill="#FEFEFE" transform="translate(0,0)"/>
<path d="M0 0 C2.81650175 0.66440554 5.41588779 0.97730669 8.296875 1.15625 C16.67073642 1.85291068 23.93736454 5.48038799 31.046875 9.71875 C32.14 10.1725 33.233125 10.62625 34.359375 11.09375 C41.59226587 14.09793041 47.62513141 18.08502847 53.046875 23.71875 C54.08424015 24.73873661 55.124765 25.7555169 56.16796875 26.76953125 C72.10311005 42.38867825 72.10311005 42.38867825 74.046875 51.71875 C74.706875 51.71875 75.366875 51.71875 76.046875 51.71875 C79.97656354 58.73605097 81.97015185 65.9790297 84.046875 73.71875 C84.40265625 74.90855469 84.7584375 76.09835938 85.125 77.32421875 C87.34949001 85.51524339 87.13768689 94.09492675 87.171875 102.53125 C87.17654785 103.33143555 87.1812207 104.13162109 87.18603516 104.95605469 C87.17333675 109.64665121 86.82516331 114.09225841 86.046875 118.71875 C85.386875 118.71875 84.726875 118.71875 84.046875 118.71875 C84.00949219 119.39679688 83.97210938 120.07484375 83.93359375 120.7734375 C83.28558372 129.94722651 81.25914131 137.54735838 77.046875 145.71875 C76.47710937 146.85570312 75.90734375 147.99265625 75.3203125 149.1640625 C70.24756981 159.07781182 64.33056924 167.70198855 57.109375 176.21875 C55.33796314 178.36591589 54.23994616 180.24083298 53.046875 182.71875 C52.386875 183.04875 51.726875 183.37875 51.046875 183.71875 C50.5725 184.523125 50.098125 185.3275 49.609375 186.15625 C48.046875 188.71875 48.046875 188.71875 45.046875 190.71875 C44.36419362 192.04395503 43.6961709 193.37687182 43.046875 194.71875 C42.386875 195.04875 41.726875 195.37875 41.046875 195.71875 C40.77875 196.29625 40.510625 196.87375 40.234375 197.46875 C39.046875 199.71875 39.046875 199.71875 36.671875 201.96875 C33.98712427 204.78134601 32.68383157 207.14902846 31.08203125 210.625 C30.03589809 212.74095236 28.81897818 214.58711164 27.484375 216.53125 C24.44983921 221.22354146 23.26832632 226.3165588 22.046875 231.71875 C21.386875 231.71875 20.726875 231.71875 20.046875 231.71875 C20.02181885 232.28907959 19.9967627 232.85940918 19.97094727 233.44702148 C19.85530951 236.01701157 19.73243876 238.58660527 19.609375 241.15625 C19.57005859 242.05408203 19.53074219 242.95191406 19.49023438 243.87695312 C19.44833984 244.73095703 19.40644531 245.58496094 19.36328125 246.46484375 C19.32662354 247.25560303 19.28996582 248.0463623 19.25219727 248.86108398 C19.046875 250.71875 19.046875 250.71875 18.046875 251.71875 C14.93623621 252.2371898 12.86786937 252.2416655 10.1640625 250.51953125 C6.96240135 247.86041101 4.61374592 245.62805407 3.046875 241.71875 C2.80077934 238.7746315 2.80077934 238.7746315 2.80636597 235.27740479 C2.80465712 234.63286937 2.80294827 233.98833395 2.80118763 233.32426715 C2.79789624 231.16691096 2.8088904 229.00986655 2.81982422 226.85253906 C2.82038841 225.30517077 2.82007162 223.75780194 2.81893921 222.21043396 C2.818365 218.01034469 2.83013032 213.81036948 2.84408712 209.61030674 C2.85658313 205.22074015 2.85776409 200.83117099 2.86013794 196.44158936 C2.86635603 188.1295698 2.88277131 179.81760281 2.90283692 171.50560641 C2.92518568 162.04258137 2.93618678 152.57955382 2.94622779 143.11650896 C2.96713724 123.6505595 3.00231962 104.18465897 3.046875 84.71875 C-0.88996456 85.95573511 -3.71313209 87.17304128 -6.953125 89.71875 C-7.613125 89.71875 -8.273125 89.71875 -8.953125 89.71875 C-8.953125 122.38875 -8.953125 155.05875 -8.953125 188.71875 C-10.603125 188.71875 -12.253125 188.71875 -13.953125 188.71875 C-14.283125 156.04875 -14.613125 123.37875 -14.953125 89.71875 C-24.74269323 83.23989787 -24.74269323 83.23989787 -31.953125 83.71875 C-34.66438884 85.14496684 -34.66438884 85.14496684 -36.953125 86.71875 C-37.613125 86.71875 -38.273125 86.71875 -38.953125 86.71875 C-39.448125 88.20375 -39.448125 88.20375 -39.953125 89.71875 C-40.613125 89.71875 -41.273125 89.71875 -41.953125 89.71875 C-41.953125 122.38875 -41.953125 155.05875 -41.953125 188.71875 C-43.603125 188.71875 -45.253125 188.71875 -46.953125 188.71875 C-47.283125 156.04875 -47.613125 123.37875 -47.953125 89.71875 C-49.438125 89.22375 -49.438125 89.22375 -50.953125 88.71875 C-50.953125 88.05875 -50.953125 87.39875 -50.953125 86.71875 C-53.593125 86.05875 -56.233125 85.39875 -58.953125 84.71875 C-58.94943783 85.51112596 -58.94575066 86.30350191 -58.94195175 87.11988926 C-58.85358013 106.40806528 -58.78740536 125.69620084 -58.74587631 144.98453617 C-58.7252589 154.31227455 -58.69715399 163.63987771 -58.65136719 172.9675293 C-58.61147429 181.09836129 -58.58568622 189.22909535 -58.57677102 197.36002249 C-58.57156042 201.66456218 -58.55933081 205.96882173 -58.53020477 210.27327156 C-58.50299682 214.32720926 -58.49469079 218.38075216 -58.50069427 222.43477249 C-58.49959643 223.92024444 -58.49167436 225.40572999 -58.4763031 226.89112282 C-58.38301365 236.37350621 -58.5911866 242.12103114 -65.265625 249.15625 C-68.66676408 251.13365644 -71.07918545 250.83228867 -74.953125 250.71875 C-75.07429688 249.52636719 -75.19546875 248.33398438 -75.3203125 247.10546875 C-75.48915173 245.53901592 -75.65844632 243.97261212 -75.828125 242.40625 C-75.90675781 241.62056641 -75.98539062 240.83488281 -76.06640625 240.02539062 C-76.15019531 239.26806641 -76.23398438 238.51074219 -76.3203125 237.73046875 C-76.43028564 236.68572388 -76.43028564 236.68572388 -76.54248047 235.61987305 C-76.90018716 233.40108952 -76.90018716 233.40108952 -78.953125 230.71875 C-79.200625 229.56375 -79.448125 228.40875 -79.703125 227.21875 C-80.79579563 222.45153376 -83.08030512 218.53904634 -85.515625 214.33203125 C-86.953125 211.71875 -86.953125 211.71875 -87.85546875 209.26953125 C-89.26712052 205.98907357 -91.31162257 203.368372 -93.515625 200.59375 C-94.18271484 199.74115601 -94.18271484 199.74115601 -94.86328125 198.87133789 C-99.14536877 193.42064801 -103.52979673 188.05518496 -107.953125 182.71875 C-108.85843998 181.61358184 -109.76337398 180.50810149 -110.66796875 179.40234375 C-111.57528776 178.29928741 -112.48283504 177.19641879 -113.390625 176.09375 C-114.21433594 175.09085938 -115.03804687 174.08796875 -115.88671875 173.0546875 C-117.73513502 170.67207381 -117.73513502 170.67207381 -119.953125 169.71875 C-120.3553125 168.605 -120.3553125 168.605 -120.765625 167.46875 C-121.79925345 164.56291799 -121.79925345 164.56291799 -124.328125 162.53125 C-127.42640069 159.2116689 -128.52122639 156.17484015 -129.9609375 151.92578125 C-130.86395616 149.39437307 -130.86395616 149.39437307 -133.953125 147.71875 C-141.08962149 134.0427263 -142.60405911 117.17512041 -142.36474609 102.04711914 C-142.32765237 99.62539346 -142.32373285 97.20518701 -142.32421875 94.78320312 C-142.2901304 87.20159631 -142.06401233 80.0537038 -139.953125 72.71875 C-139.66953125 71.62949219 -139.3859375 70.54023438 -139.09375 69.41796875 C-132.2969468 46.43404213 -116.24514738 24.48636168 -94.953125 12.71875 C-93.633125 12.71875 -92.313125 12.71875 -90.953125 12.71875 C-90.623125 11.72875 -90.293125 10.73875 -89.953125 9.71875 C-87.65780554 8.56809377 -85.46980636 7.61914769 -83.078125 6.71875 C-82.459375 6.47125 -81.840625 6.22375 -81.203125 5.96875 C-56.91634434 -3.47064653 -25.359802 -6.19651271 0 0 Z " fill="#A474F1" transform="translate(276.953125,101.28125)"/>
<path d="M0 0 C0.33 0 0.66 0 1 0 C2.00257429 43.083702 2.00257429 43.083702 -7 60 C-7.60979439 61.21267756 -8.21791271 62.42619961 -8.82421875 63.640625 C-13.86164986 73.48290767 -19.76856453 82.04487317 -26.9375 90.5 C-28.70891186 92.64716589 -29.80692884 94.52208298 -31 97 C-31.99 97.495 -31.99 97.495 -33 98 C-33.474375 98.804375 -33.94875 99.60875 -34.4375 100.4375 C-36 103 -36 103 -39 105 C-39.68268138 106.32520503 -40.3507041 107.65812182 -41 109 C-41.99 109.495 -41.99 109.495 -43 110 C-43.268125 110.5775 -43.53625 111.155 -43.8125 111.75 C-45 114 -45 114 -47.375 116.25 C-50.05975073 119.06259601 -51.36304343 121.43027846 -52.96484375 124.90625 C-54.01097691 127.02220236 -55.22789682 128.86836164 -56.5625 130.8125 C-59.59703579 135.50479146 -60.77854868 140.5978088 -62 146 C-62.66 146 -63.32 146 -64 146 C-64.02505615 146.57032959 -64.0501123 147.14065918 -64.07592773 147.72827148 C-64.19156549 150.29826157 -64.31443624 152.86785527 -64.4375 155.4375 C-64.47681641 156.33533203 -64.51613281 157.23316406 -64.55664062 158.15820312 C-64.59853516 159.01220703 -64.64042969 159.86621094 -64.68359375 160.74609375 C-64.72025146 161.53685303 -64.75690918 162.3276123 -64.79467773 163.14233398 C-65 165 -65 165 -66 166 C-71.24832215 166.45637584 -71.24832215 166.45637584 -73.75 164.9375 C-75 163 -75 163 -76 159.375 C-76.33 158.26125 -76.66 157.1475 -77 156 C-77.99 155.67 -78.98 155.34 -80 155 C-80 125.3 -80 95.6 -80 65 C-72.13909898 61.63104242 -72.13909898 61.63104242 -68.73046875 60.53515625 C-67.99159424 60.29458496 -67.25271973 60.05401367 -66.49145508 59.80615234 C-65.35099731 59.43804443 -65.35099731 59.43804443 -64.1875 59.0625 C-51.40996957 54.85999685 -40.61113926 49.78055488 -29.35546875 42.390625 C-27 41 -27 41 -25 41 C-25 40.34 -25 39.68 -25 39 C-24.01 39 -23.02 39 -22 39 C-22 38.34 -22 37.68 -22 37 C-18.53846154 34 -18.53846154 34 -16 34 C-15.67 33.01 -15.34 32.02 -15 31 C-13.23908373 29.439766 -11.41739192 27.94724988 -9.5625 26.5 C-6.45374892 24.06812171 -4.19548258 22.29322388 -2 19 C-1.34 19 -0.68 19 0 19 C0 12.73 0 6.46 0 0 Z " fill="#681BE6" transform="translate(361,187)"/>
<path d="M0 0 C3.65060908 0.9663377 5.50374815 2.38461757 7.8125 5.25 C11.62501248 9.97119421 16.18670298 14.06223433 22 16 C22.5775 16.598125 23.155 17.19625 23.75 17.8125 C26.52700473 20.51236571 29.62227581 22.1817359 33 24 C33.72832031 24.41507813 34.45664063 24.83015625 35.20703125 25.2578125 C39.70974147 27.8198316 44.1935773 30.044845 49 32 C50.30904297 32.57041016 50.30904297 32.57041016 51.64453125 33.15234375 C61.20460313 37.27457658 71.00446804 40.14550461 81 43 C81.09277603 54.3528096 81.16380376 65.70552865 81.20724869 77.05864048 C81.22810259 82.33065263 81.25638032 87.60240495 81.30175781 92.87426758 C81.34529359 97.96415185 81.36915364 103.05378657 81.37950897 108.1438427 C81.38688644 110.08348454 81.40129298 112.02311309 81.42292023 113.96264839 C81.45205699 116.68446238 81.45595172 119.40525183 81.45410156 122.12719727 C81.46848267 122.92489532 81.48286377 123.72259338 81.49768066 124.54446411 C81.44827233 131.28422172 79.38832086 135.48258072 74.6875 140.4375 C71.28636092 142.41490644 68.87393955 142.11353867 65 142 C64.87882812 140.80761719 64.75765625 139.61523438 64.6328125 138.38671875 C64.46397327 136.82026592 64.29467868 135.25386212 64.125 133.6875 C64.04636719 132.90181641 63.96773437 132.11613281 63.88671875 131.30664062 C63.80292969 130.54931641 63.71914062 129.79199219 63.6328125 129.01171875 C63.55949707 128.31522217 63.48618164 127.61872559 63.41064453 126.90112305 C63.05293784 124.68233952 63.05293784 124.68233952 61 122 C60.7525 120.845 60.505 119.69 60.25 118.5 C59.15732937 113.73278376 56.87281988 109.82029634 54.4375 105.61328125 C53 103 53 103 52.09765625 100.55078125 C50.68600448 97.27032357 48.64150243 94.649622 46.4375 91.875 C45.99277344 91.306604 45.54804688 90.73820801 45.08984375 90.15258789 C40.80775623 84.70189801 36.42332827 79.33643496 32 74 C31.09468502 72.89483184 30.18975102 71.78935149 29.28515625 70.68359375 C28.37783724 69.58053741 27.47028996 68.47766879 26.5625 67.375 C25.73878906 66.37210937 24.91507813 65.36921875 24.06640625 64.3359375 C22.21798998 61.95332381 22.21798998 61.95332381 20 61 C19.731875 60.2575 19.46375 59.515 19.1875 58.75 C18.15387155 55.84416799 18.15387155 55.84416799 15.625 53.8125 C12.52672431 50.4929189 11.43189861 47.45609015 9.9921875 43.20703125 C9.08916884 40.67562307 9.08916884 40.67562307 6 39 C-0.39599669 27.93788474 -0.17248153 12.46179041 0 0 Z " fill="#A16DF1" transform="translate(137,210)"/>
<path d="M0 0 C1.01580139 -0.01292336 1.01580139 -0.01292336 2.05212402 -0.02610779 C4.27326509 -0.04866878 6.49313486 -0.04205058 8.71435547 -0.03295898 C10.26561862 -0.03819743 11.81687858 -0.04447472 13.36813354 -0.05174255 C16.61113533 -0.06212719 19.85369774 -0.05761119 23.09667969 -0.04296875 C27.25106068 -0.02574546 31.40406316 -0.04932811 35.55829048 -0.08445835 C38.75826161 -0.10641802 41.95790173 -0.10499517 45.15792465 -0.09669304 C46.68973177 -0.09587345 48.22156316 -0.1027385 49.75329971 -0.11746407 C51.89368912 -0.13489463 54.03158582 -0.12038818 56.171875 -0.09765625 C57.99671921 -0.09621361 57.99671921 -0.09621361 59.85842896 -0.09474182 C62.95654297 0.53344727 62.95654297 0.53344727 65.38449097 2.84632874 C66.95654297 5.53344727 66.95654297 5.53344727 66.89404297 9.15844727 C65.96256871 12.5117546 65.60511801 13.48711638 62.95654297 15.53344727 C61.05541992 15.87402344 61.05541992 15.87402344 58.94482422 15.82641602 C58.1875 15.81674805 57.43017578 15.80708008 56.64990234 15.79711914 C55.86421875 15.77198242 55.07853516 15.7468457 54.26904297 15.72094727 C53.47175781 15.70741211 52.67447266 15.69387695 51.85302734 15.67993164 C49.8872433 15.64461815 47.92180714 15.59081173 45.95654297 15.53344727 C45.83666016 16.1405957 45.71677734 16.74774414 45.59326172 17.37329102 C44.34422709 21.6108134 40.90763862 23.96114295 37.24951172 26.16235352 C33.42752208 27.75371575 30.58529552 27.93362259 26.45654297 27.90844727 C25.18810547 27.91618164 23.91966797 27.92391602 22.61279297 27.93188477 C17.4736126 27.37184588 14.19527153 25.83913413 10.64404297 22.09594727 C9.0891955 19.73488259 8.5348747 18.23042001 7.95654297 15.53344727 C6.18537109 15.62045898 6.18537109 15.62045898 4.37841797 15.70922852 C2.82116586 15.7561337 1.26387096 15.80163305 -0.29345703 15.84594727 C-1.07076172 15.8878418 -1.84806641 15.92973633 -2.64892578 15.97290039 C-8.43686712 16.09657435 -8.43686712 16.09657435 -11.55126953 13.20532227 C-13.39214978 9.90908643 -13.83257439 8.24229883 -13.04345703 4.53344727 C-8.68000362 0.92318005 -5.60591517 0.02852571 0 0 Z " fill="#401B7D" transform="translate(222.04345703125,382.466552734375)"/>
<path d="M0 0 C0.80195297 -0.00846954 1.60390594 -0.01693909 2.43016052 -0.02566528 C5.08462327 -0.04908864 7.73850807 -0.05005609 10.39306641 -0.04882812 C12.23768344 -0.05592725 14.08229826 -0.06362588 15.9269104 -0.07189941 C19.79557429 -0.08535702 23.66403408 -0.0869076 27.53271484 -0.08105469 C32.48848003 -0.07516186 37.44326443 -0.10572659 42.39883995 -0.14617157 C46.20959746 -0.17203447 50.02011852 -0.17492719 53.83095169 -0.17127991 C55.65779711 -0.17297294 57.48465324 -0.18263314 59.31141281 -0.20042419 C61.86842972 -0.22258344 64.42345811 -0.21292842 66.98046875 -0.1953125 C67.73389053 -0.20857574 68.48731232 -0.22183899 69.26356506 -0.23550415 C73.19280755 -0.17266879 74.97898955 0.31199442 78.13223267 2.73181152 C80.11962891 5.41992188 80.11962891 5.41992188 80.05712891 9.04492188 C79.11962891 12.41992188 79.11962891 12.41992188 77.11962891 15.41992188 C73.43449976 16.93618755 69.31324545 16.58978886 65.38525391 16.61279297 C64.61080933 16.62097046 63.83636475 16.62914795 63.03845215 16.63757324 C60.4821855 16.6623364 57.92597382 16.67891514 55.36962891 16.69335938 C54.49568481 16.69868305 53.62174072 16.70400673 52.72131348 16.70949173 C48.10018797 16.736177 43.47908912 16.75557123 38.85791016 16.77001953 C35.03214765 16.7833872 31.20691492 16.81129776 27.38134766 16.85205078 C22.7601361 16.90127562 18.13940689 16.92612696 13.51794434 16.93324661 C11.75722992 16.93997001 9.99652672 16.95522036 8.23596191 16.97913742 C5.77473394 17.01067991 3.31538006 17.01084371 0.85400391 17.00341797 C0.12661011 17.0198233 -0.60078369 17.03622864 -1.35021973 17.0531311 C-5.13026145 17.00639826 -6.58789871 16.7065237 -9.33276367 14.01675415 C-11.6868139 10.06673845 -11.39295374 7.9599396 -10.88037109 3.41992188 C-8.41389587 -0.66999435 -4.27603452 -0.0165437 0 0 Z " fill="#5B28AD" transform="translate(214.88037109375,359.580078125)"/>
<path d="M0 0 C2.76276177 0.52268466 5.3260876 1.10869587 8 2 C9.4974234 2.02440504 10.99620898 1.99202282 12.4921875 1.921875 C13.79736328 1.88320312 13.79736328 1.88320312 15.12890625 1.84375 C16.95243391 1.78149586 18.77549513 1.70348949 20.59765625 1.609375 C27.26093851 1.45189713 27.26093851 1.45189713 30.796875 4.07421875 C31.52390625 5.03972656 32.2509375 6.00523437 33 7 C33.43779785 7.54769043 33.8755957 8.09538086 34.32666016 8.65966797 C35.72548463 10.42855182 37.05352127 12.23529408 38.375 14.0625 C38.83777344 14.67416016 39.30054688 15.28582031 39.77734375 15.91601562 C43.06431694 20.454001 43.06431694 20.454001 42.75146484 23.10986328 C41.63406944 25.92041402 39.91983698 26.50522775 37.25 27.8125 C36.38890625 28.25207031 35.5278125 28.69164062 34.640625 29.14453125 C31.63688947 30.11763492 29.99312872 29.87748198 27 29 C27 28.34 27 27.68 27 27 C25.9275 26.731875 24.855 26.46375 23.75 26.1875 C20 25 20 25 17.875 23.3125 C16.06283914 21.73556669 16.06283914 21.73556669 13.69921875 22.26171875 C10.85708925 23.03908847 8.53612943 24.11834849 5.9375 25.5 C-1.40182233 29.3901801 -1.40182233 29.3901801 -5 28.51171875 C-5.99 28.10373047 -5.99 28.10373047 -7 27.6875 C-7.6909375 27.40648437 -8.381875 27.12546875 -9.09375 26.8359375 C-11.1002968 25.95601739 -13.07292011 25.04383494 -15 24 C-13.56196982 15.24677281 -5.3397905 6.87700291 0 0 Z " fill="#FAF8FD" transform="translate(235,158)"/>
<path d="M0 0 C0.66 0.33 1.32 0.66 2 1 C-0.07238962 4.13466714 -2.16250021 7.25039796 -4.32421875 10.32421875 C-4.71287109 10.87787109 -5.10152344 11.43152344 -5.50195312 12.00195312 C-6.30171244 13.13900797 -7.10385299 14.27439117 -7.90820312 15.40820312 C-9.6763412 17.93453776 -11.01847007 20.0554102 -12 23 C-11.4225 23.13148438 -10.845 23.26296875 -10.25 23.3984375 C-7.3799544 24.16577608 -4.72971829 25.31429963 -2 26.4765625 C0.4019554 27.10519926 1.67952754 26.82293044 4 26 C5.67063747 25.00664799 7.33675599 24.00568242 9 23 C15.11764706 19.94117647 15.11764706 19.94117647 18.8125 20.1875 C21 21 21 21 23 23 C25.31648799 24.03842565 27.64903024 25.0421975 30 26 C30 27.32 30 28.64 30 30 C26.8030605 30 25.87971669 29.52930652 23.1875 28 C19.597032 26.15215841 17.09619019 25.36281486 13 26 C10.28873616 27.42621684 10.28873616 27.42621684 8 29 C7.34 29 6.68 29 6 29 C5.67 29.99 5.34 30.98 5 32 C4.34 32 3.68 32 3 32 C3 64.67 3 97.34 3 131 C1.35 131 -0.3 131 -2 131 C-2.33 98.33 -2.66 65.66 -3 32 C-3.99 31.67 -4.98 31.34 -6 31 C-6 30.34 -6 29.68 -6 29 C-8.64 28.34 -11.28 27.68 -14 27 C-14 49.11 -14 71.22 -14 94 C-14.33 94 -14.66 94 -15 94 C-15 71.56 -15 49.12 -15 26 C-13.68 26 -12.36 26 -11 26 C-11 25.34 -11 24.68 -11 24 C-11.66 24 -12.32 24 -13 24 C-13.33012788 20.45112525 -13.46890443 18.62236406 -11.28125 15.71875 C-10.5284375 14.8215625 -9.775625 13.924375 -9 13 C-7.37506222 10.75776175 -5.81408015 8.47248354 -4.25 6.1875 C-3.63318359 5.2912793 -3.63318359 5.2912793 -3.00390625 4.37695312 C-2.00092082 2.91912546 -1.0002217 1.45972526 0 0 Z " fill="#D0BCEF" transform="translate(232,159)"/>
<path d="M0 0 C4.75 0.875 4.75 0.875 7 2 C7 35 7 68 7 102 C6.01 102 5.02 102 4 102 C4 69.33 4 36.66 4 3 C2.68 2.34 1.36 1.68 0 1 C0 0.67 0 0.34 0 0 Z " fill="#A177E2" transform="translate(260,187)"/>
<path d="M0 0 C2.97 0.495 2.97 0.495 6 1 C6 34 6 67 6 101 C5.01 101 4.02 101 3 101 C2.99191315 99.76416168 2.98382629 98.52832336 2.97549438 97.2550354 C2.89813627 85.62981017 2.81042348 74.00470346 2.71247292 62.37963295 C2.6624465 56.40252648 2.61611716 50.42543823 2.578125 44.44824219 C2.54135221 38.68399316 2.4950144 32.91989432 2.44193649 27.15577316 C2.42334985 24.9524943 2.40825783 22.74918319 2.39665604 20.54585648 C2.37986646 17.46872704 2.35084948 14.39194483 2.31884766 11.31494141 C2.31668747 10.39640884 2.31452728 9.47787628 2.31230164 8.5315094 C2.29555641 7.27788353 2.29555641 7.27788353 2.2784729 5.99893188 C2.27294214 5.27071543 2.26741138 4.54249897 2.26171303 3.79221535 C2.14533902 1.74699734 2.14533902 1.74699734 0 0 Z " fill="#AE89E6" transform="translate(228,188)"/>
<path d="M0 0 C0.80998444 -0.00043808 1.61996887 -0.00087616 2.45449829 -0.00132751 C5.13307764 0.00076333 7.81103188 0.02410803 10.48950195 0.04760742 C12.34609129 0.05320233 14.20268505 0.05747292 16.0592804 0.06047058 C20.94695249 0.07192764 25.83435735 0.10140223 30.72192383 0.13458252 C35.70886622 0.16526485 40.69585177 0.17897199 45.68286133 0.1940918 C55.46878607 0.22627109 65.25451242 0.27747786 75.0402832 0.34057617 C75.0402832 0.67057617 75.0402832 1.00057617 75.0402832 1.34057617 C74.16157814 1.35603737 74.16157814 1.35603737 73.26512146 1.37181091 C67.14897412 1.48028253 61.03296208 1.59484543 54.91699219 1.71289062 C52.63674764 1.75610957 50.35647345 1.79779345 48.07617188 1.83789062 C44.79198283 1.8959101 41.50794121 1.95951232 38.22387695 2.02416992 C37.21006454 2.04088242 36.19625214 2.05759491 35.15171814 2.07481384 C30.01890459 2.18140268 25.10577969 2.51226913 20.0402832 3.34057617 C18.41576929 3.38031963 16.78969401 3.38433135 15.1652832 3.34057617 C11.80791449 3.29465472 8.61820112 3.46047429 5.2902832 3.90307617 C2.40096887 4.28083105 0.61570226 4.26981268 -2.3347168 3.77807617 C-5.18342254 2.99575585 -5.18342254 2.99575585 -7.9597168 5.34057617 C-8.20987552 8.92414859 -8.20987552 8.92414859 -7.9597168 12.34057617 C-6.6397168 12.34057617 -5.3197168 12.34057617 -3.9597168 12.34057617 C-3.9597168 13.00057617 -3.9597168 13.66057617 -3.9597168 14.34057617 C5.5505028 14.38702555 15.06068301 14.42250923 24.57099152 14.44420052 C28.98755414 14.45461402 33.40403885 14.46872857 37.82055664 14.49145508 C42.08697775 14.5132705 46.35332415 14.52516308 50.61979675 14.53033066 C52.24319127 14.53401085 53.86658195 14.54119717 55.48994446 14.55203629 C57.77308825 14.56666709 60.05592781 14.56854932 62.33911133 14.56762695 C63.63594849 14.57206818 64.93278564 14.5765094 66.2689209 14.58108521 C70.45587739 14.31407271 74.00888424 13.47003221 78.0402832 12.34057617 C77.7102832 13.33057617 77.3802832 14.32057617 77.0402832 15.34057617 C73.39292358 16.90069929 69.21355242 16.51056232 65.3059082 16.53344727 C64.53146362 16.54162476 63.75701904 16.54980225 62.95910645 16.55822754 C60.4028398 16.5829907 57.84662812 16.59956943 55.2902832 16.61401367 C54.41633911 16.61933735 53.54239502 16.62466103 52.64196777 16.63014603 C48.02084227 16.6568313 43.39974341 16.67622553 38.77856445 16.69067383 C34.95280194 16.7040415 31.12756922 16.73195206 27.30200195 16.77270508 C22.68079039 16.82192991 18.06006119 16.84678126 13.43859863 16.85390091 C11.67788421 16.86062431 9.91718102 16.87587466 8.15661621 16.89979172 C5.69538823 16.93133421 3.23603435 16.931498 0.7746582 16.92407227 C0.0472644 16.9404776 -0.68012939 16.95688293 -1.42956543 16.9737854 C-5.20960715 16.92705256 -6.66724441 16.627178 -9.41210938 13.93740845 C-11.7661596 9.98739275 -11.47229944 7.8805939 -10.9597168 3.34057617 C-8.48810426 -0.7894956 -4.29247561 -0.0604944 0 0 Z " fill="#A285D1" transform="translate(214.959716796875,359.659423828125)"/>
<path d="M0 0 C0.56332031 0.22558594 1.12664062 0.45117188 1.70703125 0.68359375 C-3.6864838 5.44995589 -3.6864838 5.44995589 -6.7265625 6.62109375 C-14.31810148 9.764014 -20.16388924 17.47470803 -25.29296875 23.68359375 C-25.97359375 24.48796875 -26.65421875 25.29234375 -27.35546875 26.12109375 C-30.18130571 29.85849102 -32.7414921 33.75547292 -35.29296875 37.68359375 C-36.12828125 38.95203125 -36.12828125 38.95203125 -36.98046875 40.24609375 C-39.6389499 45.18327303 -41.22586899 50.19565211 -42.29296875 55.68359375 C-42.62039062 56.29460937 -42.9478125 56.905625 -43.28515625 57.53515625 C-44.39092704 59.89241957 -44.65232414 61.72390274 -44.85546875 64.30859375 C-45.19574653 68.48914931 -45.19574653 68.48914931 -46.29296875 70.68359375 C-46.29296875 71.61171875 -46.29296875 72.53984375 -46.29296875 73.49609375 C-46.29296875 76.68359375 -46.29296875 76.68359375 -46.79296875 78.93359375 C-47.25144409 81.45520811 -47.32625499 83.57053539 -47.29296875 86.12109375 C-47.21372675 92.66846372 -47.76669564 99.16156624 -48.29296875 105.68359375 C-48.62296875 105.68359375 -48.95296875 105.68359375 -49.29296875 105.68359375 C-49.34276186 100.5790343 -49.37887284 95.47461925 -49.40283203 90.36987305 C-49.41283036 88.63677504 -49.42643348 86.90369365 -49.44384766 85.1706543 C-49.46836959 82.66581091 -49.47951371 80.16119239 -49.48828125 77.65625 C-49.49860382 76.89337173 -49.50892639 76.13049347 -49.51956177 75.34449768 C-49.52067419 69.89448423 -48.6646209 64.95006768 -47.29296875 59.68359375 C-47.009375 58.59433594 -46.72578125 57.50507813 -46.43359375 56.3828125 C-39.41344992 32.64364191 -24.21194817 15.30190872 -4.5546875 0.8359375 C-2.29296875 -0.31640625 -2.29296875 -0.31640625 0 0 Z " fill="#D2BFF2" transform="translate(184.29296875,114.31640625)"/>
<path d="M0 0 C1.9375 2.3125 1.9375 2.3125 3 5 C3.556875 5.53625 4.11375 6.0725 4.6875 6.625 C6 8 6 8 6 11 C2.2776599 12.24078003 -1.18796033 12.14555459 -5.0625 12.125 C-5.79533203 12.12886719 -6.52816406 12.13273438 -7.28320312 12.13671875 C-12.74663018 12.12668491 -12.74663018 12.12668491 -15 11 C-14.72409808 7.41327507 -14.40452578 4.68593503 -12.5625 1.5625 C-8.56320447 -0.87609483 -4.55105713 -0.92272292 0 0 Z " fill="#F7F2FD" transform="translate(254,145)"/>
<path d="M0 0 C0.66 0 1.32 0 2 0 C2.0695099 11.38738212 2.12281639 22.77471376 2.15543652 34.16226482 C2.17109253 39.44996827 2.1923298 44.73752657 2.22631836 50.02514648 C2.25891385 55.1279779 2.2768535 60.23066969 2.28463173 65.33359718 C2.29017488 67.28045665 2.30099925 69.22730847 2.31719017 71.17410851 C2.33896687 73.90098969 2.34196681 76.6272939 2.34057617 79.35424805 C2.35675491 80.56158096 2.35675491 80.56158096 2.3732605 81.79330444 C2.34792441 86.38451856 1.78619462 89.30764308 -1 93 C-1.66 92.67 -2.32 92.34 -3 92 C-2.67657623 91.18687347 -2.35315247 90.37374695 -2.01992798 89.53598022 C-0.83979734 85.44459466 -0.69279703 81.64295015 -0.68115234 77.42431641 C-0.67110672 76.58463318 -0.6610611 75.74494995 -0.65071106 74.87982178 C-0.61996336 72.12040861 -0.6028674 69.3610921 -0.5859375 66.6015625 C-0.56721908 64.68198825 -0.54764516 62.76242218 -0.5272522 60.84286499 C-0.47599623 55.80251895 -0.43633552 50.76214626 -0.39910889 45.72167969 C-0.35902826 40.57350098 -0.30795444 35.42543255 -0.2578125 30.27734375 C-0.16113059 20.18497337 -0.07670105 10.09254063 0 0 Z " fill="#9B71E0" transform="translate(216,253)"/>
<path d="M0 0 C-5.625 3 -5.625 3 -9 3 C-9 3.66 -9 4.32 -9 5 C-9.75925781 5.18175781 -10.51851563 5.36351562 -11.30078125 5.55078125 C-12.29464844 5.80214844 -13.28851563 6.05351562 -14.3125 6.3125 C-15.79169922 6.67794922 -15.79169922 6.67794922 -17.30078125 7.05078125 C-20.2107072 8.07409819 -21.22842695 8.51642171 -23 11 C-23.27535914 13.50709498 -23.36923213 15.76154906 -23.32470703 18.26611328 C-23.32353882 19.00311966 -23.32237061 19.74012604 -23.32116699 20.49946594 C-23.31397081 22.94003246 -23.28573571 25.37990259 -23.2578125 27.8203125 C-23.24967276 29.52081681 -23.24301079 31.22132879 -23.23776245 32.92184448 C-23.22062451 37.40660039 -23.18638361 41.8910555 -23.14770508 46.37567139 C-23.08860536 53.53198001 -23.05444182 60.68843566 -23.02193832 67.84490585 C-23.00807407 70.33581804 -22.98645521 72.82656889 -22.96365356 75.31741333 C-22.91001258 82.61192135 -22.93453777 89.76421209 -24 97 C-24.33 97 -24.66 97 -25 97 C-25 67.3 -25 37.6 -25 7 C-19.86258546 4.79825091 -14.98043173 2.90802681 -9.6875 1.25 C-8.97271484 1.01667969 -8.25792969 0.78335938 -7.52148438 0.54296875 C-2.23954417 -1.11977209 -2.23954417 -1.11977209 0 0 Z " fill="#7433DD" transform="translate(306,245)"/>
<path d="M0 0 C0.99386719 0.10183594 1.98773438 0.20367187 3.01171875 0.30859375 C3.77097656 0.39238281 4.53023437 0.47617188 5.3125 0.5625 C5.6425 1.5525 5.9725 2.5425 6.3125 3.5625 C6.9725 3.5625 7.6325 3.5625 8.3125 3.5625 C8.3125 4.8825 8.3125 6.2025 8.3125 7.5625 C7.3225 7.2325 6.3325 6.9025 5.3125 6.5625 C4.125 4 4.125 4 3.3125 1.5625 C1.70732903 1.64983576 0.10328338 1.75802224 -1.5 1.875 C-2.39332031 1.93300781 -3.28664062 1.99101562 -4.20703125 2.05078125 C-7.16257348 2.66050728 -7.98546538 3.08356069 -9.6875 5.5625 C-10.3475 7.8725 -11.0075 10.1825 -11.6875 12.5625 C-4.7575 12.5625 2.1725 12.5625 9.3125 12.5625 C8.9825 11.2425 8.6525 9.9225 8.3125 8.5625 C8.9725 8.5625 9.6325 8.5625 10.3125 8.5625 C10.3125 10.2125 10.3125 11.8625 10.3125 13.5625 C10.9725 13.5625 11.6325 13.5625 12.3125 13.5625 C12.9725 15.2125 13.6325 16.8625 14.3125 18.5625 C13.48878906 18.39621094 12.66507812 18.22992188 11.81640625 18.05859375 C7.23953434 17.41058624 2.75027367 17.54838994 -1.85351562 17.68945312 C-6.00389219 17.75645825 -8.91607013 17.22924977 -12.6875 15.5625 C-14.0075 15.5625 -15.3275 15.5625 -16.6875 15.5625 C-16.6875 14.9025 -16.6875 14.2425 -16.6875 13.5625 C-16.0275 13.5625 -15.3675 13.5625 -14.6875 13.5625 C-14.54054687 12.65757812 -14.54054687 12.65757812 -14.390625 11.734375 C-13.48571328 6.89777786 -12.86498667 3.60067212 -8.6875 0.5625 C-5.3763987 -0.54120043 -3.44001051 -0.36423641 0 0 Z " fill="#AB88E9" transform="translate(250.6875,143.4375)"/>
<path d="M0 0 C0.6836261 -0.00058411 1.3672522 -0.00116821 2.07159424 -0.00177002 C4.31209616 0.00099786 6.55123691 0.03202476 8.79150391 0.06347656 C10.35233839 0.07094365 11.9131823 0.07663438 13.47402954 0.08062744 C17.56775118 0.09584715 21.66089862 0.13509649 25.75439453 0.17944336 C29.93725824 0.22047572 34.12021539 0.23865539 38.30322266 0.25878906 C46.50009976 0.30159508 54.69651151 0.36980102 62.89306641 0.45410156 C62.89306641 0.78410156 62.89306641 1.11410156 62.89306641 1.45410156 C54.60041503 1.60791911 46.30769037 1.75610023 38.01481152 1.89706516 C34.16419647 1.96269672 30.31363609 2.03027717 26.46313477 2.10229492 C22.7479412 2.17171051 19.03269129 2.23602845 15.31734657 2.2967968 C13.89913028 2.32089232 12.48094408 2.34683171 11.06279564 2.3746357 C9.07816661 2.41323254 7.0934027 2.4446957 5.10864258 2.47583008 C3.97835129 2.49581558 2.84806 2.51580109 1.68351746 2.53639221 C-1.10693359 2.45410156 -1.10693359 2.45410156 -4.10693359 1.45410156 C-4.43693359 2.11410156 -4.76693359 2.77410156 -5.10693359 3.45410156 C-6.09693359 3.78410156 -7.08693359 4.11410156 -8.10693359 4.45410156 C-9.14288882 8.48281632 -8.97682213 10.10465887 -8.10693359 14.45410156 C-2.82693359 14.45410156 2.45306641 14.45410156 7.89306641 14.45410156 C7.89306641 14.78410156 7.89306641 15.11410156 7.89306641 15.45410156 C5.14142209 15.5892806 2.3964212 15.68825407 -0.35693359 15.76660156 C-1.13423828 15.80849609 -1.91154297 15.85039062 -2.71240234 15.89355469 C-8.50034368 16.01722865 -8.50034368 16.01722865 -11.61474609 13.12597656 C-13.45562634 9.82974073 -13.89605095 8.16295313 -13.10693359 4.45410156 C-8.71144111 0.80336511 -5.6529715 -0.04081568 0 0 Z " fill="#7455A7" transform="translate(222.10693359375,382.5458984375)"/>
<path d="M0 0 C3.18706942 1.43561686 5.62169105 3.20266329 8.25 5.5 C8.95640625 6.1084375 9.6628125 6.716875 10.390625 7.34375 C12 9 12 9 12 11 C12.5775 11.268125 13.155 11.53625 13.75 11.8125 C16.05550043 13.02929189 18.02056192 14.30333879 20 16 C20 16.66 20 17.32 20 18 C21.65 18.66 23.3 19.32 25 20 C25 20.66 25 21.32 25 22 C25.886875 22.226875 26.77375 22.45375 27.6875 22.6875 C31.43380532 24.17188513 33.33729434 26.02403485 36 29 C30.99971686 27.65846062 26.80932497 25.51629997 23 22 C23 21.34 23 20.68 23 20 C22.443125 19.91234375 21.88625 19.8246875 21.3125 19.734375 C18.31793561 18.78339847 16.43654755 17.22598064 14 15.25 C13.154375 14.57453125 12.30875 13.8990625 11.4375 13.203125 C8.97588757 10.97820607 7.05107606 8.5989062 5 6 C2.88339573 4.68834743 2.88339573 4.68834743 1 4 C1.165 5.134375 1.33 6.26875 1.5 7.4375 C2.07576084 11.97060294 2.09505266 16.43747238 2 21 C-0.06723714 17.89914429 -0.24497423 17.27068319 -0.1953125 13.76953125 C-0.18886719 12.96708984 -0.18242187 12.16464844 -0.17578125 11.33789062 C-0.15902344 10.50451172 -0.14226562 9.67113281 -0.125 8.8125 C-0.11597656 7.96751953 -0.10695312 7.12253906 -0.09765625 6.25195312 C-0.07410703 4.16784757 -0.03823647 2.08388783 0 0 Z " fill="#B48DF1" transform="translate(136,206)"/>
<path d="M0 0 C3.62161105 0.60615948 3.97861568 0.97380421 6.5 4.0625 C13 13.84268576 13 13.84268576 13 20 C13.99 20.33 14.98 20.66 16 21 C16.87890625 23.07421875 16.87890625 23.07421875 17.5625 25.6875 C18.30793222 28.46286627 19.04777886 31.12401806 20.08203125 33.80859375 C21.22047799 37.76651283 21.22111773 41.28629979 21.125 45.375 C21.11597656 46.11105469 21.10695312 46.84710938 21.09765625 47.60546875 C21.07430144 49.4037888 21.03843836 51.20193911 21 53 C20.67 53 20.34 53 20 53 C19.87882812 51.80761719 19.75765625 50.61523438 19.6328125 49.38671875 C19.46397327 47.82026592 19.29467868 46.25386212 19.125 44.6875 C19.04636719 43.90181641 18.96773437 43.11613281 18.88671875 42.30664062 C18.76103516 41.1706543 18.76103516 41.1706543 18.6328125 40.01171875 C18.55949707 39.31522217 18.48618164 38.61872559 18.41064453 37.90112305 C18.05293784 35.68233952 18.05293784 35.68233952 16 33 C15.7525 31.845 15.505 30.69 15.25 29.5 C14.15732937 24.73278376 11.87281988 20.82029634 9.4375 16.61328125 C8 14 8 14 7.0078125 11.46875 C5.90800317 8.77464343 4.52016645 6.5837207 2.875 4.1875 C2.33617187 3.39730469 1.79734375 2.60710937 1.2421875 1.79296875 C0.83226562 1.20128906 0.42234375 0.60960937 0 0 Z " fill="#B595EB" transform="translate(182,299)"/>
<path d="M0 0 C0.66 0.66 1.32 1.32 2 2 C4.31648799 3.03842565 6.64903024 4.0421975 9 5 C9 6.32 9 7.64 9 9 C5.8030605 9 4.87971669 8.52930652 2.1875 7 C-1.43618103 5.14848415 -3.87349409 4.29761602 -8 5 C-9.25097713 5.64696457 -10.48005536 6.33752801 -11.6875 7.0625 C-12.780625 7.701875 -13.87375 8.34125 -15 9 C-15.99 8.67 -16.98 8.34 -18 8 C-14.34307179 2.27611237 -6.94200834 -2.94509445 0 0 Z " fill="#AF90E9" transform="translate(253,180)"/>
<path d="M0 0 C0.33 0 0.66 0 1 0 C1.00586624 1.10833694 1.01173248 2.21667389 1.01777649 3.3585968 C1.07493061 13.79155261 1.1476537 24.22429852 1.23571491 34.6570406 C1.2804878 40.02093829 1.31972859 45.38475881 1.34643555 50.7487793 C1.37239958 55.92306893 1.41275276 61.09706268 1.46318626 66.27116966 C1.47990179 68.2475333 1.49138679 70.22394818 1.49761391 72.2003727 C1.50720418 74.96373313 1.53520196 77.7263285 1.56762695 80.48950195 C1.56619186 81.31093185 1.56475677 82.13236176 1.5632782 82.97868347 C1.47481121 87.14995455 1.47481121 87.14995455 3.48195171 90.59700298 C4.23338562 91.29148651 4.23338562 91.29148651 5 92 C5.6875 94.1875 5.6875 94.1875 6 96 C3.77788746 95.11115498 2.3076889 94.42177428 0.88137817 92.46661377 C-0.4338334 88.78587937 -0.26059792 85.14336959 -0.22705078 81.28417969 C-0.22734283 80.40577423 -0.22763489 79.52736877 -0.22793579 78.62234497 C-0.22654367 75.72208745 -0.21098794 72.82208758 -0.1953125 69.921875 C-0.19158195 67.90977112 -0.18873518 65.89766543 -0.18673706 63.88555908 C-0.1791039 58.59190854 -0.15945807 53.29836789 -0.1373291 48.00476074 C-0.11686389 42.60214728 -0.10773389 37.19951605 -0.09765625 31.796875 C-0.07621193 21.19786841 -0.04207975 10.59894334 0 0 Z " fill="#8C5FD8" transform="translate(280,253)"/>
<path d="M0 0 C-3.01534383 3.01534383 -6.62087497 2.56433587 -10.6875 2.875 C-23.70643371 4.0773895 -35.30433871 7.35496899 -47.171875 12.828125 C-50 14 -50 14 -53 14 C-52 11 -52 11 -49.0078125 9.5 C-47.71900088 8.98609184 -46.42424082 8.48693971 -45.125 8 C-44.44099121 7.73799805 -43.75698242 7.47599609 -43.05224609 7.20605469 C-29.1931257 1.98980267 -14.83812234 -0.53956808 0 0 Z " fill="#C5ADF2" transform="translate(239,100)"/>
<path d="M0 0 C0 3.3535938 -0.99090354 5.76700432 -2.19921875 8.859375 C-3.32277315 11.86282772 -4.16199387 14.90582353 -5 18 C-5.66 18 -6.32 18 -7 18 C-7.02505615 18.57032959 -7.0501123 19.14065918 -7.07592773 19.72827148 C-7.19156549 22.29826157 -7.31443624 24.86785527 -7.4375 27.4375 C-7.47681641 28.33533203 -7.51613281 29.23316406 -7.55664062 30.15820312 C-7.59853516 31.01220703 -7.64042969 31.86621094 -7.68359375 32.74609375 C-7.72025146 33.53685303 -7.75690918 34.3276123 -7.79467773 35.14233398 C-8 37 -8 37 -9 38 C-11.875 38.3125 -11.875 38.3125 -15 38 C-16.875 36 -16.875 36 -18 34 C-15.6875 33.3125 -15.6875 33.3125 -13 33 C-11.33203125 34.48046875 -11.33203125 34.48046875 -10 36 C-10.06960938 35.19820313 -10.13921875 34.39640625 -10.2109375 33.5703125 C-10.72894472 22.69216087 -7.83291575 14.06140384 -4 4 C-3.34 4 -2.68 4 -2 4 C-2 3.01 -2 2.02 -2 1 C-1.34 0.67 -0.68 0.34 0 0 Z " fill="#7F4ADB" transform="translate(304,315)"/>
<path d="M0 0 C0.99 0 1.98 0 3 0 C3 11.22 3 22.44 3 34 C2.01 34 1.02 34 0 34 C0 22.78 0 11.56 0 0 Z " fill="#8653D6" transform="translate(264,255)"/>
<path d="M0 0 C0.99 0 1.98 0 3 0 C3 11.22 3 22.44 3 34 C2.01 34 1.02 34 0 34 C0 22.78 0 11.56 0 0 Z " fill="#976ADD" transform="translate(231,255)"/>
<path d="M0 0 C0.33 0 0.66 0 1 0 C1 10.89 1 21.78 1 33 C0.67 33 0.34 33 0 33 C0 29.7 0 26.4 0 23 C-2.92903361 24.59004681 -5.09745602 26.09995489 -7.4375 28.5 C-10.12110927 31.11815539 -12.59082452 32.49362014 -16 34 C-14.70048028 30.10144085 -12.78181675 29.01182061 -9.5625 26.5 C-6.45374892 24.06812171 -4.19548258 22.29322388 -2 19 C-1.34 19 -0.68 19 0 19 C0 12.73 0 6.46 0 0 Z " fill="#7E3EE8" transform="translate(361,187)"/>
<path d="M0 0 C-0.33 0.66 -0.66 1.32 -1 2 C-1.99 2.33 -2.98 2.66 -4 3 C-5.03595522 7.02871475 -4.86988854 8.65055731 -4 13 C1.28 13 6.56 13 12 13 C12 13.33 12 13.66 12 14 C9.24835568 14.13517903 6.50335479 14.23415251 3.75 14.3125 C2.97269531 14.35439453 2.19539062 14.39628906 1.39453125 14.43945312 C-4.39148855 14.56308603 -4.39148855 14.56308603 -7.51171875 11.67578125 C-9.32232579 8.42049037 -9.71659235 6.66258311 -9 3 C-5.75566237 0.29638531 -4.29107948 0 0 0 Z " fill="#9372CF" transform="translate(218,384)"/>
<path d="M0 0 C1.46373047 0.16628906 1.46373047 0.16628906 2.95703125 0.3359375 C3.69308594 0.43132812 4.42914063 0.52671875 5.1875 0.625 C5.5175 1.615 5.8475 2.605 6.1875 3.625 C6.8475 3.625 7.5075 3.625 8.1875 3.625 C8.1875 4.945 8.1875 6.265 8.1875 7.625 C7.1975 7.295 6.2075 6.965 5.1875 6.625 C4 4.0625 4 4.0625 3.1875 1.625 C-3.24639256 1.47117585 -3.24639256 1.47117585 -8.8125 4.25 C-10.26792866 5.98531879 -11.5890262 7.72016071 -12.8125 9.625 C-13.8125 6.625 -13.8125 6.625 -12.6875 4.0625 C-9.22255902 -0.44192328 -5.394727 -0.64996711 0 0 Z " fill="#A781E9" transform="translate(250.8125,143.375)"/>
<path d="M0 0 C0.55816406 0.22816406 1.11632812 0.45632812 1.69140625 0.69140625 C-3.71430804 5.46854911 -3.71430804 5.46854911 -6.80859375 6.62890625 C-10.5026179 8.19886652 -12.57809862 10.77041146 -15.30859375 13.69140625 C-15.96859375 13.36140625 -16.62859375 13.03140625 -17.30859375 12.69140625 C-13.67688384 7.72806937 -6.67991841 -0.89291634 0 0 Z " fill="#D0BCF1" transform="translate(184.30859375,114.30859375)"/>
<path d="M0 0 C0.99 0 1.98 0 3 0 C3 5.28 3 10.56 3 16 C2.01 16 1.02 16 0 16 C0 10.72 0 5.44 0 0 Z " fill="#895ED5" transform="translate(264,296)"/>
<path d="M0 0 C-5.625 3 -5.625 3 -9 3 C-9 3.66 -9 4.32 -9 5 C-11.28977245 5.52909886 -13.58189188 6.04805019 -15.875 6.5625 C-17.78925781 6.99755859 -17.78925781 6.99755859 -19.7421875 7.44140625 C-23 8 -23 8 -25 7 C-19.97325024 4.76003287 -14.93745717 2.8945649 -9.6875 1.25 C-8.97271484 1.01667969 -8.25792969 0.78335938 -7.52148438 0.54296875 C-2.23954417 -1.11977209 -2.23954417 -1.11977209 0 0 Z " fill="#823DEF" transform="translate(306,245)"/>
<path d="M0 0 C9.24 0 18.48 0 28 0 C24.35141327 2.43239115 22.70093749 2.18030876 18.375 2.0625 C14.10081563 1.99170606 9.99019936 2.01003103 5.75 2.5625 C2 3 2 3 0 2 C0 1.34 0 0.68 0 0 Z " fill="#7F49DB" transform="translate(214,361)"/>
<path d="M0 0 C0.66 0.33 1.32 0.66 2 1 C-0.06693296 4.13832481 -2.15747429 7.2437649 -4.359375 10.2890625 C-4.75253906 10.83820313 -5.14570313 11.38734375 -5.55078125 11.953125 C-6.35928255 13.08028642 -7.17455983 14.20261432 -7.99609375 15.3203125 C-10.32752652 18.60445701 -11 19.83292404 -11 24 C-11.66 24 -12.32 24 -13 24 C-13.33012788 20.45112525 -13.46890443 18.62236406 -11.28125 15.71875 C-10.5284375 14.8215625 -9.775625 13.924375 -9 13 C-7.37506222 10.75776175 -5.81408015 8.47248354 -4.25 6.1875 C-3.63318359 5.2912793 -3.63318359 5.2912793 -3.00390625 4.37695312 C-2.00092082 2.91912546 -1.0002217 1.45972526 0 0 Z " fill="#B493EC" transform="translate(232,159)"/>
<path d="M0 0 C4.40032035 1.41410654 6.95165468 3.54728241 10.1875 6.8125 C11.04730469 7.66457031 11.90710938 8.51664063 12.79296875 9.39453125 C14.92096788 11.90670014 16.00079488 13.89074162 17 17 C15.140625 16.73046875 15.140625 16.73046875 13 16 C11.796875 14.36328125 11.796875 14.36328125 10.75 12.3125 C8.35813759 8.13611329 5.55438082 5.86038509 1.57421875 3.2265625 C1.05472656 2.82179688 0.53523438 2.41703125 0 2 C0 1.34 0 0.68 0 0 Z " fill="#966AE5" transform="translate(325,123)"/>
<path d="M0 0 C0.66 0 1.32 0 2 0 C2 1.65 2 3.3 2 5 C2.66 5 3.32 5 4 5 C4.66 6.65 5.32 8.3 6 10 C2.62294375 9.46274105 -0.696686 8.88935377 -4 8 C-2.35 7.67 -0.7 7.34 1 7 C1 6.34 1 5.68 1 5 C0.01 5.495 0.01 5.495 -1 6 C-3.88370333 6.07194869 -6.74239664 6.09291708 -9.625 6.0625 C-10.42679688 6.05798828 -11.22859375 6.05347656 -12.0546875 6.04882812 C-14.03649006 6.03703168 -16.01825433 6.01909605 -18 6 C-18 5.67 -18 5.34 -18 5 C-11.73 4.67 -5.46 4.34 1 4 C0.67 2.68 0.34 1.36 0 0 Z " fill="#C8AEF2" transform="translate(259,152)"/>
<path d="M0 0 C0.99 0 1.98 0 3 0 C3 4.62 3 9.24 3 14 C2.01 14 1.02 14 0 14 C0 9.38 0 4.76 0 0 Z " fill="#976EDB" transform="translate(231,297)"/>
<path d="M0 0 C1.32 0.33 2.64 0.66 4 1 C2.19587357 4.26460973 1.16605307 5.88929795 -2 8 C-2.33 8.680625 -2.66 9.36125 -3 10.0625 C-4 12 -4 12 -7 13 C-7 11.68 -7 10.36 -7 9 C-6.34 9 -5.68 9 -5 9 C-4.67 7.68 -4.34 6.36 -4 5 C-2.68 5 -1.36 5 0 5 C0 3.35 0 1.7 0 0 Z " fill="#773DDC" transform="translate(324,284)"/>
<path d="M0 0 C0.66 0 1.32 0 2 0 C2.64687807 2.72892283 3.29253718 5.45812447 3.9375 8.1875 C4.21110352 9.34088867 4.21110352 9.34088867 4.49023438 10.51757812 C5.39120113 14.33440092 6.26637997 18.14656426 7 22 C3.56656005 20.28328003 3.11014012 16.5528236 1.88671875 13.078125 C0.63806417 8.74358839 0.19496616 4.49396996 0 0 Z " fill="#BFA2EF" transform="translate(138,228)"/>
<path d="M0 0 C0 0.66 0 1.32 0 2 C-1.42578125 3.2890625 -1.42578125 3.2890625 -3.3125 4.625 C-3.92738281 5.07101563 -4.54226563 5.51703125 -5.17578125 5.9765625 C-7 7 -7 7 -10 7 C-10 6.34 -10 5.68 -10 5 C-10.66 4.67 -11.32 4.34 -12 4 C-10.75539217 3.32332002 -9.50403104 2.65905281 -8.25 2 C-7.55390625 1.62875 -6.8578125 1.2575 -6.140625 0.875 C-4 0 -4 0 0 0 Z " fill="#AA85E7" transform="translate(277,184)"/>
<path d="M0 0 C0.66 0 1.32 0 2 0 C1.58234056 2.50595662 1.19935817 4.62832837 -0.0078125 6.87890625 C-1.42195371 9.90205064 -1.44058266 12.77990013 -1.65625 16.07421875 C-1.7696875 16.70972656 -1.883125 17.34523437 -2 18 C-2.66 18.33 -3.32 18.66 -4 19 C-4.20413361 13.26157749 -4.27141454 8.39460953 -2 3 C-1.34 3 -0.68 3 0 3 C0 2.01 0 1.02 0 0 Z " fill="#CCB5F0" transform="translate(141,165)"/>
<path d="M0 0 C-0.625 1.9375 -0.625 1.9375 -2 4 C-6.92855619 5.21692745 -11.83521812 5.11802302 -16.875 5.0625 C-17.65875 5.05798828 -18.4425 5.05347656 -19.25 5.04882812 C-21.16670014 5.03714093 -23.08336048 5.01920908 -25 5 C-25 4.67 -25 4.34 -25 4 C-23.37191406 3.94392578 -23.37191406 3.94392578 -21.7109375 3.88671875 C-20.26559261 3.82102125 -18.82028161 3.75457524 -17.375 3.6875 C-16.66214844 3.66494141 -15.94929688 3.64238281 -15.21484375 3.61914062 C-9.65338588 3.3385166 -5.25593652 0 0 0 Z " fill="#331960" transform="translate(293,370)"/>
<path d="M0 0 C7.59 0 15.18 0 23 0 C23 0.99 23 1.98 23 3 C22.01 3.33 21.02 3.66 20 4 C19.67 3.01 19.34 2.02 19 1 C12.73 1 6.46 1 0 1 C0 0.67 0 0.34 0 0 Z " fill="#4A2A81" transform="translate(267,361)"/>
<path d="M0 0 C0.99 0 1.98 0 3 0 C2.39196574 3.12308506 1.37985958 5.19251662 -0.5 7.75 C-1.16515625 8.67039062 -1.16515625 8.67039062 -1.84375 9.609375 C-2.2253125 10.06828125 -2.606875 10.5271875 -3 11 C-3.33 11 -3.66 11 -4 11 C-4.36997319 5.45040214 -4.36997319 5.45040214 -2.5625 3.25 C-2.046875 2.8375 -1.53125 2.425 -1 2 C-0.67 1.34 -0.34 0.68 0 0 Z " fill="#6A26D6" transform="translate(341,262)"/>
<path d="M0 0 C2.4032938 0.38944633 3.70665601 0.70586533 5.44921875 2.453125 C7.84587977 5.93092963 9.60690145 8.67591596 10 13 C5.75595588 9.11973109 2.89082453 4.95745654 0 0 Z " fill="#A984E6" transform="translate(182,299)"/>
<path d="M0 0 C1.2088912 3.62667361 0.67992092 4.49221953 -0.75 7.9375 C-1.26820313 9.21947266 -1.26820313 9.21947266 -1.796875 10.52734375 C-2.97410316 12.94677695 -4.31371325 14.91152417 -6 17 C-5.57664615 10.50857435 -3.08900201 5.66507011 0 0 Z " fill="#D7C6F4" transform="translate(146,151)"/>
<path d="M0 0 C3.3 0 6.6 0 10 0 C10.33 0.99 10.66 1.98 11 3 C11.66 3 12.32 3 13 3 C13 4.32 13 5.64 13 7 C12.01 6.67 11.02 6.34 10 6 C8.8125 3.4375 8.8125 3.4375 8 1 C5.36 1 2.72 1 0 1 C0 0.67 0 0.34 0 0 Z " fill="#B290E8" transform="translate(246,144)"/>
<path d="M0 0 C0.66 0.33 1.32 0.66 2 1 C0.515 2.485 0.515 2.485 -1 4 C-0.34 4.66 0.32 5.32 1 6 C-0.32 6.33 -1.64 6.66 -3 7 C-3 6.34 -3 5.68 -3 5 C-3.61875 4.87625 -4.2375 4.7525 -4.875 4.625 C-7 4 -7 4 -9 2 C-7.329375 2.061875 -7.329375 2.061875 -5.625 2.125 C-1.95633975 2.41121859 -1.95633975 2.41121859 0 0 Z " fill="#C9AFEF" transform="translate(237,184)"/>
<path d="M0 0 C4.95 0 9.9 0 15 0 C15 0.33 15 0.66 15 1 C13.78763672 1.03867187 13.78763672 1.03867187 12.55078125 1.078125 C4.41785022 1.3552224 4.41785022 1.3552224 -2 6 C-1.34 4.02 -0.68 2.04 0 0 Z " fill="#DDD8E5" transform="translate(268,398)"/>
<path d="M0 0 C0.99 0 1.98 0 3 0 C3 0.66 3 1.32 3 2 C4.8871875 1.690625 4.8871875 1.690625 6.8125 1.375 C10.4014758 0.78664331 10.75073878 0.83382585 14 3 C9.05 3 4.1 3 -1 3 C-0.67 2.01 -0.34 1.02 0 0 Z " fill="#6134AF" transform="translate(215,394)"/>
<path d="M0 0 C11 4 11 4 13 8 C7.73691968 6.58795406 4.2437012 4.31008693 0 1 C0 0.67 0 0.34 0 0 Z " fill="#B188F3" transform="translate(159,227)"/>
<path d="M0 0 C0.66 0.33 1.32 0.66 2 1 C0.625 2.5 0.625 2.5 -1 4 C-1.66 4 -2.32 4 -3 4 C-3.226875 4.639375 -3.45375 5.27875 -3.6875 5.9375 C-5 8 -5 8 -7.625 8.75 C-8.40875 8.8325 -9.1925 8.915 -10 9 C-9.67 8.34 -9.34 7.68 -9 7 C-8.34 7 -7.68 7 -7 7 C-7 6.34 -7 5.68 -7 5 C-6.01 5 -5.02 5 -4 5 C-4 4.34 -4 3.68 -4 3 C-2 1.375 -2 1.375 0 0 Z " fill="#7B35ED" transform="translate(343,221)"/>
<path d="M0 0 C2.475 0.99 2.475 0.99 5 2 C5 3.32 5 4.64 5 6 C1.30581799 6 -0.77836178 4.71820705 -4 3 C-3.34 2.67 -2.68 2.34 -2 2 C-1.01 2.33 -0.02 2.66 1 3 C0.67 2.01 0.34 1.02 0 0 Z " fill="#BCA1EE" transform="translate(257,183)"/>
<path d="M0 0 C0.33 0.66 0.66 1.32 1 2 C0.67 2.99 0.34 3.98 0 5 C0.66 5.33 1.32 5.66 2 6 C-0.31 6.66 -2.62 7.32 -5 8 C-5 7.34 -5 6.68 -5 6 C-4.34 6 -3.68 6 -3 6 C-2.87625 5.38125 -2.7525 4.7625 -2.625 4.125 C-2 2 -2 2 0 0 Z " fill="#BC9BF0" transform="translate(239,151)"/>
<path d="M0 0 C-1 3 -1 3 -2.875 4.1875 C-5 5 -5 5 -8 5 C-7.67 4.01 -7.34 3.02 -7 2 C-4.56723614 0.81480735 -2.71982714 0 0 0 Z " fill="#D5C0F4" transform="translate(194,109)"/>
<path d="M0 0 C4.67692308 1.47692308 4.67692308 1.47692308 6.3125 4.125 C6.539375 4.74375 6.76625 5.3625 7 6 C4.0625 5.25 4.0625 5.25 1 4 C0.125 1.875 0.125 1.875 0 0 Z " fill="#AB83EB" transform="translate(317,116)"/>
<path d="M0 0 C1.32 0.33 2.64 0.66 4 1 C1.03 3.475 1.03 3.475 -2 6 C-2 3 -2 3 0 0 Z " fill="#C8B0F1" transform="translate(182,114)"/>
<path d="M0 0 C1.98 0.495 1.98 0.495 4 1 C1.25 5.875 1.25 5.875 -1 7 C-0.67 4.69 -0.34 2.38 0 0 Z " fill="#8D5BE0" transform="translate(324,284)"/>
<path d="M0 0 C0.33 0.66 0.66 1.32 1 2 C1.66 2 2.32 2 3 2 C3 3.98 3 5.96 3 8 C2.34 8 1.68 8 1 8 C-0.35439668 5.29120665 -0.06501451 2.99066732 0 0 Z " fill="#9263E5" transform="translate(355,163)"/>
<path d="M0 0 C1.875 0.1875 1.875 0.1875 4 1 C5.25 3.5625 5.25 3.5625 6 6 C4.125 5.8125 4.125 5.8125 2 5 C0.75 2.4375 0.75 2.4375 0 0 Z " fill="#8A5BDD" transform="translate(336,134)"/>
<path d="M0 0 C1.98 0.99 1.98 0.99 4 2 C4 3.98 4 5.96 4 8 C1.10067643 5.60490662 0.49831724 3.68754757 0 0 Z " fill="#5D3D94" transform="translate(230,397)"/>
<path d="M0 0 C2.97 0.99 5.94 1.98 9 3 C9 3.66 9 4.32 9 5 C4.89198233 3.81323934 3.10551666 3.10551666 0 0 Z " fill="#B186F6" transform="translate(172,235)"/>
<path d="M0 0 C1.65 0 3.3 0 5 0 C5 0.66 5 1.32 5 2 C5.66 2.33 6.32 2.66 7 3 C5.1875 3.6875 5.1875 3.6875 3 4 C1.25 2.625 1.25 2.625 0 1 C0 0.67 0 0.34 0 0 Z " fill="#B497E8" transform="translate(223,185)"/>
<path d="M0 0 C2.475 0.99 2.475 0.99 5 2 C4.01 3.485 4.01 3.485 3 5 C0.03 4.505 0.03 4.505 -3 4 C-2.01 3.67 -1.02 3.34 0 3 C0 2.01 0 1.02 0 0 Z " fill="#C1A9F0" transform="translate(221,182)"/>
</svg>
