<?xml version="1.0" encoding="UTF-8"?>
<svg version="1.1" xmlns="http://www.w3.org/2000/svg" width="500" height="500">
<path d="M0 0 C6.58093054 5.90160868 10.55519944 14.27592725 11.23828125 23.06640625 C11.51494849 36.09888937 8.31910943 44.17274793 0 54 C-5.846103 60.98419626 -9.87308797 66.60852462 -11.46484375 75.69921875 C-11.64144531 76.45847656 -11.81804687 77.21773438 -12 78 C-12.99 78.495 -12.99 78.495 -14 79 C-15.9375 78.0625 -15.9375 78.0625 -18 76 C-19.40013208 69.86708212 -19.14749215 63.29631664 -19.1328125 57.0390625 C-19.13376923 56.12667816 -19.13472595 55.21429382 -19.13571167 54.27426147 C-19.13638728 52.36334158 -19.1345766 50.4524193 -19.13037109 48.54150391 C-19.12497652 45.61225296 -19.13035614 42.68315273 -19.13671875 39.75390625 C-19.13605859 37.89062466 -19.13477871 36.02734317 -19.1328125 34.1640625 C-19.13483673 33.28908112 -19.13686096 32.41409973 -19.13894653 31.51260376 C-19.13421829 30.29521011 -19.13421829 30.29521011 -19.12939453 29.05322266 C-19.12859894 28.34090485 -19.12780334 27.62858704 -19.12698364 26.89468384 C-19 25 -19 25 -18 22 C-19.32 22.33 -20.64 22.66 -22 23 C-21.67 33.89 -21.34 44.78 -21 56 C-21.99 56 -22.98 56 -24 56 C-24.33 45.11 -24.66 34.22 -25 23 C-29.60532389 21.54685336 -29.60532389 21.54685336 -32 23 C-32.33 34.22 -32.66 45.44 -33 57 C-33.66 57 -34.32 57 -35 57 C-35 45.78 -35 34.56 -35 23 C-35.66 23 -36.32 23 -37 23 C-37.00586624 23.63004944 -37.01173248 24.26009888 -37.01777649 24.90924072 C-37.08167861 31.46306556 -37.1660902 38.0163979 -37.26245117 44.56982422 C-37.29571877 47.01604726 -37.32374491 49.4623474 -37.34643555 51.90869141 C-37.37994708 55.42383705 -37.43226276 58.93827495 -37.48828125 62.453125 C-37.49786613 64.0955014 -37.49786613 64.0955014 -37.50764465 65.77105713 C-37.52743881 66.79181335 -37.54723297 67.81256958 -37.56762695 68.86425781 C-37.57873001 69.76138489 -37.58983307 70.65851196 -37.60127258 71.58282471 C-38.0864723 74.52421455 -38.86864537 75.92302542 -41 78 C-42.32 78 -43.64 78 -45 78 C-45.22042969 76.83984375 -45.22042969 76.83984375 -45.4453125 75.65625 C-47.0326558 68.2851386 -49.11384048 63.6480347 -54 58 C-62.76378396 47.6440594 -68.9740831 37.91153665 -68.3125 23.6875 C-67.12892109 13.5087214 -63.87475697 5.82004298 -55.82421875 -0.78515625 C-39.08110057 -12.55449839 -16.38690526 -12.23977985 0 0 Z M-30 8 C-30.33 8.99 -30.66 9.98 -31 11 C-29.35 11 -27.7 11 -26 11 C-26.33 10.01 -26.66 9.02 -27 8 C-27.99 8 -28.98 8 -30 8 Z M-36.1875 15.375 C-37.09856124 17.86045055 -37.09856124 17.86045055 -37 20 C-35.15274948 20.69159401 -35.15274948 20.69159401 -33 21 C-32.01 20.34 -31.02 19.68 -30 19 C-27.15879766 19.35515029 -24.71952248 20.09349251 -22 21 C-21.34 20.67 -20.68 20.34 -20 20 C-20.61277612 17.03824877 -21.25372522 15.61941217 -23 13 C-27.90456841 12.07895429 -32.68411721 11.57132726 -36.1875 15.375 Z " fill="#A474F2" transform="translate(135,207)"/>
<path d="M0 0 C1.64574566 -0.02688151 3.29161413 -0.04634123 4.9375 -0.0625 C5.85402344 -0.07410156 6.77054687 -0.08570313 7.71484375 -0.09765625 C10 0 10 0 11 1 C11.22623521 2.48437809 11.39412965 3.97777425 11.53515625 5.47265625 C11.62216797 6.37177734 11.70917969 7.27089844 11.79882812 8.19726562 C11.88583984 9.14279297 11.97285156 10.08832031 12.0625 11.0625 C12.15337891 12.01189453 12.24425781 12.96128906 12.33789062 13.93945312 C12.56256498 16.29262135 12.78308182 18.64610619 13 21 C13.05534912 20.43490723 13.11069824 19.86981445 13.16772461 19.28759766 C13.42024372 16.73297668 13.67879723 14.17900185 13.9375 11.625 C14.02451172 10.73554688 14.11152344 9.84609375 14.20117188 8.9296875 C14.28818359 8.07890625 14.37519531 7.228125 14.46484375 6.3515625 C14.543396 5.56604004 14.62194824 4.78051758 14.70288086 3.97119141 C15 2 15 2 16 0 C19.3 0 22.6 0 26 0 C26.19916016 1.71509766 26.19916016 1.71509766 26.40234375 3.46484375 C26.5805031 4.9557562 26.75890082 6.44664018 26.9375 7.9375 C27.02451172 8.69224609 27.11152344 9.44699219 27.20117188 10.22460938 C27.34324099 13.92187458 27.34324099 13.92187458 29 17 C29.66 11.39 30.32 5.78 31 0 C34.63 0 38.26 0 42 0 C41.42963272 10.89045031 40.4938335 21.69762977 39.27050781 32.53295898 C38.99445142 34.98682128 38.72743398 37.44156729 38.4609375 39.89648438 C38.28698856 41.46099654 38.11252986 43.02545214 37.9375 44.58984375 C37.85830322 45.32194565 37.77910645 46.05404755 37.69750977 46.80833435 C37.11488235 51.88511765 37.11488235 51.88511765 36 53 C31.66469082 53.14393457 27.33842269 53.04212061 23 53 C22.34 48.38 21.68 43.76 21 39 C20.34 43.62 19.68 48.24 19 53 C14.38 53 9.76 53 5 53 C-0.36273486 11.06341336 -0.36273486 11.06341336 0 0 Z " fill="#562D9B" transform="translate(378,222)"/>
<path d="M0 0 C3.28371829 2.34551307 4.12219875 4.13713911 5.625 7.875 C5.9068213 10.63294928 6.04677924 13.15494344 6.0234375 15.90625 C6.02630768 16.66039185 6.02917786 17.41453369 6.03213501 18.19152832 C6.03416695 19.77824662 6.02869821 21.36499047 6.01611328 22.95166016 C6.00004596 25.3680876 6.01599036 27.78284278 6.03515625 30.19921875 C6.03317366 31.74739949 6.02932966 33.2955792 6.0234375 34.84375 C6.03254654 35.91743835 6.03254654 35.91743835 6.0418396 37.01281738 C5.96571001 42.49447184 4.62374937 46.45984451 1.125 50.6875 C-2.49433609 53.55280774 -6.98893255 53.33188203 -11.375 52.875 C-15.00905974 51.57222387 -16.84502006 50.56945647 -19.1875 47.5 C-22.32463512 40.56528027 -21.55883203 32.95331793 -21.5625 25.5 C-21.57474609 24.19804687 -21.58699219 22.89609375 -21.59960938 21.5546875 C-21.60154297 20.29140625 -21.60347656 19.028125 -21.60546875 17.7265625 C-21.60957764 16.58010254 -21.61368652 15.43364258 -21.61791992 14.25244141 C-21.2710771 9.43010619 -20.53025794 5.29112264 -17.4375 1.5 C-12.4230238 -2.45079943 -5.77709325 -1.92569775 0 0 Z M-9.375 9.875 C-9.375 20.435 -9.375 30.995 -9.375 41.875 C-8.385 41.875 -7.395 41.875 -6.375 41.875 C-4.93990779 39.00481559 -5.26341494 36.53956277 -5.27734375 33.3359375 C-5.28056641 32.03398437 -5.28378906 30.73203125 -5.28710938 29.390625 C-5.29546534 28.01041601 -5.30393029 26.63020768 -5.3125 25.25 C-5.31751499 23.86198074 -5.3220779 22.47395978 -5.32617188 21.0859375 C-5.33799024 17.68224868 -5.35446566 14.27864561 -5.375 10.875 C-6.695 10.545 -8.015 10.215 -9.375 9.875 Z " fill="#582D9E" transform="translate(366.375,223.125)"/>
<path d="M0 0 C3.3 0 6.6 0 10 0 C12.16090886 2.16090886 11.72400131 7.2005847 12 10 C12.99 6.7 13.98 3.4 15 0 C18.63 0 22.26 0 26 0 C25.44134703 5.80999087 24.23404136 11.16675566 22.62109375 16.77734375 C21.08612648 24.74179657 22.3577483 31.58302426 24.5 39.3125 C24.9729901 41.05744995 25.4419034 42.80351133 25.90625 44.55078125 C26.22045898 45.69027222 26.22045898 45.69027222 26.54101562 46.8527832 C27 49 27 49 27 53 C23.04 53 19.08 53 15 53 C14.01 48.38 13.02 43.76 12 39 C11.67 43.62 11.34 48.24 11 53 C7.37 53 3.74 53 0 53 C0 35.51 0 18.02 0 0 Z " fill="#9F6DEE" transform="translate(258,222)"/>
<path d="M0 0 C0.79792969 0.00386719 1.59585938 0.00773438 2.41796875 0.01171875 C3.21589844 0.00785156 4.01382813 0.00398437 4.8359375 0 C10.79136108 0.01011108 10.79136108 0.01011108 11.91796875 1.13671875 C12.15751454 2.65113477 12.33671476 4.175169 12.49047852 5.70068359 C12.64052086 7.15757095 12.64052086 7.15757095 12.79359436 8.64389038 C12.89780197 9.70113312 13.00200958 10.75837585 13.109375 11.84765625 C13.27372292 13.4662706 13.27372292 13.4662706 13.44139099 15.11758423 C13.67288071 17.40565458 13.902233 19.69394201 14.12963867 21.98242188 C14.47831596 25.49006198 14.83329258 28.99701888 15.18945312 32.50390625 C15.41313104 34.72261892 15.63645021 36.94136779 15.859375 39.16015625 C15.96560684 40.21335052 16.07183868 41.2665448 16.18128967 42.35165405 C16.27816574 43.32921661 16.37504181 44.30677917 16.47485352 45.31396484 C16.56066177 46.17476654 16.64647003 47.03556824 16.73487854 47.92245483 C16.91796875 50.13671875 16.91796875 50.13671875 16.91796875 53.13671875 C13.28796875 53.13671875 9.65796875 53.13671875 5.91796875 53.13671875 C5.58796875 50.49671875 5.25796875 47.85671875 4.91796875 45.13671875 C3.26796875 45.13671875 1.61796875 45.13671875 -0.08203125 45.13671875 C-0.41203125 47.77671875 -0.74203125 50.41671875 -1.08203125 53.13671875 C-4.71203125 53.13671875 -8.34203125 53.13671875 -12.08203125 53.13671875 C-11.05741996 39.9734772 -9.89957202 26.83036179 -8.51953125 13.69921875 C-8.39280029 12.46719727 -8.26606934 11.23517578 -8.13549805 9.96582031 C-8.01343994 8.82725586 -7.89138184 7.68869141 -7.765625 6.515625 C-7.65790771 5.50056885 -7.55019043 4.4855127 -7.43920898 3.43969727 C-6.73235821 -1.11787167 -4.07830444 0.00692412 0 0 Z M1.91796875 14.13671875 C1.00636589 21.49465608 0.80337849 28.72654852 0.91796875 36.13671875 C1.90796875 36.13671875 2.89796875 36.13671875 3.91796875 36.13671875 C4.06512567 28.74617115 3.62573867 21.4924704 2.91796875 14.13671875 C2.58796875 14.13671875 2.25796875 14.13671875 1.91796875 14.13671875 Z " fill="#9E6DEC" transform="translate(203.08203125,221.86328125)"/>
<path d="M0 0 C3.49262099 2.57788692 4.36786702 4.81689745 5.625 8.9375 C5.625 10.9175 5.625 12.8975 5.625 14.9375 C1.665 14.9375 -2.295 14.9375 -6.375 14.9375 C-6.375 13.2875 -6.375 11.6375 -6.375 9.9375 C-7.365 9.9375 -8.355 9.9375 -9.375 9.9375 C-7.61101031 15.52845037 -3.98328195 18.43849277 0.21484375 22.33984375 C5.61791125 28.16324713 6.11099776 33.20028125 5.91015625 40.8671875 C5.45340335 45.78510227 4.17997397 48.56546414 0.5 51.8125 C-4.73628419 53.86148077 -9.46028822 53.57573726 -14.75 51.8125 C-18.16734252 49.37154106 -19.10117008 47.97129474 -20.375 43.9375 C-20.60568634 39.92355763 -20.55042256 35.95272742 -20.375 31.9375 C-16.745 31.9375 -13.115 31.9375 -9.375 31.9375 C-9.045 34.9075 -8.715 37.8775 -8.375 40.9375 C-7.385 41.2675 -6.395 41.5975 -5.375 41.9375 C-6.53822292 34.69966849 -9.37255461 31.14434638 -14.375 25.9375 C-19.29585964 20.27788535 -20.72938166 17.25260091 -20.66015625 9.70703125 C-20.26511412 5.87025217 -18.97008601 3.74884318 -16.375 0.9375 C-11.15889083 -2.22708506 -5.66510798 -1.78345992 0 0 Z " fill="#9E6FEB" transform="translate(245.375,223.0625)"/>
<path d="M0 0 C6.93 0 13.86 0 21 0 C22 1 22 1 22.1328125 3.25 C22.13023437 4.1575 22.12765625 5.065 22.125 6 C22.12886719 7.36125 22.12886719 7.36125 22.1328125 8.75 C22 11 22 11 21 12 C19.31391034 12.07205511 17.62499341 12.08386068 15.9375 12.0625 C15.01839844 12.05347656 14.09929687 12.04445312 13.15234375 12.03515625 C12.44207031 12.02355469 11.73179687 12.01195312 11 12 C11 14.31 11 16.62 11 19 C14.3 19 17.6 19 21 19 C21 22.63 21 26.26 21 30 C17.7 30 14.4 30 11 30 C11 37.59 11 45.18 11 53 C7.37 53 3.74 53 0 53 C0 35.51 0 18.02 0 0 Z " fill="#582CA0" transform="translate(290,222)"/>
<path d="M0 0 C8.00295655 1.07447102 13.52401245 3.81623218 18.7265625 10.078125 C25.41759584 19.50490103 27.13114314 28.49576011 26 40 C24.24038427 48.11727495 20.2801251 53.76265923 15 60 C9.153897 66.98419626 5.12691203 72.60852462 3.53515625 81.69921875 C3.35855469 82.45847656 3.18195313 83.21773438 3 84 C2.01 84.495 2.01 84.495 1 85 C-0.9375 84.0625 -0.9375 84.0625 -3 82 C-4.35112194 74.02838053 -4.11416281 66.00087197 -4.0625 57.9375 C-4.05747314 56.58138187 -4.05291234 55.22526192 -4.04882812 53.86914062 C-4.03712079 50.57938006 -4.02072211 47.28971406 -4 44 C-3.34 44 -2.68 44 -2 44 C-1.67 45.32 -1.34 46.64 -1 48 C0.45947705 47.93993922 1.91779272 47.8511311 3.375 47.75 C4.18710938 47.70359375 4.99921875 47.6571875 5.8359375 47.609375 C8.17704383 47.22289408 8.17704383 47.22289408 9.125 45.03515625 C9.41375 44.36355469 9.7025 43.69195312 10 43 C12 42 14 41 16 40 C18.77781876 37.7717497 21.36863367 35.4045244 24 33 C23.34 29.7 22.68 26.4 22 23 C20.35 22.67 18.7 22.34 17 22 C17.33 21.01 17.66 20.02 18 19 C17.59070014 16.94603274 17.59070014 16.94603274 17 15 C17 14.34 17 13.68 17 13 C15.68406998 9.60051412 14.3065353 7.61087617 11 6 C7.9472587 6.05272437 5.00313371 6.46739295 2 7 C1.34 4.69 0.68 2.38 0 0 Z " fill="#6618E5" transform="translate(120,201)"/>
<path d="M0 0 C0.98484375 -0.00128906 1.9696875 -0.00257813 2.984375 -0.00390625 C4.02078125 -0.00003906 5.0571875 0.00382813 6.125 0.0078125 C7.67960938 0.00201172 7.67960938 0.00201172 9.265625 -0.00390625 C10.25046875 -0.00261719 11.2353125 -0.00132812 12.25 0 C13.16007812 0.00112793 14.07015625 0.00225586 15.0078125 0.00341797 C17.125 0.1328125 17.125 0.1328125 18.125 1.1328125 C18.19705511 2.81890216 18.20886068 4.50781909 18.1875 6.1953125 C18.17847656 7.11441406 18.16945312 8.03351563 18.16015625 8.98046875 C18.14855469 9.69074219 18.13695312 10.40101563 18.125 11.1328125 C16.145 11.1328125 14.165 11.1328125 12.125 11.1328125 C12.125 24.9928125 12.125 38.8528125 12.125 53.1328125 C8.165 53.1328125 4.205 53.1328125 0.125 53.1328125 C0.125 39.2728125 0.125 25.4128125 0.125 11.1328125 C-1.855 11.1328125 -3.835 11.1328125 -5.875 11.1328125 C-5.90188151 9.48706684 -5.92134123 7.84119837 -5.9375 6.1953125 C-5.94910156 5.27878906 -5.96070313 4.36226562 -5.97265625 3.41796875 C-5.79323156 -0.780569 -3.67732703 0.00455759 0 0 Z " fill="#A06DF1" transform="translate(168.875,221.8671875)"/>
<path d="M0 0 C3.63 0 7.26 0 11 0 C11 14.52 11 29.04 11 44 C14.63 44 18.26 44 22 44 C22 46.97 22 49.94 22 53 C14.74 53 7.48 53 0 53 C0 35.51 0 18.02 0 0 Z " fill="#562E99" transform="translate(318,222)"/>
<path d="M0 0 C0.33 0 0.66 0 1 0 C1.07416092 6.19300719 1.12860756 12.38575584 1.16479492 18.57910156 C1.17988069 20.6859182 1.20035193 22.79270344 1.22631836 24.89941406 C1.26271053 27.9278132 1.2797285 30.95579709 1.29296875 33.984375 C1.30845261 34.92617615 1.32393646 35.86797729 1.33988953 36.83831787 C1.34011612 37.71892883 1.34034271 38.59953979 1.34057617 39.50683594 C1.34723801 40.27960876 1.35389984 41.05238159 1.36076355 41.84857178 C0.89204802 44.64377607 0.00280171 46.00824709 -2 48 C-3.32 48 -4.64 48 -6 48 C-6.22042969 46.83984375 -6.22042969 46.83984375 -6.4453125 45.65625 C-7.81883682 39.2780451 -9.38600021 34.75919875 -13.5703125 29.7421875 C-16.70807489 25.9185754 -18 22.91372702 -18 18 C-18.66 18 -19.32 18 -20 18 C-20.66 15.69 -21.32 13.38 -22 11 C-20.71034824 9.62437146 -19.37310707 8.29233607 -18 7 C-17.34 7 -16.68 7 -16 7 C-16 7.66 -16 8.32 -16 9 C-10.66164461 10.92471317 -5.65020618 12.39891424 0 13 C0 8.71 0 4.42 0 0 Z " fill="#A06EF1" transform="translate(96,237)"/>
<path d="M0 0 C0.98484375 -0.00128906 1.9696875 -0.00257813 2.984375 -0.00390625 C4.02078125 -0.00003906 5.0571875 0.00382813 6.125 0.0078125 C7.67960938 0.00201172 7.67960938 0.00201172 9.265625 -0.00390625 C10.25046875 -0.00261719 11.2353125 -0.00132812 12.25 0 C13.16007812 0.00112793 14.07015625 0.00225586 15.0078125 0.00341797 C17.125 0.1328125 17.125 0.1328125 18.125 1.1328125 C18.19705511 2.81890216 18.20886068 4.50781909 18.1875 6.1953125 C18.17847656 7.11441406 18.16945312 8.03351563 18.16015625 8.98046875 C18.14855469 9.69074219 18.13695312 10.40101563 18.125 11.1328125 C16.145 11.1328125 14.165 11.1328125 12.125 11.1328125 C12.125 24.9928125 12.125 38.8528125 12.125 53.1328125 C9.815 53.1328125 7.505 53.1328125 5.125 53.1328125 C5.125 52.8028125 5.125 52.4728125 5.125 52.1328125 C6.775 52.1328125 8.425 52.1328125 10.125 52.1328125 C9.795 38.6028125 9.465 25.0728125 9.125 11.1328125 C11.83379335 9.77841582 14.13433268 10.06779799 17.125 10.1328125 C17.125 7.4928125 17.125 4.8528125 17.125 2.1328125 C10.195 2.1328125 3.265 2.1328125 -3.875 2.1328125 C-3.875 4.4428125 -3.875 6.7528125 -3.875 9.1328125 C-3.070625 9.2771875 -2.26625 9.4215625 -1.4375 9.5703125 C1.125 10.1328125 1.125 10.1328125 2.125 11.1328125 C2.21371273 14.16259054 2.2401935 17.16948272 2.22265625 20.19921875 C2.2212413 21.10784164 2.21982635 22.01646454 2.21836853 22.95262146 C2.21275193 25.86688471 2.20019665 28.78107231 2.1875 31.6953125 C2.18248714 33.66601452 2.17792386 35.63671774 2.17382812 37.60742188 C2.16277711 42.44924809 2.14550138 47.29101745 2.125 52.1328125 C2.785 52.4628125 3.445 52.7928125 4.125 53.1328125 C2.805 53.1328125 1.485 53.1328125 0.125 53.1328125 C0.125 39.2728125 0.125 25.4128125 0.125 11.1328125 C-1.855 11.1328125 -3.835 11.1328125 -5.875 11.1328125 C-5.90188151 9.48706684 -5.92134123 7.84119837 -5.9375 6.1953125 C-5.94910156 5.27878906 -5.96070313 4.36226562 -5.97265625 3.41796875 C-5.79323156 -0.780569 -3.67732703 0.00455759 0 0 Z " fill="#916ED2" transform="translate(168.875,221.8671875)"/>
<path d="M0 0 C3.50710768 0.15084334 6.722594 0.7361637 10 2 C12.81890704 6.31126959 13.37247082 9.90956551 13 15 C12.34 14.67 11.68 14.34 11 14 C11.33 13.01 11.66 12.02 12 11 C10.68 11.33 9.36 11.66 8 12 C8.33 22.89 8.66 33.78 9 45 C8.01 45 7.02 45 6 45 C5.67 34.11 5.34 23.22 5 12 C0.39467611 10.54685336 0.39467611 10.54685336 -2 12 C-2.33 23.22 -2.66 34.44 -3 46 C-3.66 46 -4.32 46 -5 46 C-5 34.78 -5 23.56 -5 12 C-5.66 11.67 -6.32 11.34 -7 11 C-0.73684211 6.94736842 -0.73684211 6.94736842 2.625 7.1875 C3.40875 7.455625 4.1925 7.72375 5 8 C6.3921875 8.2784375 6.3921875 8.2784375 7.8125 8.5625 C8.534375 8.706875 9.25625 8.85125 10 9 C9.505 8.21625 9.01 7.4325 8.5 6.625 C7 4 7 4 7 2 C5.576875 2.309375 5.576875 2.309375 4.125 2.625 C3.09375 2.74875 2.0625 2.8725 1 3 C0.34 2.34 -0.32 1.68 -1 1 C-0.67 0.67 -0.34 0.34 0 0 Z " fill="#8967CA" transform="translate(105,218)"/>
<path d="M0 0 C4.14581887 -0.02886751 8.29161216 -0.04675327 12.4375 -0.0625 C14.21350586 -0.07506836 14.21350586 -0.07506836 16.02539062 -0.08789062 C17.15009766 -0.09111328 18.27480469 -0.09433594 19.43359375 -0.09765625 C20.47572021 -0.10289307 21.51784668 -0.10812988 22.59155273 -0.11352539 C25 0 25 0 26 1 C26.04063832 2.66617115 26.042721 4.33388095 26 6 C24.948125 6.268125 23.89625 6.53625 22.8125 6.8125 C19.06759131 7.78604057 19.06759131 7.78604057 16.4375 9.6875 C14 11 14 11 10.875 10.875 C7.83609403 9.95011557 7.11938232 9.20768992 5 7 C1.89992799 5.79950593 1.89992799 5.79950593 -1 5 C-0.67 3.35 -0.34 1.7 0 0 Z " fill="#441B87" transform="translate(94,294)"/>
<path d="M0 0 C1.64548828 -0.02416992 1.64548828 -0.02416992 3.32421875 -0.04882812 C4.37480469 -0.04947266 5.42539063 -0.05011719 6.5078125 -0.05078125 C7.46574707 -0.05376221 8.42368164 -0.05674316 9.41064453 -0.05981445 C12.25315135 0.36963105 13.12446997 1.09185908 14.875 3.3125 C14.215 4.6325 13.555 5.9525 12.875 7.3125 C3.305 7.3125 -6.265 7.3125 -16.125 7.3125 C-16.455 5.6625 -16.785 4.0125 -17.125 2.3125 C-11.43165003 -0.28826989 -6.16151344 -0.01822933 0 0 Z " fill="#270E60" transform="translate(108.125,285.6875)"/>
<path d="M0 0 C6.93 0 13.86 0 21 0 C22 1 22 1 22.1328125 3.25 C22.13023437 4.1575 22.12765625 5.065 22.125 6 C22.12886719 7.36125 22.12886719 7.36125 22.1328125 8.75 C22 11 22 11 21 12 C19.31391034 12.07205511 17.62499341 12.08386068 15.9375 12.0625 C15.01839844 12.05347656 14.09929687 12.04445312 13.15234375 12.03515625 C12.44207031 12.02355469 11.73179687 12.01195312 11 12 C11 14.31 11 16.62 11 19 C14.3 19 17.6 19 21 19 C21 22.63 21 26.26 21 30 C17.7 30 14.4 30 11 30 C11 37.59 11 45.18 11 53 C7.37 53 3.74 53 0 53 C0 35.51 0 18.02 0 0 Z M1 2 C1 18.5 1 35 1 52 C3.97 52 6.94 52 10 52 C10 44.41 10 36.82 10 29 C12.97 29 15.94 29 19 29 C19.20970559 24.85906302 19.20970559 24.85906302 18 21 C16.10466658 20.53476937 16.10466658 20.53476937 13.9375 20.375 C12.638125 20.25125 11.33875 20.1275 10 20 C10.33 16.7 10.66 13.4 11 10 C12.093125 10.20625 13.18625 10.4125 14.3125 10.625 C18.0838401 11.40346525 18.0838401 11.40346525 21 9 C21.25660094 5.92078868 21.39431504 3.78863007 20 1 C17.20826945 0.97309896 14.41679652 0.95320947 11.625 0.9375 C10.8309375 0.92912109 10.036875 0.92074219 9.21875 0.91210938 C4.97607778 0.76959849 4.97607778 0.76959849 1 2 Z " fill="#543689" transform="translate(290,222)"/>
<path d="M0 0 C0.66 0 1.32 0 2 0 C2.3641989 2.5614319 2.71662798 5.12358419 3.0625 7.6875 C3.16626953 8.40873047 3.27003906 9.12996094 3.37695312 9.87304688 C3.9023633 13.84079957 4.10596507 17.07885111 3 21 C3.61875 21.103125 4.2375 21.20625 4.875 21.3125 C7 22 7 22 9 25 C9.12734185 30.47569935 7.65151511 35.82525265 6 41 C3.5625 40.0625 3.5625 40.0625 1 38 C-0.41474368 30.05048787 -0.11407509 21.98718073 -0.0625 13.9375 C-0.05747314 12.58138187 -0.05291234 11.22526192 -0.04882812 9.86914062 C-0.03712079 6.57938006 -0.02072211 3.28971406 0 0 Z " fill="#6B2ADF" transform="translate(116,245)"/>
<path d="M0 0 C0 0.33 0 0.66 0 1 C-0.9075 1.061875 -1.815 1.12375 -2.75 1.1875 C-6.79780059 2.19945015 -7.50738741 3.78372569 -10 7 C-12.3125 7.6875 -12.3125 7.6875 -15 8 C-18.67896671 8.64618344 -18.67896671 8.64618344 -22 10 C-23.51792644 12.49641128 -23.51792644 12.49641128 -24 15 C-24.99 15 -25.98 15 -27 15 C-28.46652017 17.88019276 -29.82047874 20.79308515 -31.125 23.75 C-31.47820312 24.54921875 -31.83140625 25.3484375 -32.1953125 26.171875 C-32.46085937 26.77515625 -32.72640625 27.3784375 -33 28 C-32.34 28.33 -31.68 28.66 -31 29 C-32.485 32.465 -32.485 32.465 -34 36 C-36.6543391 31.70297557 -35.82449283 28.64037179 -34.81640625 23.87890625 C-32.50645027 15.73327199 -28.04882474 9.68758477 -21 5 C-13.93144594 1.19607785 -8.01722815 -0.66810235 0 0 Z " fill="#BA9EE9" transform="translate(103,199)"/>
<path d="M0 0 C8.00295655 1.07447102 13.52401245 3.81623218 18.7265625 10.078125 C25.38582869 19.46014535 26.47456668 27.62797632 26 39 C25.87625 38.360625 25.7525 37.72125 25.625 37.0625 C25.41875 36.381875 25.2125 35.70125 25 35 C24.34 34.67 23.68 34.34 23 34 C23.309375 33.2265625 23.309375 33.2265625 23.625 32.4375 C24.15887026 28.96734329 23.07676761 26.29364209 22 23 C20.35 22.67 18.7 22.34 17 22 C17.33 21.01 17.66 20.02 18 19 C17.59070014 16.94603274 17.59070014 16.94603274 17 15 C17 14.34 17 13.68 17 13 C15.68406998 9.60051412 14.3065353 7.61087617 11 6 C7.9472587 6.05272437 5.00313371 6.46739295 2 7 C1.34 4.69 0.68 2.38 0 0 Z " fill="#7951C7" transform="translate(120,201)"/>
<path d="M0 0 C0.103125 1.216875 0.20625 2.43375 0.3125 3.6875 C0.76219312 7.41069448 1.78382778 9.91662995 4 13 C2.35 12.67 0.7 12.34 -1 12 C-0.34 13.65 0.32 15.3 1 17 C-4.75 16.125 -4.75 16.125 -7 15 C-9.11596899 10.18029285 -9.17786056 6.15795631 -9 1 C-6.04335481 -0.4783226 -3.25770263 -0.06032783 0 0 Z " fill="#A06EF1" transform="translate(235,257)"/>
<path d="M0 0 C1.32 0.66 2.64 1.32 4 2 C4.02699725 4.27076842 4.04639453 6.54162821 4.0625 8.8125 C4.07410156 10.07707031 4.08570312 11.34164062 4.09765625 12.64453125 C4 16 4 16 3 19 C3.27571139 21.00875442 3.60235737 23.01178687 4 25 C7.465 24.505 7.465 24.505 11 24 C12.0625 25.8125 12.0625 25.8125 13 28 C12.67 28.99 12.34 29.98 12 31 C9.93359375 31.73046875 9.93359375 31.73046875 7.4375 32.1875 C6.61121094 32.34605469 5.78492187 32.50460938 4.93359375 32.66796875 C4.29550781 32.77753906 3.65742187 32.88710937 3 33 C0.128364 27.06528559 -0.37454815 20.896439 0.5625 14.4375 C1.21687657 9.83262784 0.24826242 6.44693488 -1 2 C-0.67 1.34 -0.34 0.68 0 0 Z " fill="#925BEC" transform="translate(116,217)"/>
<path d="M0 0 C1 2 2 4 3 6 C4.2375 6.7115625 4.2375 6.7115625 5.5 7.4375 C8 9 8 9 9 12 C9.66 12 10.32 12 11 12 C10.690625 12.598125 10.38125 13.19625 10.0625 13.8125 C8.16405874 17.72105553 7.98489667 19.82679744 9 24 C9.66 24 10.32 24 11 24 C11.66 26.31 12.32 28.62 13 31 C5.27087059 23.71253513 0.60991005 16.4326694 -0.1796875 5.515625 C-0.18621057 3.67611952 -0.1039572 1.83657722 0 0 Z " fill="#A37AE7" transform="translate(67,231)"/>
<path d="M0 0 C0.66 0 1.32 0 2 0 C1.54747125 10.18969906 0.60983895 20.29927824 -0.5 30.4375 C-0.63059814 31.65284424 -0.76119629 32.86818848 -0.89575195 34.12036133 C-1.02296631 35.25497803 -1.15018066 36.38959473 -1.28125 37.55859375 C-1.39533203 38.58267334 -1.50941406 39.60675293 -1.62695312 40.66186523 C-2 43 -2 43 -3 44 C-5.18639453 44.07258946 -7.37500389 44.08373783 -9.5625 44.0625 C-11.35880859 44.04896484 -11.35880859 44.04896484 -13.19140625 44.03515625 C-14.11824219 44.02355469 -15.04507812 44.01195312 -16 44 C-16.55543644 41.04364476 -17.09482498 38.08589268 -17.625 35.125 C-17.78484375 34.28324219 -17.9446875 33.44148438 -18.109375 32.57421875 C-18.25117188 31.76855469 -18.39296875 30.96289062 -18.5390625 30.1328125 C-18.67521973 29.38918457 -18.81137695 28.64555664 -18.95166016 27.87939453 C-18.9676123 27.25919434 -18.98356445 26.63899414 -19 26 C-18.34 25.34 -17.68 24.68 -17 24 C-16.95101563 24.78246094 -16.90203125 25.56492187 -16.8515625 26.37109375 C-16.77679688 27.38300781 -16.70203125 28.39492188 -16.625 29.4375 C-16.55539062 30.44683594 -16.48578125 31.45617187 -16.4140625 32.49609375 C-16.27742188 33.32238281 -16.14078125 34.14867187 -16 35 C-15.34 35.33 -14.68 35.66 -14 36 C-12.73770492 40.47540984 -12.73770492 40.47540984 -14 43 C-9.545 42.505 -9.545 42.505 -5 42 C-4.7834375 40.0509375 -4.7834375 40.0509375 -4.5625 38.0625 C-4.125 34.125 -4.125 34.125 -3 33 C-2.69781089 30.55801604 -2.45282769 28.13414938 -2.24609375 25.68359375 C-2.18092056 24.95253922 -2.11574738 24.22148468 -2.04859924 23.46827698 C-1.8406804 21.12503459 -1.63902702 18.78129993 -1.4375 16.4375 C-1.29793726 14.85217729 -1.15796863 13.26689025 -1.01757812 11.68164062 C-0.67366794 7.78815932 -0.33537725 3.89422522 0 0 Z " fill="#4F2F89" transform="translate(417,231)"/>
<path d="M0 0 C0.33 0 0.66 0 1 0 C1.07416092 6.19300719 1.12860756 12.38575584 1.16479492 18.57910156 C1.17988069 20.6859182 1.20035193 22.79270344 1.22631836 24.89941406 C1.26271053 27.9278132 1.2797285 30.95579709 1.29296875 33.984375 C1.30845261 34.92617615 1.32393646 35.86797729 1.33988953 36.83831787 C1.34022942 38.15923431 1.34022942 38.15923431 1.34057617 39.50683594 C1.34723801 40.27960876 1.35389984 41.05238159 1.36076355 41.84857178 C0.89204802 44.64377607 0.00280171 46.00824709 -2 48 C-3.32 48 -4.64 48 -6 48 C-6.33 45.03 -6.66 42.06 -7 39 C-5.68 40.65 -4.36 42.3 -3 44 C-2.16805797 38.73712861 -1.73030457 33.54202278 -1.46484375 28.22265625 C-1.42186661 27.41130722 -1.37888947 26.59995819 -1.33460999 25.76402283 C-1.19930441 23.19699219 -1.06833278 20.62976209 -0.9375 18.0625 C-0.84599049 16.31183391 -0.75419645 14.56118268 -0.66210938 12.81054688 C-0.43811598 8.54052922 -0.2180066 4.27032732 0 0 Z " fill="#8765C7" transform="translate(96,237)"/>
<path d="M0 0 C1.25425781 0.01804687 2.50851563 0.03609375 3.80078125 0.0546875 C5.22970703 0.08949219 5.22970703 0.08949219 6.6875 0.125 C5.6975 0.62 5.6975 0.62 4.6875 1.125 C4.605 1.764375 4.5225 2.40375 4.4375 3.0625 C3.6875 5.125 3.6875 5.125 1.1875 6.375 C-3.05109107 7.28326951 -6.9985317 7.29755873 -11.3125 7.125 C-11.6425 5.475 -11.9725 3.825 -12.3125 2.125 C-8.09353134 0.07601713 -4.65877854 -0.08707997 0 0 Z " fill="#613EB4" transform="translate(103.3125,285.875)"/>
<path d="M0 0 C2.0625 0.4375 2.0625 0.4375 4 1 C4 1.66 4 2.32 4 3 C4.66 3.33 5.32 3.66 6 4 C6.0247345 8.07510438 6.04287637 12.15017964 6.05493164 16.2253418 C6.05995777 17.61141725 6.06677966 18.99748741 6.07543945 20.38354492 C6.08758018 22.37676715 6.09271021 24.37002819 6.09765625 26.36328125 C6.10289307 27.56251221 6.10812988 28.76174316 6.11352539 29.99731445 C6 33 6 33 5 36 C2.525 36.495 2.525 36.495 0 37 C-2.21336414 33.67995379 -2.20762974 32.92589068 -1.9765625 29.11328125 C-1.925 28.17548828 -1.8734375 27.23769531 -1.8203125 26.27148438 C-1.75585938 25.29501953 -1.69140625 24.31855469 -1.625 23.3125 C-1.56828125 22.32443359 -1.5115625 21.33636719 -1.453125 20.31835938 C-1.31166481 17.87817115 -1.16025726 15.43901409 -1 13 C-0.67 13 -0.34 13 0 13 C0 20.26 0 27.52 0 35 C0.99 35 1.98 35 3 35 C3 24.77 3 14.54 3 4 C2.01 3.67 1.02 3.34 0 3 C0 5.64 0 8.28 0 11 C-0.33 11 -0.66 11 -1 11 C-1.02688151 9.35425434 -1.04634123 7.70838587 -1.0625 6.0625 C-1.07410156 5.14597656 -1.08570313 4.22945312 -1.09765625 3.28515625 C-1 1 -1 1 0 0 Z " fill="#503384" transform="translate(357,230)"/>
<path d="M0 0 C3.3 0 6.6 0 10 0 C11 1 11 1 11.09765625 3.72265625 C11.08605469 4.82480469 11.07445312 5.92695313 11.0625 7.0625 C11.05347656 8.16722656 11.04445313 9.27195313 11.03515625 10.41015625 C11.02355469 11.26480469 11.01195312 12.11945313 11 13 C10.67 13 10.34 13 10 13 C9.67 9.7 9.34 6.4 9 3 C6.36 2.67 3.72 2.34 1 2 C1 18.5 1 35 1 52 C2.98 52 4.96 52 7 52 C7 52.33 7 52.66 7 53 C4.69 53 2.38 53 0 53 C0 35.51 0 18.02 0 0 Z " fill="#926DD2" transform="translate(258,222)"/>
<path d="M0 0 C0.66 0 1.32 0 2 0 C4.46277641 5.13078418 5 6.92485609 5 13 C1.04 13 -2.92 13 -7 13 C-7 11.35 -7 9.7 -7 8 C-7.99 8 -8.98 8 -10 8 C-8.57641609 12.54074179 -6.27867927 15.03973147 -2.875 18.3125 C-1.50988281 19.63701172 -1.50988281 19.63701172 -0.1171875 20.98828125 C0.58148438 21.65214844 1.28015625 22.31601563 2 23 C1.67 23.66 1.34 24.32 1 25 C0.443125 24.38125 -0.11375 23.7625 -0.6875 23.125 C-2.83695235 20.86378564 -2.83695235 20.86378564 -5.5625 20.125 C-8 19 -8 19 -9.8125 16.25 C-11.03316827 12.90922369 -11.25163055 10.5228277 -11 7 C-9.68 6.67 -8.36 6.34 -7 6 C-5 9 -5 9 -5 12 C-2.36 11.67 0.28 11.34 3 11 C3 9.35 3 7.7 3 6 C2.01 5.67 1.02 5.34 0 5 C0 3.33333333 0 1.66666667 0 0 Z " fill="#9572D6" transform="translate(246,225)"/>
<path d="M0 0 C3.0625 -0.25 3.0625 -0.25 6 0 C7 1 7 1 7.0625 3.5625 C7.041875 4.366875 7.02125 5.17125 7 6 C5.948125 6.268125 4.89625 6.53625 3.8125 6.8125 C0.06759131 7.78604057 0.06759131 7.78604057 -2.5625 9.6875 C-5.74912318 11.40337402 -7.57017078 10.87739817 -11 10 C-10.38125 9.7525 -9.7625 9.505 -9.125 9.25 C-6.61289704 7.77229238 -6.23892656 6.56044823 -5 4 C-4.01 3.67 -3.02 3.34 -2 3 C-1.34 2.01 -0.68 1.02 0 0 Z " fill="#2B1155" transform="translate(113,294)"/>
<path d="M0 0 C0.66 0.99 1.32 1.98 2 3 C1.01 3.495 1.01 3.495 0 4 C-0.33 15.22 -0.66 26.44 -1 38 C-1.66 38 -2.32 38 -3 38 C-3 26.78 -3 15.56 -3 4 C-3.66 3.67 -4.32 3.34 -5 3 C-3.35 2.01 -1.7 1.02 0 0 Z " fill="#8670C1" transform="translate(103,226)"/>
<path d="M0 0 C0.79792969 0.00386719 1.59585938 0.00773438 2.41796875 0.01171875 C3.21589844 0.00785156 4.01382813 0.00398437 4.8359375 0 C10.79136108 0.01011108 10.79136108 0.01011108 11.91796875 1.13671875 C13.00605249 6.81893385 13.0224892 12.36486726 12.91796875 18.13671875 C12.58796875 18.13671875 12.25796875 18.13671875 11.91796875 18.13671875 C11.86898437 17.35425781 11.82 16.57179687 11.76953125 15.765625 C11.69476563 14.75371094 11.62 13.74179688 11.54296875 12.69921875 C11.47335938 11.68988281 11.40375 10.68054688 11.33203125 9.640625 C11.19539063 8.81433594 11.05875 7.98804688 10.91796875 7.13671875 C10.25796875 6.80671875 9.59796875 6.47671875 8.91796875 6.13671875 C9.24796875 4.81671875 9.57796875 3.49671875 9.91796875 2.13671875 C4.96796875 2.13671875 0.01796875 2.13671875 -5.08203125 2.13671875 C-5.41203125 7.41671875 -5.74203125 12.69671875 -6.08203125 18.13671875 C-6.74203125 18.13671875 -7.40203125 18.13671875 -8.08203125 18.13671875 C-8.1865517 12.36486726 -8.17011499 6.81893385 -7.08203125 1.13671875 C-5.19650595 -0.74880655 -2.50434294 0.00425186 0 0 Z " fill="#9370D4" transform="translate(203.08203125,221.86328125)"/>
<path d="M0 0 C0.33 0 0.66 0 1 0 C1.0809723 2.43816585 1.14046972 4.87364384 1.1875 7.3125 C1.22520508 8.34793945 1.22520508 8.34793945 1.26367188 9.40429688 C1.33834499 14.55674183 1.33834499 14.55674183 -0.51171875 16.98046875 C-1.00285156 17.31691406 -1.49398437 17.65335937 -2 18 C-7.37129841 8.58997722 -7.37129841 8.58997722 -9 4 C-8.01 4.33 -7.02 4.66 -6 5 C-6 5.66 -6 6.32 -6 7 C-5.01 7 -4.02 7 -3 7 C-2.01 4.69 -1.02 2.38 0 0 Z " fill="#9767E4" transform="translate(94,264)"/>
<path d="M0 0 C0.66 0 1.32 0 2 0 C2.33 10.89 2.66 21.78 3 33 C2.01 33 1.02 33 0 33 C0 22.11 0 11.22 0 0 Z " fill="#7A66AD" transform="translate(111,230)"/>
<path d="M0 0 C0.33 0.66 0.66 1.32 1 2 C0.67 2.99 0.34 3.98 0 5 C-0.99 5 -1.98 5 -3 5 C-4.46652017 7.88019276 -5.82047874 10.79308515 -7.125 13.75 C-7.47820312 14.54921875 -7.83140625 15.3484375 -8.1953125 16.171875 C-8.46085937 16.77515625 -8.72640625 17.3784375 -9 18 C-8.34 18.33 -7.68 18.66 -7 19 C-7.99 21.31 -8.98 23.62 -10 26 C-12.18602942 22.5415057 -12.05410732 20.45533873 -11.25 16.5 C-10.97929688 15.09234375 -10.97929688 15.09234375 -10.703125 13.65625 C-9.31202718 8.40099159 -7.32483274 6.26999548 -3 3 C-1.9826127 2.01769502 -0.97403883 1.02530403 0 0 Z " fill="#C0A8ED" transform="translate(79,209)"/>
<path d="M0 0 C0.33 0 0.66 0 1 0 C1.33 9.9 1.66 19.8 2 30 C4.50816459 27.49183541 5.61410019 26.09162264 7 23 C8.29922995 25.5984599 7.81286289 26.75961451 7.1875 29.5625 C7.01605469 30.36816406 6.84460938 31.17382812 6.66796875 32.00390625 C6 34 6 34 4 35 C2.0625 34.0625 2.0625 34.0625 0 32 C-1.19922396 24.91886807 -0.95485298 18.0855399 -0.5625 10.9375 C-0.51029297 9.88111328 -0.45808594 8.82472656 -0.40429688 7.73632812 C-0.2759218 5.15715618 -0.14102952 2.57850564 0 0 Z " fill="#673BAD" transform="translate(117,251)"/>
<path d="M0 0 C0.66 0 1.32 0 2 0 C2.1875 2.875 2.1875 2.875 2 6 C-0.74074065 7.82716043 -2.95711645 8.80930644 -6 10 C-6.72058594 10.34675781 -7.44117188 10.69351563 -8.18359375 11.05078125 C-8.96863281 11.42589844 -9.75367188 11.80101562 -10.5625 12.1875 C-11.30628906 12.55230469 -12.05007812 12.91710937 -12.81640625 13.29296875 C-15.32260403 14.10445676 -16.55298453 13.8711597 -19 13 C-18.05125 12.9175 -17.1025 12.835 -16.125 12.75 C-15.09375 12.5025 -14.0625 12.255 -13 12 C-12.29848848 10.6846659 -11.63474075 9.34882408 -11 8 C-9.00892752 6.98234073 -7.00781177 5.98422146 -5 5 C-3.3142876 3.35259924 -1.6436814 1.68933922 0 0 Z " fill="#6E25E6" transform="translate(141,236)"/>
<path d="M0 0 C0.99 0.33 1.98 0.66 3 1 C2.67 11.89 2.34 22.78 2 34 C1.67 34 1.34 34 1 34 C0.04622816 29.99679847 -0.1157616 26.27788253 -0.09765625 22.16796875 C-0.09443359 20.87568359 -0.09121094 19.58339844 -0.08789062 18.25195312 C-0.07953665 16.89713474 -0.07107172 15.54231703 -0.0625 14.1875 C-0.05748 12.81315265 -0.05291797 11.43880355 -0.04882812 10.06445312 C-0.03705668 6.70959076 -0.02061283 3.35481779 0 0 Z " fill="#4A2C83" transform="translate(345,234)"/>
<path d="M0 0 C1.0625 1.8125 1.0625 1.8125 2 4 C1.67 4.99 1.34 5.98 1 7 C-1.06640625 7.73046875 -1.06640625 7.73046875 -3.5625 8.1875 C-4.38878906 8.34605469 -5.21507813 8.50460938 -6.06640625 8.66796875 C-6.70449219 8.77753906 -7.34257813 8.88710937 -8 9 C-8.33 8.01 -8.66 7.02 -9 6 C-8.34 6 -7.68 6 -7 6 C-7 5.01 -7 4.02 -7 3 C-7.66 2.67 -8.32 2.34 -9 2 C-5.86501708 0.14223235 -3.62528568 -0.20140476 0 0 Z " fill="#8B4CEE" transform="translate(127,241)"/>
<path d="M0 0 C3.63 0 7.26 0 11 0 C11.24414062 3.41796875 11.24414062 3.41796875 11.48828125 6.8359375 C11.82990528 9.37921338 11.82990528 9.37921338 15 11 C13.68 11 12.36 11 11 11 C10 10 10 10 9.90234375 8.15234375 C9.95117188 5.07617188 9.95117188 5.07617188 10 2 C5.545 2.495 5.545 2.495 1 3 C1.66 7.62 2.32 12.24 3 17 C0.41451372 14.41451372 0.02358153 12.70461615 -0.09765625 9.08203125 C-0.08605469 8.00308594 -0.07445312 6.92414063 -0.0625 5.8125 C-0.05347656 4.72582031 -0.04445312 3.63914062 -0.03515625 2.51953125 C-0.02355469 1.68808594 -0.01195312 0.85664063 0 0 Z " fill="#9876D5" transform="translate(225,255)"/>
<path d="M0 0 C0.66 0 1.32 0 2 0 C1.67 6.6 1.34 13.2 1 20 C0.01 20 -0.98 20 -2 20 C-2 18.35 -2 16.7 -2 15 C-2.66 15 -3.32 15 -4 15 C-3.34728444 11.48294042 -2.48606976 8.10674923 -1.4375 4.6875 C-1.16808594 3.80449219 -0.89867187 2.92148437 -0.62109375 2.01171875 C-0.41613281 1.34785156 -0.21117187 0.68398437 0 0 Z " fill="#966ED9" transform="translate(268,255)"/>
<path d="M0 0 C-1 2 -2 4 -3 6 C-6.96 6 -10.92 6 -15 6 C-12 4 -12 4 -9 3 C-8.67 2.01 -8.34 1.02 -8 0 C-5.13822943 -1.43088528 -3.06624227 -0.59991697 0 0 Z " fill="#4C268F" transform="translate(116,287)"/>
<path d="M0 0 C0.66 0.33 1.32 0.66 2 1 C0.23161621 3.27277849 -1.5395861 5.54325964 -3.3125 7.8125 C-3.81201172 8.45509766 -4.31152344 9.09769531 -4.82617188 9.75976562 C-5.55610352 10.69272461 -5.55610352 10.69272461 -6.30078125 11.64453125 C-6.74591064 12.21534424 -7.19104004 12.78615723 -7.6496582 13.37426758 C-9.00209813 15.00252603 -10.5032837 16.5032837 -12 18 C-11.67 15.03 -11.34 12.06 -11 9 C-9.35 9 -7.7 9 -6 9 C-6 7.35 -6 5.7 -6 4 C-4.68 4 -3.36 4 -2 4 C-2 3.01 -2 2.02 -2 1 C-1.34 0.67 -0.68 0.34 0 0 Z " fill="#5A22C0" transform="translate(137,255)"/>
<path d="M0 0 C3.63 0 7.26 0 11 0 C10.34034961 6.86036401 8.7637236 13.34443923 7 20 C6.67 20 6.34 20 6 20 C6.14194764 17.93722893 6.28872216 15.87478969 6.4375 13.8125 C6.51871094 12.66394531 6.59992188 11.51539063 6.68359375 10.33203125 C6.95403812 7.48401829 7.37521747 4.78789518 8 2 C5.36 2 2.72 2 0 2 C0 1.34 0 0.68 0 0 Z " fill="#916DCF" transform="translate(273,222)"/>
<path d="M0 0 C4.31687378 0.35001679 6.19275066 1.77686187 9 5 C8.67 5.66 8.34 6.32 8 7 C6.35 6.67 4.7 6.34 3 6 C3 5.01 3 4.02 3 3 C2.01 3 1.02 3 0 3 C-0.33 4.32 -0.66 5.64 -1 7 C-1.99 7 -2.98 7 -4 7 C-4.66 8.65 -5.32 10.3 -6 12 C-7 9 -7 9 -6 6 C-5.01 6 -4.02 6 -3 6 C-2.690625 5.195625 -2.38125 4.39125 -2.0625 3.5625 C-1 1 -1 1 0 0 Z " fill="#966DDD" transform="translate(105,213)"/>
<path d="M0 0 C1.98 0.66 3.96 1.32 6 2 C6 2.99 6 3.98 6 5 C3.04335481 6.4783226 0.25770263 6.06032783 -3 6 C-3 4.68 -3 3.36 -3 2 C-2.01 2 -1.02 2 0 2 C0 1.34 0 0.68 0 0 Z " fill="#7037DC" transform="translate(96,286)"/>
<path d="M0 0 C2.64 0 5.28 0 8 0 C8 0.99 8 1.98 8 3 C4.5647952 5.29013653 3.014669 5.17842973 -1 5 C-0.67 3.35 -0.34 1.7 0 0 Z " fill="#5F37AF" transform="translate(94,294)"/>
<path d="M0 0 C6.52307692 0.49230769 6.52307692 0.49230769 8.9375 3.0625 C9.288125 3.701875 9.63875 4.34125 10 5 C6.77208445 7.1519437 5.71599191 7.20086443 2 7 C1.34 4.69 0.68 2.38 0 0 Z " fill="#915AEE" transform="translate(120,201)"/>
<path d="M0 0 C1.32 0.33 2.64 0.66 4 1 C3.01 2.485 3.01 2.485 2 4 C1.01 4 0.02 4 -1 4 C-1 5.32 -1 6.64 -1 8 C-3.31 8.33 -5.62 8.66 -8 9 C-8.66 8.01 -9.32 7.02 -10 6 C-9.278125 5.87625 -8.55625 5.7525 -7.8125 5.625 C-5.04278106 5.0095069 -2.6029646 4.11555626 0 3 C0 2.01 0 1.02 0 0 Z " fill="#3A1674" transform="translate(109,294)"/>
<path d="M0 0 C0.99 0.33 1.98 0.66 3 1 C3.6875 3.0625 3.6875 3.0625 4 5 C5.58129029 5.22331199 7.16521089 5.42804644 8.75 5.625 C10.07257813 5.79902344 10.07257813 5.79902344 11.421875 5.9765625 C14.26712606 6.00242842 15.5240182 5.27960404 18 4 C18.99 4.33 19.98 4.66 21 5 C16.82705093 8.1297118 13.08312307 8.72616044 8 8 C4.14890018 6.6449834 2.49817767 5.9737109 0.625 2.3125 C0.41875 1.549375 0.2125 0.78625 0 0 Z " fill="#4F3188" transform="translate(347,268)"/>
<path d="M0 0 C1.21236328 0.01353516 1.21236328 0.01353516 2.44921875 0.02734375 C3.37154297 0.04474609 3.37154297 0.04474609 4.3125 0.0625 C4.3125 0.3925 4.3125 0.7225 4.3125 1.0625 C3.405 1.124375 2.4975 1.18625 1.5625 1.25 C-2.46916026 2.25791507 -3.22038687 3.85525293 -5.6875 7.0625 C-7.0075 7.0625 -8.3275 7.0625 -9.6875 7.0625 C-8.875 4.125 -8.875 4.125 -7.6875 1.0625 C-4.80538698 0.10179566 -2.98899956 -0.04331883 0 0 Z " fill="#B08EED" transform="translate(98.6875,198.9375)"/>
<path d="M0 0 C0.66 0 1.32 0 2 0 C2.66 3.3 3.32 6.6 4 10 C5.65 10.33 7.3 10.66 9 11 C7.6875 13.5 7.6875 13.5 6 16 C5.01 16 4.02 16 3 16 C2.01 10.72 1.02 5.44 0 0 Z " fill="#946DD7" transform="translate(270,259)"/>
<path d="M0 0 C0.33 0.66 0.66 1.32 1 2 C1.66 2.33 2.32 2.66 3 3 C2.01 3.33 1.02 3.66 0 4 C-0.33 10.93 -0.66 17.86 -1 25 C-1.33 25 -1.66 25 -2 25 C-2.05437005 22.14557247 -2.09384974 19.29219924 -2.125 16.4375 C-2.14175781 15.63763672 -2.15851563 14.83777344 -2.17578125 14.01367188 C-2.21723982 8.93499665 -1.64056075 4.81188094 0 0 Z " fill="#9C76D4" transform="translate(97,225)"/>
<path d="M0 0 C8.88512349 -0.35021655 16.55762426 0.10547117 25 3 C22.24921116 3.91692961 20.64051087 4.10886083 17.8125 4.0625 C15.9253125 4.0315625 15.9253125 4.0315625 14 4 C13.67 3.01 13.34 2.02 13 1 C8.71 1 4.42 1 0 1 C0 0.67 0 0.34 0 0 Z " fill="#9375D4" transform="translate(100,198)"/>
<path d="M0 0 C0.33 0 0.66 0 1 0 C1.14715692 7.3905476 0.70776992 14.64424835 0 22 C-0.33 22 -0.66 22 -1 22 C-1.70893867 14.84517284 -2.36455114 8.09566594 -1 1 C-0.67 0.67 -0.34 0.34 0 0 Z " fill="#916CD1" transform="translate(204,236)"/>
<path d="M0 0 C2 3 2 3 2 5 C2.66 5 3.32 5 4 5 C4.66 7.31 5.32 9.62 6 12 C0.19794344 6.35475578 0.19794344 6.35475578 -2 3 C-2 2.34 -2 1.68 -2 1 C-1.34 0.67 -0.68 0.34 0 0 Z " fill="#9B76D6" transform="translate(74,250)"/>
<path d="M0 0 C1.32 0.33 2.64 0.66 4 1 C3.67 2.98 3.34 4.96 3 7 C4.65 7 6.3 7 8 7 C8 7.33 8 7.66 8 8 C5.69 8 3.38 8 1 8 C0.67 5.36 0.34 2.72 0 0 Z " fill="#9871DB" transform="translate(208,267)"/>
<path d="M0 0 C2.125 0.375 2.125 0.375 4 1 C4 2.65 4 4.3 4 6 C2.125 5.6875 2.125 5.6875 0 5 C-0.66 4.01 -1.32 3.02 -2 2 C-1.34 1.34 -0.68 0.68 0 0 Z " fill="#230E4B" transform="translate(116,294)"/>
<path d="M0 0 C1.29922995 2.5984599 0.81286289 3.75961451 0.1875 6.5625 C0.01605469 7.36816406 -0.15539062 8.17382812 -0.33203125 9.00390625 C-1 11 -1 11 -3 12 C-3.66 11.34 -4.32 10.68 -5 10 C-3.66511872 6.40608886 -2.03977277 3.24509304 0 0 Z " fill="#5B2CC0" transform="translate(124,274)"/>
<path d="M0 0 C0.66 0 1.32 0 2 0 C3.3271261 3.9813783 3.06915913 7.85045227 3 12 C2.87625 11.071875 2.87625 11.071875 2.75 10.125 C2.18741541 7.81562433 2.18741541 7.81562433 -0.0625 6.75 C-0.701875 6.5025 -1.34125 6.255 -2 6 C-1.34 5.34 -0.68 4.68 0 4 C0 2.68 0 1.36 0 0 Z " fill="#976EDD" transform="translate(277,247)"/>
<path d="M0 0 C0.66 0 1.32 0 2 0 C2.33 3.63 2.66 7.26 3 11 C2.01 11 1.02 11 0 11 C0 7.37 0 3.74 0 0 Z " fill="#6D55B7" transform="translate(111,252)"/>
<path d="M0 0 C1.06528748 2.73019786 1.07998186 3.79298812 0.00390625 6.578125 C-0.47175781 7.45984375 -0.94742188 8.3415625 -1.4375 9.25 C-1.91058594 10.14203125 -2.38367188 11.0340625 -2.87109375 11.953125 C-3.24363281 12.62859375 -3.61617187 13.3040625 -4 14 C-5 11 -5 11 -4 8 C-3.34 8 -2.68 8 -2 8 C-2.04125 7.236875 -2.0825 6.47375 -2.125 5.6875 C-2 3 -2 3 0 0 Z " fill="#5E28B9" transform="translate(144,241)"/>
<path d="M0 0 C0.99 0 1.98 0 3 0 C4.38442 1.96498322 5.71203834 3.97048465 7 6 C8.29682374 7.36886951 9.61823134 8.7169291 11 10 C10.67 10.66 10.34 11.32 10 12 C8.32737283 10.38113585 6.66204463 8.7547271 5 7.125 C4.071875 6.22007812 3.14375 5.31515625 2.1875 4.3828125 C0 2 0 2 0 0 Z " fill="#9471D2" transform="translate(227,243)"/>
<path d="M0 0 C1.4800841 0.11362262 2.95910074 0.24122908 4.4375 0.375 C5.26121094 0.44460937 6.08492187 0.51421875 6.93359375 0.5859375 C7.95646484 0.79089844 7.95646484 0.79089844 9 1 C9.33 1.66 9.66 2.32 10 3 C8.71937515 4.7074998 7.38232443 6.37373596 6 8 C5.34 8 4.68 8 4 8 C4.33 6.02 4.66 4.04 5 2 C3.35 1.67 1.7 1.34 0 1 C0 0.67 0 0.34 0 0 Z " fill="#9C70DE" transform="translate(236,222)"/>
<path d="M0 0 C0.99 0.33 1.98 0.66 3 1 C2.625 3.9375 2.625 3.9375 2 7 C1.01 7.495 1.01 7.495 0 8 C-0.66 6.02 -1.32 4.04 -2 2 C-1.34 1.34 -0.68 0.68 0 0 Z " fill="#9A64F1" transform="translate(92,274)"/>
<path d="M0 0 C0.99 0 1.98 0 3 0 C3.33 0.99 3.66 1.98 4 3 C3.01 4.485 3.01 4.485 2 6 C3.65 6 5.3 6 7 6 C7 6.33 7 6.66 7 7 C0.9453125 7.1953125 0.9453125 7.1953125 -1 7 C-1.66 6.34 -2.32 5.68 -3 5 C-2.360625 4.71125 -1.72125 4.4225 -1.0625 4.125 C1.15206079 3.17176549 1.15206079 3.17176549 2 1 C1.34 0.67 0.68 0.34 0 0 Z " fill="#381D6C" transform="translate(114,286)"/>
<path d="M0 0 C0.99 0 1.98 0 3 0 C3 0.99 3 1.98 3 3 C2.34 3 1.68 3 1 3 C0.67 3.99 0.34 4.98 0 6 C-2.64 6 -5.28 6 -8 6 C-8 5.67 -8 5.34 -8 5 C-6.865625 4.731875 -5.73125 4.46375 -4.5625 4.1875 C-3.386875 3.795625 -2.21125 3.40375 -1 3 C-0.67 2.01 -0.34 1.02 0 0 Z " fill="#4D2497" transform="translate(102,294)"/>
<path d="M0 0 C2.0625 0.4375 2.0625 0.4375 4 1 C3.525625 1.37125 3.05125 1.7425 2.5625 2.125 C0.47794198 4.62646962 0.35378509 6.81593418 0 10 C1.98 10.495 1.98 10.495 4 11 C2.35 11 0.7 11 -1 11 C-1.02688151 9.35425434 -1.04634123 7.70838587 -1.0625 6.0625 C-1.07410156 5.14597656 -1.08570313 4.22945312 -1.09765625 3.28515625 C-1 1 -1 1 0 0 Z " fill="#9376C4" transform="translate(164,222)"/>
<path d="M0 0 C1.0625 1.8125 1.0625 1.8125 2 4 C1.67 4.99 1.34 5.98 1 7 C1.66 7 2.32 7 3 7 C3 7.66 3 8.32 3 9 C1.35 8.67 -0.3 8.34 -2 8 C-1.67 7.01 -1.34 6.02 -1 5 C-1.38932856 2.85744207 -1.38932856 2.85744207 -2 1 C-1.34 0.67 -0.68 0.34 0 0 Z " fill="#8848ED" transform="translate(139,215)"/>
<path d="M0 0 C0.33 0.99 0.66 1.98 1 3 C0.01 3.33 -0.98 3.66 -2 4 C-2.6837045 5.32467746 -3.34964186 6.65863633 -4 8 C-4.99 8.66 -5.98 9.32 -7 10 C-5.6062718 5.56541027 -3.39417765 3.12621626 0 0 Z " fill="#BEABE1" transform="translate(79,206)"/>
<path d="M0 0 C0.99 0.33 1.98 0.66 3 1 C3 2.98 3 4.96 3 7 C2.01 7 1.02 7 0 7 C0 4.69 0 2.38 0 0 Z " fill="#7227E6" transform="translate(118,274)"/>
<path d="M0 0 C0.99 0.33 1.98 0.66 3 1 C3.33 4.63 3.66 8.26 4 12 C2 10 2 10 1.5 6.9375 C1.335 5.968125 1.17 4.99875 1 4 C0.34 3.67 -0.32 3.34 -1 3 C-0.67 2.01 -0.34 1.02 0 0 Z " fill="#804FDC" transform="translate(141,219)"/>
<path d="M0 0 C2.69082872 0.17635452 5.32851446 0.61835921 8 1 C8.66 2.65 9.32 4.3 10 6 C9.01 5.34 8.02 4.68 7 4 C7 3.34 7 2.68 7 2 C5.576875 2.309375 5.576875 2.309375 4.125 2.625 C3.09375 2.74875 2.0625 2.8725 1 3 C0.34 2.34 -0.32 1.68 -1 1 C-0.67 0.67 -0.34 0.34 0 0 Z " fill="#8971C4" transform="translate(105,218)"/>
<path d="M0 0 C0.66 1.32 1.32 2.64 2 4 C1.38125 4.061875 0.7625 4.12375 0.125 4.1875 C-2.27761141 4.828919 -2.27761141 4.828919 -3.25 7.5625 C-3.4975 8.366875 -3.745 9.17125 -4 10 C-5 7 -5 7 -4 4 C-3.01 4 -2.02 4 -1 4 C-0.67 2.68 -0.34 1.36 0 0 Z " fill="#9A7BD7" transform="translate(103,215)"/>
<path d="M0 0 C2.475 0.495 2.475 0.495 5 1 C4.34 2.65 3.68 4.3 3 6 C2.01 5.34 1.02 4.68 0 4 C0 2.68 0 1.36 0 0 Z " fill="#AC83F3" transform="translate(96,216)"/>
<path d="M0 0 C1.32 0.33 2.64 0.66 4 1 C2.71034824 2.37562854 1.37310707 3.70766393 0 5 C-0.66 5 -1.32 5 -2 5 C-1.34 3.35 -0.68 1.7 0 0 Z " fill="#5627AD" transform="translate(99,294)"/>
<path d="M0 0 C0.66 0 1.32 0 2 0 C3.625 2 3.625 2 5 4 C3.02 4.99 3.02 4.99 1 6 C0.34 4.35 -0.32 2.7 -1 1 C-0.67 0.67 -0.34 0.34 0 0 Z " fill="#8955E5" transform="translate(125,202)"/>
<path d="M0 0 C0.66 0 1.32 0 2 0 C2.33 1.65 2.66 3.3 3 5 C2.01 5.33 1.02 5.66 0 6 C0 4.02 0 2.04 0 0 Z " fill="#705F9A" transform="translate(111,265)"/>
<path d="M0 0 C0.66 0 1.32 0 2 0 C2 1.98 2 3.96 2 6 C1.34 6 0.68 6 0 6 C0 4.02 0 2.04 0 0 Z " fill="#846EBB" transform="translate(100,265)"/>
<path d="" fill="#FFFFFF" transform="translate(0,0)"/>
<path d="" fill="#FFFFFF" transform="translate(0,0)"/>
<path d="" fill="#FFFFFF" transform="translate(0,0)"/>
<path d="" fill="#FFFFFF" transform="translate(0,0)"/>
<path d="" fill="#FFFFFF" transform="translate(0,0)"/>
<path d="" fill="#FFFFFF" transform="translate(0,0)"/>
<path d="" fill="#FFFFFF" transform="translate(0,0)"/>
<path d="" fill="#FFFFFF" transform="translate(0,0)"/>
<path d="" fill="#FFFFFF" transform="translate(0,0)"/>
<path d="" fill="#FFFFFF" transform="translate(0,0)"/>
<path d="" fill="#FFFFFF" transform="translate(0,0)"/>
<path d="" fill="#FFFFFF" transform="translate(0,0)"/>
<path d="" fill="#FFFFFF" transform="translate(0,0)"/>
<path d="" fill="#FFFFFF" transform="translate(0,0)"/>
<path d="" fill="#FFFFFF" transform="translate(0,0)"/>
<path d="" fill="#FFFFFF" transform="translate(0,0)"/>
<path d="" fill="#FFFFFF" transform="translate(0,0)"/>
<path d="" fill="#FFFFFF" transform="translate(0,0)"/>
<path d="" fill="#FFFFFF" transform="translate(0,0)"/>
<path d="" fill="#FFFFFF" transform="translate(0,0)"/>
<path d="" fill="#FFFFFF" transform="translate(0,0)"/>
<path d="" fill="#FFFFFF" transform="translate(0,0)"/>
<path d="" fill="#FFFFFF" transform="translate(0,0)"/>
<path d="" fill="#FFFFFF" transform="translate(0,0)"/>
<path d="" fill="#FFFFFF" transform="translate(0,0)"/>
<path d="" fill="#FFFFFF" transform="translate(0,0)"/>
<path d="" fill="#FFFFFF" transform="translate(0,0)"/>
<path d="" fill="#FFFFFF" transform="translate(0,0)"/>
<path d="" fill="#FFFFFF" transform="translate(0,0)"/>
<path d="" fill="#FFFFFF" transform="translate(0,0)"/>
<path d="" fill="#FFFFFF" transform="translate(0,0)"/>
<path d="" fill="#FFFFFF" transform="translate(0,0)"/>
<path d="" fill="#FFFFFF" transform="translate(0,0)"/>
<path d="" fill="#FFFFFF" transform="translate(0,0)"/>
<path d="" fill="#FFFFFF" transform="translate(0,0)"/>
<path d="" fill="#FFFFFF" transform="translate(0,0)"/>
<path d="" fill="#FFFFFF" transform="translate(0,0)"/>
<path d="" fill="#FFFFFF" transform="translate(0,0)"/>
<path d="" fill="#FFFFFF" transform="translate(0,0)"/>
<path d="" fill="#FFFFFF" transform="translate(0,0)"/>
<path d="" fill="#FFFFFF" transform="translate(0,0)"/>
<path d="" fill="#FFFFFF" transform="translate(0,0)"/>
<path d="" fill="#FFFFFF" transform="translate(0,0)"/>
<path d="" fill="#FFFFFF" transform="translate(0,0)"/>
<path d="" fill="#FFFFFF" transform="translate(0,0)"/>
<path d="" fill="#FFFFFF" transform="translate(0,0)"/>
<path d="" fill="#FFFFFF" transform="translate(0,0)"/>
<path d="" fill="#FFFFFF" transform="translate(0,0)"/>
<path d="" fill="#FFFFFF" transform="translate(0,0)"/>
<path d="" fill="#FFFFFF" transform="translate(0,0)"/>
<path d="" fill="#FFFFFF" transform="translate(0,0)"/>
<path d="" fill="#FFFFFF" transform="translate(0,0)"/>
<path d="" fill="#FFFFFF" transform="translate(0,0)"/>
<path d="" fill="#FFFFFF" transform="translate(0,0)"/>
<path d="" fill="#FFFFFF" transform="translate(0,0)"/>
<path d="" fill="#FFFFFF" transform="translate(0,0)"/>
<path d="" fill="#FFFFFF" transform="translate(0,0)"/>
<path d="" fill="#FFFFFF" transform="translate(0,0)"/>
<path d="" fill="#FFFFFF" transform="translate(0,0)"/>
<path d="" fill="#FFFFFF" transform="translate(0,0)"/>
<path d="" fill="#FFFFFF" transform="translate(0,0)"/>
<path d="" fill="#FFFFFF" transform="translate(0,0)"/>
<path d="" fill="#FFFFFF" transform="translate(0,0)"/>
<path d="" fill="#FFFFFF" transform="translate(0,0)"/>
<path d="" fill="#FFFFFF" transform="translate(0,0)"/>
<path d="" fill="#FFFFFF" transform="translate(0,0)"/>
<path d="" fill="#FFFFFF" transform="translate(0,0)"/>
<path d="" fill="#FFFFFF" transform="translate(0,0)"/>
<path d="" fill="#FFFFFF" transform="translate(0,0)"/>
<path d="" fill="#FFFFFF" transform="translate(0,0)"/>
<path d="" fill="#FFFFFF" transform="translate(0,0)"/>
<path d="" fill="#FFFFFF" transform="translate(0,0)"/>
<path d="" fill="#FFFFFF" transform="translate(0,0)"/>
<path d="" fill="#FFFFFF" transform="translate(0,0)"/>
<path d="" fill="#FFFFFF" transform="translate(0,0)"/>
<path d="" fill="#FFFFFF" transform="translate(0,0)"/>
<path d="" fill="#FFFFFF" transform="translate(0,0)"/>
<path d="" fill="#FFFFFF" transform="translate(0,0)"/>
<path d="" fill="#FFFFFF" transform="translate(0,0)"/>
<path d="" fill="#FFFFFF" transform="translate(0,0)"/>
</svg>
