<?xml version="1.0" encoding="UTF-8"?>
<svg version="1.1" xmlns="http://www.w3.org/2000/svg" width="500" height="500">
<path d="M0 0 C165 0 330 0 500 0 C500 165 500 330 500 500 C335 500 170 500 0 500 C0 335 0 170 0 0 Z " fill="#FEFEFE" transform="translate(0,0)"/>
<path d="M0 0 C4.06585251 2.95500352 7.34385956 6.10122368 10.1875 10.25 C10.60128906 10.848125 11.01507813 11.44625 11.44140625 12.0625 C16.10066257 20.37448341 15.3788478 31.45256912 13.515625 40.51953125 C10.87953716 47.93099359 5.93298666 53.70092715 0.8215332 59.55712891 C-3.6685732 64.73978492 -6.88261576 69.64931963 -7.5 76.6875 C-7.603125 77.863125 -7.70625 79.03875 -7.8125 80.25 C-12.6875 78.375 -12.6875 78.375 -13.8125 77.25 C-13.93540718 75.59355634 -13.99033908 73.93201007 -14.01782227 72.27124023 C-14.0477401 70.67970375 -14.0477401 70.67970375 -14.07826233 69.05601501 C-14.09497482 67.901866 -14.11168732 66.74771698 -14.12890625 65.55859375 C-14.14968735 64.38361832 -14.17046844 63.20864288 -14.19187927 61.99806213 C-14.25750124 58.22793676 -14.3163183 54.45773918 -14.375 50.6875 C-14.4181732 48.13866427 -14.46178708 45.58983597 -14.50585938 43.04101562 C-14.61319545 36.77742108 -14.7149379 30.51375399 -14.8125 24.25 C-15.8025 24.745 -15.8025 24.745 -16.8125 25.25 C-17.1425 36.14 -17.4725 47.03 -17.8125 58.25 C-18.1425 58.25 -18.4725 58.25 -18.8125 58.25 C-19.1425 47.36 -19.4725 36.47 -19.8125 25.25 C-24.57980504 22.77710378 -24.57980504 22.77710378 -28.8125 24.25 C-28.8125 35.47 -28.8125 46.69 -28.8125 58.25 C-29.4725 58.25 -30.1325 58.25 -30.8125 58.25 C-30.8125 47.03 -30.8125 35.81 -30.8125 24.25 C-32.1325 23.92 -33.4525 23.59 -34.8125 23.25 C-34.80805878 23.92207489 -34.80361755 24.59414978 -34.79904175 25.28659058 C-34.75490366 32.26151408 -34.72467333 39.23639813 -34.70263672 46.21142578 C-34.69255936 48.81691091 -34.6788973 51.42238469 -34.66162109 54.02783203 C-34.63744898 57.76597899 -34.6260344 61.50397685 -34.6171875 65.2421875 C-34.60686493 66.41304901 -34.59654236 67.58391052 -34.58590698 68.79025269 C-34.58575592 69.87122223 -34.58560486 70.95219177 -34.58544922 72.06591797 C-34.581008 73.02078094 -34.57656677 73.97564392 -34.57199097 74.95944214 C-34.8125 77.25 -34.8125 77.25 -36.8125 79.25 C-37.8025 79.25 -38.7925 79.25 -39.8125 79.25 C-39.95945312 78.63253906 -40.10640625 78.01507813 -40.2578125 77.37890625 C-42.62015132 68.4590407 -47.09517497 62.316654 -52.875 55.25 C-59.60372622 46.97444016 -63.33863289 40.04624693 -62.8125 29.25 C-62.51381344 27.24453311 -62.17878677 25.24422795 -61.8125 23.25 C-61.78671875 22.57195312 -61.7609375 21.89390625 -61.734375 21.1953125 C-61.36424071 13.55468314 -58.17411737 8.50439881 -52.73046875 3.234375 C-47.79827306 -0.87722771 -43.01959928 -3.20712638 -36.8125 -4.75 C-35.94238281 -5.02457031 -35.94238281 -5.02457031 -35.0546875 -5.3046875 C-23.39165 -7.6210399 -10.13396651 -6.28541207 0 0 Z " fill="#A576F1" transform="translate(130.8125,204.75)"/>
<path d="M0 0 C3.63 0 7.26 0 11 0 C11.66 7.59 12.32 15.18 13 23 C13.61701175 16.55346518 13.61701175 16.55346518 14.22631836 10.10620117 C14.30503174 9.30158447 14.38374512 8.49696777 14.46484375 7.66796875 C14.543396 6.84578857 14.62194824 6.0236084 14.70288086 5.17651367 C15 3 15 3 16 0 C19.3 0 22.6 0 26 0 C26.19916016 2.13082031 26.19916016 2.13082031 26.40234375 4.3046875 C26.58052065 6.16147835 26.75891745 8.01824812 26.9375 9.875 C27.02451172 10.81214844 27.11152344 11.74929687 27.20117188 12.71484375 C27.28818359 13.61074219 27.37519531 14.50664062 27.46484375 15.4296875 C27.543396 16.25710449 27.62194824 17.08452148 27.70288086 17.93701172 C27.89777363 20.0581666 27.89777363 20.0581666 29 22 C29.66 14.74 30.32 7.48 31 0 C34.3 0 37.6 0 41 0 C41.40646906 10.86288573 39.87654727 21.43842115 38.5 32.1875 C38.2584972 34.11255286 38.01760657 36.03768262 37.77734375 37.96289062 C37.19195412 42.64284408 36.59827543 47.32167712 36 52 C31.71 52 27.42 52 23 52 C22.34 46.06 21.68 40.12 21 34 C20.34 39.94 19.68 45.88 19 52 C14.38 52 9.76 52 5 52 C4.28454343 45.39839092 3.57255671 38.79642028 2.86376953 32.1940918 C2.62220845 29.94854648 2.37970292 27.70310255 2.13623047 25.45776367 C1.78624539 22.22861563 1.43966887 18.99911709 1.09375 15.76953125 C0.9843811 14.76727005 0.87501221 13.76500885 0.7623291 12.7323761 C0.66222534 11.79177841 0.56212158 10.85118073 0.45898438 9.88208008 C0.37015991 9.05823318 0.28133545 8.23438629 0.18981934 7.38557434 C-0.00551717 4.93066243 0 2.46267108 0 0 Z " fill="#5E32A4" transform="translate(378,223)"/>
<path d="M0 0 C4.2283083 2.28328648 5.56865128 4.51681273 7 9 C7.36949781 13.71085081 7.32939109 18.42341908 7.31567383 23.14672852 C7.31251443 25.42708164 7.33599538 27.70613516 7.36132812 29.98632812 C7.36360157 31.44791504 7.3643044 32.90950542 7.36328125 34.37109375 C7.36626221 35.69036865 7.36924316 37.00964355 7.37231445 38.36889648 C6.86345545 43.33168994 5.18662175 46.59088667 2 50.375 C-2.57288958 52.85198185 -6.91297276 52.7649665 -12 52 C-15.66772872 49.90415502 -17.51645664 47.90820325 -19 44 C-19.22773159 41.20879104 -19.35163994 38.51932538 -19.37109375 35.7265625 C-19.38012222 34.92519867 -19.3891507 34.12383484 -19.39845276 33.29818726 C-19.41293691 31.60540492 -19.42183744 29.91256682 -19.42553711 28.21972656 C-19.43742942 25.64030872 -19.48662454 23.06328795 -19.53710938 20.484375 C-19.54657503 18.83594912 -19.55380939 17.18750861 -19.55859375 15.5390625 C-19.57812607 14.7732486 -19.59765839 14.00743469 -19.61778259 13.21841431 C-19.58400242 9.17548437 -19.17411219 6.72198662 -16.59008789 3.52880859 C-11.74295655 -1.20364371 -6.50956078 -0.62575217 0 0 Z " fill="#5D31A4" transform="translate(365,223)"/>
<path d="M0 0 C6.27 0 12.54 0 19 0 C19.57306423 6.11950733 20.14386227 12.239141 20.70898438 18.359375 C20.90167894 20.43892443 21.09567134 22.51835405 21.29101562 24.59765625 C21.57247348 27.59604396 21.84917482 30.59483952 22.125 33.59375 C22.21249512 34.51490601 22.29999023 35.43606201 22.39013672 36.38513184 C22.86603968 41.61647357 23.08576302 46.74701494 23 52 C19.7 52 16.4 52 13 52 C13 49.36 13 46.72 13 44 C10.69 44 8.38 44 6 44 C6 46.64 6 49.28 6 52 C2.7 52 -0.6 52 -4 52 C-3.34248204 34.60978361 -1.64200548 17.31851062 0 0 Z " fill="#A370F1" transform="translate(196,223)"/>
<path d="M0 0 C3.3 0 6.6 0 10 0 C10.33 5.28 10.66 10.56 11 16 C12.32 10.72 13.64 5.44 15 0 C18.3 0 21.6 0 25 0 C24.37282776 6.27172241 23.05385153 12.22520787 21.5234375 18.33984375 C20.36354886 26.45040834 22.61296622 34.21521697 24.5625 42.0625 C24.79646484 43.02349609 25.03042969 43.98449219 25.27148438 44.97460938 C25.842668 47.31762792 26.42062747 49.65899293 27 52 C23.37 52 19.74 52 16 52 C15.34895849 49.64716625 14.70407878 47.29291551 14.0625 44.9375 C13.88009766 44.28072266 13.69769531 43.62394531 13.50976562 42.94726562 C13.24389648 41.9659668 13.24389648 41.9659668 12.97265625 40.96484375 C12.81031494 40.3730835 12.64797363 39.78132324 12.48071289 39.17163086 C11.81140712 36.14802758 11.43795313 33.06567188 11 30 C10.67 37.26 10.34 44.52 10 52 C6.7 52 3.4 52 0 52 C0 34.84 0 17.68 0 0 Z " fill="#A26EF1" transform="translate(258,223)"/>
<path d="M0 0 C3.02158813 1.23330128 4.34384337 2.15637005 6.3125 4.6875 C7.34720816 8.167882 7.12078138 11.37655866 7 15 C3.7 15 0.4 15 -3 15 C-3.33 13.35 -3.66 11.7 -4 10 C-4.99 10 -5.98 10 -7 10 C-6.62362039 14.9556649 -4.13243595 17.25832409 -0.625 20.4375 C3.955679 24.61856247 7.48826089 28.42786035 8.3984375 34.78125 C8.35150084 40.22590279 8.230244 44.38536572 5 49 C0.92316692 52.82031325 -2.78624166 52.49514639 -8.14453125 52.3515625 C-11.88413895 51.89114568 -13.62683681 50.92690126 -16 48 C-18.6191438 42.61415501 -18.14218344 37.90061268 -18 32 C-14.37 32 -10.74 32 -7 32 C-6.67 35.3 -6.34 38.6 -6 42 C-5.01 42.33 -4.02 42.66 -3 43 C-2.89584198 36.54220255 -3.90985268 33.55682478 -8.3125 28.75 C-9.09238281 27.96109375 -9.87226563 27.1721875 -10.67578125 26.359375 C-15.15493829 21.81246601 -17.78013115 18.68239992 -18.3125 12.1875 C-18.26435467 7.83034762 -16.80463186 5.36555823 -14 2 C-9.5382539 -0.9744974 -5.23245124 -0.49796388 0 0 Z " fill="#A472F1" transform="translate(243,223)"/>
<path d="M0 0 C6.93 0 13.86 0 21 0 C21 3.3 21 6.6 21 10 C17.7 10 14.4 10 11 10 C11 12.64 11 15.28 11 18 C14.3 18 17.6 18 21 18 C21 21.63 21 25.26 21 29 C17.7 29 14.4 29 11 29 C11 36.59 11 44.18 11 52 C7.37 52 3.74 52 0 52 C0 34.84 0 17.68 0 0 Z " fill="#6035A6" transform="translate(290,223)"/>
<path d="M0 0 C3.63 0 7.26 0 11 0 C11 14.19 11 28.38 11 43 C14.63 43 18.26 43 22 43 C22 45.97 22 48.94 22 52 C14.74 52 7.48 52 0 52 C0 34.84 0 17.68 0 0 Z " fill="#6136A6" transform="translate(318,223)"/>
<path d="M0 0 C7.26 0 14.52 0 22 0 C22 3.3 22 6.6 22 10 C20.02 10 18.04 10 16 10 C16 23.86 16 37.72 16 52 C12.7 52 9.4 52 6 52 C6 38.14 6 24.28 6 10 C4.02 10 2.04 10 0 10 C0 6.7 0 3.4 0 0 Z " fill="#A16DF1" transform="translate(164,223)"/>
<path d="M0 0 C0.99735515 8.7767253 -2.75672519 16.31605063 -8.12109375 23.0859375 C-9.83805849 25.18880221 -11.57942368 27.26035342 -13.3659668 29.30444336 C-17.85335166 34.49116093 -21.06992081 39.39709724 -21.6875 46.4375 C-21.790625 47.613125 -21.89375 48.78875 -22 50 C-26.875 48.125 -26.875 48.125 -28 47 C-28.08790975 44.70848583 -28.10694038 42.41427476 -28.09765625 40.12109375 C-28.0962413 39.4344313 -28.09482635 38.74776886 -28.09336853 38.04029846 C-28.08775479 35.83932199 -28.07520007 33.63844591 -28.0625 31.4375 C-28.05748676 29.94856917 -28.05292355 28.45963676 -28.04882812 26.97070312 C-28.03778093 23.31376925 -28.02050713 19.65689442 -28 16 C-26.75539217 15.32332002 -25.50403104 14.65905281 -24.25 14 C-23.20585938 13.443125 -23.20585938 13.443125 -22.140625 12.875 C-20 12 -20 12 -16 12 C-16 11.34 -16 10.68 -16 10 C-14.7315625 9.443125 -14.7315625 9.443125 -13.4375 8.875 C-9.99349859 6.99645378 -7.40333371 4.91923458 -4.515625 2.3046875 C-1.83832335 0 -1.83832335 0 0 0 Z " fill="#6C22E5" transform="translate(145,235)"/>
<path d="M0 0 C4.13438922 0.54053852 6.38029957 1.8031137 9.625 4.375 C14.20418506 7.73536438 18.3329656 9.27013824 23.84765625 10.4921875 C26 11 26 11 27 12 C27.21832989 16.39998945 27.18579146 20.80534812 27.18530273 25.21020508 C27.18748751 27.42483782 27.20563531 29.63897123 27.22460938 31.85351562 C27.22754356 33.25520662 27.22952819 34.6569 27.23046875 36.05859375 C27.23457764 37.34048584 27.23868652 38.62237793 27.24291992 39.94311523 C27 43 27 43 25 45 C24.01 45 23.02 45 22 45 C21.85304688 44.38253906 21.70609375 43.76507813 21.5546875 43.12890625 C19.18349661 34.17561651 14.68478392 28.02392173 8.875 20.9375 C3.41216182 14.17945736 0.6212546 8.69756446 0 0 Z " fill="#A16EF0" transform="translate(69,239)"/>
<path d="M0 0 C8.25 0 16.5 0 25 0 C25.33 1.32 25.66 2.64 26 4 C25.44570312 4.19335938 24.89140625 4.38671875 24.3203125 4.5859375 C23.59585938 4.84632813 22.87140625 5.10671875 22.125 5.375 C21.40570313 5.63023437 20.68640625 5.88546875 19.9453125 6.1484375 C17.81842006 6.93877783 17.81842006 6.93877783 16 9 C12.5625 9.3125 12.5625 9.3125 9 9 C7.5 7.625 7.5 7.625 6 6 C3.69011685 5.25613932 1.35684056 4.57809297 -1 4 C-0.67 2.68 -0.34 1.36 0 0 Z " fill="#472185" transform="translate(94,295)"/>
<path d="M0 0 C1.98 0.495 1.98 0.495 4 1 C4 11.56 4 22.12 4 33 C2.02 33.495 2.02 33.495 0 34 C-1.48125044 31.03749913 -1.12990684 28.36087105 -1.1328125 25.05859375 C-1.13376923 24.37571793 -1.13472595 23.6928421 -1.13571167 22.98927307 C-1.13639223 21.54598905 -1.1345466 20.10270197 -1.13037109 18.65942383 C-1.12501282 16.44280172 -1.13032443 14.22638148 -1.13671875 12.00976562 C-1.13605811 10.60937455 -1.13477723 9.2089836 -1.1328125 7.80859375 C-1.13168457 6.52782959 -1.13055664 5.24706543 -1.12939453 3.92749023 C-1 1 -1 1 0 0 Z " fill="#F5F3F9" transform="translate(357,232)"/>
<path d="M0 0 C1.20970459 0.00523682 2.41940918 0.01047363 3.66577148 0.01586914 C4.97094727 0.0190918 6.27612305 0.02231445 7.62084961 0.02563477 C9.00952213 0.03399138 10.39819401 0.04245634 11.78686523 0.05102539 C13.17944179 0.05603873 14.57202005 0.06060193 15.96459961 0.06469727 C19.38456394 0.07653105 22.80444367 0.09301659 26.22436523 0.11352539 C26.78686523 2.05102539 26.78686523 2.05102539 27.22436523 4.11352539 C26.22436523 5.11352539 26.22436523 5.11352539 23.44873047 5.22705078 C22.23902588 5.22181396 21.02932129 5.21657715 19.78295898 5.21118164 C18.4777832 5.20795898 17.17260742 5.20473633 15.82788086 5.20141602 C14.43920834 5.1930594 13.05053646 5.18459444 11.66186523 5.17602539 C10.26928868 5.17101205 8.87671042 5.16644886 7.48413086 5.16235352 C4.06416653 5.15051973 0.64428679 5.13403419 -2.77563477 5.11352539 C-3.33813477 3.17602539 -3.33813477 3.17602539 -3.77563477 1.11352539 C-2.77563477 0.11352539 -2.77563477 0.11352539 0 0 Z " fill="#7A37E5" transform="translate(94.775634765625,286.886474609375)"/>
<path d="M0 0 C4.33987295 0.18394163 5.15822398 0.27403589 8.3125 3.5 C9.5625 6.6875 9.5625 6.6875 8.5625 9.6875 C7.5725 10.0175 6.5825 10.3475 5.5625 10.6875 C4.94890625 10.37039062 4.3353125 10.05328125 3.703125 9.7265625 C0.97131844 8.40053961 -0.70352117 8.66987121 -3.6875 9.0625 C-4.57953125 9.17335937 -5.4715625 9.28421875 -6.390625 9.3984375 C-7.40382813 9.54152344 -7.40382813 9.54152344 -8.4375 9.6875 C-8.4375 2.87091705 -6.88099791 0.37616122 0 0 Z " fill="#FBF9FE" transform="translate(106.4375,218.3125)"/>
<path d="M0 0 C2.05078125 0.03255208 4.1015625 0.06510417 6.15234375 0.09765625 C6.48234375 1.41765625 6.81234375 2.73765625 7.15234375 4.09765625 C6.58644531 4.30261719 6.02054688 4.50757813 5.4375 4.71875 C4.70402344 4.98816406 3.97054687 5.25757813 3.21484375 5.53515625 C2.11849609 5.93541016 2.11849609 5.93541016 1 6.34375 C-0.83071303 6.95152573 -0.83071303 6.95152573 -1.84765625 8.09765625 C-4.18063058 8.13858562 -6.5147085 8.14007348 -8.84765625 8.09765625 C-7.86899287 6.95139303 -6.88971038 5.80565837 -5.91015625 4.66015625 C-5.36488281 4.02207031 -4.81960937 3.38398438 -4.2578125 2.7265625 C-1.98838818 0.10509451 -1.98838818 0.10509451 0 0 Z " fill="#270B57" transform="translate(112.84765625,294.90234375)"/>
<path d="M0 0 C0.33 0 0.66 0 1 0 C1.33725829 3.39545545 1.66911121 6.7914184 2 10.1875 C2.09539062 11.14720703 2.19078125 12.10691406 2.2890625 13.09570312 C2.37929687 14.02705078 2.46953125 14.95839844 2.5625 15.91796875 C2.68818359 17.19837036 2.68818359 17.19837036 2.81640625 18.50463867 C3.00094831 21.01288921 3.03149938 23.48595597 3 26 C1.35 26 -0.3 26 -2 26 C-2.10867392 20.0772713 -1.70834336 14.37733546 -1 8.5 C-0.90460938 7.67757812 -0.80921875 6.85515625 -0.7109375 6.0078125 C-0.47802113 4.00473174 -0.23959066 2.00229341 0 0 Z " fill="#F3ECFD" transform="translate(205,232)"/>
<path d="M0 0 C3.35546875 -0.390625 3.35546875 -0.390625 7.1875 -0.25 C9.09595703 -0.19585937 9.09595703 -0.19585937 11.04296875 -0.140625 C12.50669922 -0.07101562 12.50669922 -0.07101562 14 0 C13.67 1.32 13.34 2.64 13 4 C7.72 4 2.44 4 -3 4 C-2.01 2.68 -1.02 1.36 0 0 Z " fill="#4D1E97" transform="translate(108,288)"/>
<path d="M0 0 C3.63 0 7.26 0 11 0 C10.67 0.66 10.34 1.32 10 2 C9.34 2 8.68 2 8 2 C7.34 3.32 6.68 4.64 6 6 C3.69 5.34 1.38 4.68 -1 4 C-0.67 2.68 -0.34 1.36 0 0 Z " fill="#5827AA" transform="translate(94,295)"/>
<path d="M0 0 C0.74958984 0.00451172 1.49917969 0.00902344 2.27148438 0.01367188 C4.11852383 0.02543646 5.96552213 0.04337135 7.8125 0.0625 C7.8125 0.3925 7.8125 0.7225 7.8125 1.0625 C6.45705078 1.11857422 6.45705078 1.11857422 5.07421875 1.17578125 C3.89472656 1.24152344 2.71523437 1.30726563 1.5 1.375 C0.32824219 1.43300781 -0.84351562 1.49101562 -2.05078125 1.55078125 C-5.40173769 2.09745036 -6.07765843 2.58343615 -8.1875 5.0625 C-10.875 5.25 -10.875 5.25 -13.1875 5.0625 C-12.375 3.125 -12.375 3.125 -11.1875 1.0625 C-7.42449626 -0.19183458 -3.91539091 -0.04445422 0 0 Z " fill="#6B3CB8" transform="translate(113.1875,286.9375)"/>
<path d="M0 0 C0.928125 0.0825 1.85625 0.165 2.8125 0.25 C2.4825 1.57 2.1525 2.89 1.8125 4.25 C-0.8275 4.25 -3.4675 4.25 -6.1875 4.25 C-4.36434338 1.00883268 -3.82500054 0.30000004 0 0 Z " fill="#37176C" transform="translate(119.1875,287.75)"/>
<path d="M0 0 C0.33 0 0.66 0 1 0 C1.84681133 5.08086796 2.09038099 9.84828377 2 15 C1.01 15 0.02 15 -1 15 C-0.67 10.05 -0.34 5.1 0 0 Z " fill="#ECE2FC" transform="translate(205,232)"/>
<path d="M0 0 C4.29 0 8.58 0 13 0 C13 0.33 13 0.66 13 1 C12.21753906 1.04898437 11.43507813 1.09796875 10.62890625 1.1484375 C9.61699219 1.22320312 8.60507813 1.29796875 7.5625 1.375 C6.55316406 1.44460938 5.54382813 1.51421875 4.50390625 1.5859375 C3.26447266 1.79089844 3.26447266 1.79089844 2 2 C1.67 2.66 1.34 3.32 1 4 C1.99 4.33 2.98 4.66 4 5 C2.35 4.67 0.7 4.34 -1 4 C-0.67 2.68 -0.34 1.36 0 0 Z " fill="#9160E3" transform="translate(92,287)"/>
<path d="M0 0 C0.99 0 1.98 0 3 0 C2.67 4.62 2.34 9.24 2 14 C1.67 14 1.34 14 1 14 C0.67 9.38 0.34 4.76 0 0 Z " fill="#E4DDF0" transform="translate(405,239)"/>
<path d="M0 0 C3.16115776 1.36983503 3.9927092 1.9890638 6 5 C4.35 4.67 2.7 4.34 1 4 C1.33 6.31 1.66 8.62 2 11 C-0.32590854 7.36576791 -0.16265833 4.22911669 0 0 Z " fill="#B590F0" transform="translate(68,235)"/>
<path d="M0 0 C1.65 0 3.3 0 5 0 C4.34 1.32 3.68 2.64 3 4 C3.99 4.33 4.98 4.66 6 5 C3.69 4.67 1.38 4.34 -1 4 C-0.67 2.68 -0.34 1.36 0 0 Z " fill="#7849C6" transform="translate(94,295)"/>
<path d="M0 0 C-0.66 1.32 -1.32 2.64 -2 4 C-2.66 4 -3.32 4 -4 4 C-4.66 5.32 -5.32 6.64 -6 8 C-6.99 7.67 -7.98 7.34 -9 7 C-7.88121617 5.82737096 -6.75476949 4.66204862 -5.625 3.5 C-4.68527344 2.52546875 -4.68527344 2.52546875 -3.7265625 1.53125 C-2 0 -2 0 0 0 Z " fill="#320F6A" transform="translate(113,295)"/>
<path d="M0 0 C1.9375 0.3125 1.9375 0.3125 4 1 C4.33 1.99 4.66 2.98 5 4 C2.69 4 0.38 4 -2 4 C-1.34 2.68 -0.68 1.36 0 0 Z " fill="#F5F1FC" transform="translate(105,214)"/>
<path d="M0 0 C0.99 0.33 1.98 0.66 3 1 C2.67 2.32 2.34 3.64 2 5 C0.02 5 -1.96 5 -4 5 C-2.68 3.35 -1.36 1.7 0 0 Z " fill="#422C67" transform="translate(117,295)"/>
</svg>
