<?xml version="1.0" encoding="UTF-8"?>
<svg version="1.1" xmlns="http://www.w3.org/2000/svg" width="500" height="500">
<path d="M0 0 C165 0 330 0 500 0 C500 165 500 330 500 500 C335 500 170 500 0 500 C0 335 0 170 0 0 Z " fill="#FEFEFE" transform="translate(0,0)"/>
<path d="M0 0 C4.03441396 -0.02513051 8.06879625 -0.04305855 12.10327148 -0.05493164 C13.46949052 -0.05989273 14.83570444 -0.06666372 16.2019043 -0.07543945 C25.18866001 -0.13162733 34.05153774 0.15299477 43 1 C43 1.66 43 2.32 43 3 C44.09957031 3.02578125 45.19914063 3.0515625 46.33203125 3.078125 C58.40222059 3.48976413 67.56072124 5.77658381 78 12 C79.155 12.495 80.31 12.99 81.5 13.5 C87.70070525 16.15744511 92.2358749 19.15880817 97 24 C98.44685233 25.31872508 99.89392934 26.63726488 101.35131836 27.94433594 C106.61274123 32.66874129 111.58330395 37.45563688 116 43 C116.5053125 43.6290625 117.010625 44.258125 117.53125 44.90625 C120.10072131 48.27511238 121 49.64373632 121 54 C121.66 54 122.32 54 123 54 C129.58380758 65.52166327 132.09815709 78.94449145 132.23828125 92.109375 C132.24816574 92.86972549 132.25805023 93.63007599 132.26823425 94.41346741 C132.50256774 117.09784477 131.66570566 136.00729669 120 156 C119.43152344 156.98355469 118.86304688 157.96710938 118.27734375 158.98046875 C114.73239741 164.7881468 110.68414208 170.17196793 106.46337891 175.4987793 C104.58657477 177.87479692 102.87376167 180.21295344 101.328125 182.8203125 C100 185 100 185 98 186 C96.41261502 188.48460258 94.99298584 191.01339067 93.625 193.625 C92 196 92 196 89.73828125 197.234375 C78.59041684 204.42244164 73.35974596 218.80337557 70 231 C69.67386719 232.18078125 69.34773437 233.3615625 69.01171875 234.578125 C67.31976802 241.34592793 66.40449439 248.03990687 66 255 C60.39204896 254.77110404 57.65520215 253.3841502 53.48046875 249.66796875 C50.07443734 245.83056661 49.75139936 242.62400218 49.75949097 237.55865479 C49.75778212 236.91411937 49.75607327 236.26958395 49.75431263 235.60551715 C49.75102124 233.44816096 49.7620154 231.29111655 49.77294922 229.13378906 C49.77351341 227.58642077 49.77319662 226.03905194 49.77206421 224.49168396 C49.77149 220.29159469 49.78325532 216.09161948 49.79721212 211.89155674 C49.80970813 207.50199015 49.81088909 203.11242099 49.81326294 198.72283936 C49.81948103 190.4108198 49.83589631 182.09885281 49.85596192 173.78685641 C49.87831068 164.32383137 49.88931178 154.86080382 49.89935279 145.39775896 C49.92026224 125.9318095 49.95544462 106.46590897 50 87 C46.06316044 88.23698511 43.23999291 89.45429128 40 92 C39.34 92 38.68 92 38 92 C38 124.01 38 156.02 38 189 C36.68 189.33 35.36 189.66 34 190 C31.85944217 187.85944217 32.81358814 182.95051636 32.79467773 179.98217773 C32.78477814 179.03593536 32.77487854 178.08969299 32.76467896 177.11477661 C32.73296197 173.97107489 32.70826639 170.82735802 32.68359375 167.68359375 C32.66303302 165.51025488 32.64203679 163.33692009 32.62062073 161.16358948 C32.56530905 155.43103326 32.51594003 149.69844042 32.46777344 143.96582031 C32.41762465 138.12106042 32.3619041 132.276354 32.30664062 126.43164062 C32.19894787 114.95447272 32.09752775 103.47725847 32 92 C29.03 90.35 26.06 88.7 23 87 C23 86.34 23 85.68 23 85 C17.89396358 84.80167797 17.89396358 84.80167797 13 86 C12.505 87.485 12.505 87.485 12 89 C8.535 89.495 8.535 89.495 5 90 C5.99 88.02 5.99 88.02 7 86 C7.66 86 8.32 86 9 86 C9 85.34 9 84.68 9 84 C10.4096347 83.29819469 11.82807641 82.61406042 13.25 81.9375 C14.03890625 81.55464844 14.8278125 81.17179687 15.640625 80.77734375 C19.29592749 79.57303051 21.17215112 80.61743347 24.578125 82.19140625 C25.45984375 82.64386719 26.3415625 83.09632813 27.25 83.5625 C28.14203125 84.01753906 29.0340625 84.47257812 29.953125 84.94140625 C30.62859375 85.29074219 31.3040625 85.64007813 32 86 C32 86.66 32 87.32 32 88 C36.23443737 88.35286978 37.73002899 87.5763408 41 85 C42.98014432 84.27648573 44.97821315 83.59734611 47 83 C46.39786904 79.85784533 45.38706131 77.89665479 43.4375 75.375 C41 72.21246459 41 72.21246459 41 70 C40.01 69.67 39.02 69.34 38 69 C36.76132839 66.38502661 35.91496017 63.74488051 35 61 C33.7625 61.165 32.525 61.33 31.25 61.5 C22.11617883 62.49093343 13.9095526 62.18407783 5 60 C3.02916918 62.69943555 1.07569624 65.41098784 -0.875 68.125 C-1.43058594 68.88554688 -1.98617187 69.64609375 -2.55859375 70.4296875 C-5.47705048 74.5084945 -7.75357355 78.06162685 -9 83 C-7.824375 83.4640625 -7.824375 83.4640625 -6.625 83.9375 C-4 85 -4 85 -2 86 C-2 86.66 -2 87.32 -2 88 C-0.02 88.66 1.96 89.32 4 90 C4 123 4 156 4 190 C3.01 190 2.02 190 1 190 C0.67 157.33 0.34 124.66 0 91 C-2.31 90.34 -4.62 89.68 -7 89 C-8.67632417 88.35800351 -10.34750513 87.70105843 -12 87 C-11.99815641 87.79937327 -11.99631283 88.59874655 -11.99441338 89.42234325 C-11.95025422 108.86840634 -11.9171531 128.31445942 -11.89637566 147.76056194 C-11.88606091 157.16453031 -11.87199676 166.56846522 -11.84912109 175.97241211 C-11.82919333 184.16841381 -11.81628501 192.36439127 -11.81182301 200.56041652 C-11.8092146 204.90057011 -11.80307952 209.24065437 -11.78853989 213.58078575 C-11.77496568 217.66582846 -11.77077704 221.75077329 -11.77378464 225.83583641 C-11.7732344 227.33503247 -11.76925597 228.8342318 -11.76158905 230.33340836 C-11.75163092 232.38103619 -11.7552244 234.42871653 -11.75949097 236.47636414 C-11.75764738 237.62215281 -11.75580379 238.76794149 -11.75390434 239.94845104 C-12.06227134 243.77215523 -12.8283914 246.74801719 -15.48046875 249.58203125 C-16.04378906 249.98808594 -16.60710937 250.39414062 -17.1875 250.8125 C-17.73792969 251.23144531 -18.28835937 251.65039062 -18.85546875 252.08203125 C-21.92300027 253.39509119 -24.70636738 253.13805646 -28 253 C-28.08040527 252.36497559 -28.16081055 251.72995117 -28.24365234 251.07568359 C-28.61455223 248.17462214 -28.99469277 245.2748426 -29.375 242.375 C-29.50132812 241.37597656 -29.62765625 240.37695312 -29.7578125 239.34765625 C-30.41927218 234.35363568 -31.14671423 229.72184984 -33 225 C-33.66 225 -34.32 225 -35 225 C-35.268125 224.18917969 -35.53625 223.37835938 -35.8125 222.54296875 C-38.75203426 214.23685055 -42.52905127 207.86204386 -48 201 C-48.64839844 200.13761719 -49.29679687 199.27523437 -49.96484375 198.38671875 C-53.48205808 193.68658583 -53.48205808 193.68658583 -58 190 C-59.01497383 188.34240961 -60.01151776 186.67352342 -61 185 C-62.89019959 182.44513068 -64.88091944 179.97422772 -66.875 177.5 C-67.65037109 176.52353516 -67.65037109 176.52353516 -68.44140625 175.52734375 C-70.79927621 172.58743032 -73.14302865 169.85894416 -75.83203125 167.20703125 C-78.23619769 164.7595465 -78.7112923 163.36825646 -79 160 C-79.66 160 -80.32 160 -81 160 C-81.27070313 159.29746094 -81.54140625 158.59492188 -81.8203125 157.87109375 C-83.05453641 154.86727066 -84.45380932 151.98220003 -85.875 149.0625 C-90.06304545 140.01919598 -93.33096282 131.05617787 -93 121 C-93.66 121 -94.32 121 -95 121 C-95.04979311 115.89544055 -95.08590409 110.7910255 -95.10986328 105.6862793 C-95.11986161 103.95318129 -95.13346473 102.2200999 -95.15087891 100.48706055 C-95.17540084 97.98221716 -95.18654496 95.47759864 -95.1953125 92.97265625 C-95.20563507 92.20977798 -95.21595764 91.44689972 -95.22659302 90.66090393 C-95.22770544 85.21089048 -94.37165215 80.26647393 -93 75 C-92.71640625 73.91074219 -92.4328125 72.82148437 -92.140625 71.69921875 C-85.3438218 48.71529213 -69.29202238 26.76761168 -48 15 C-46.68 15 -45.36 15 -44 15 C-43.67 14.01 -43.34 13.02 -43 12 C-40.76362274 10.83793117 -38.65496214 9.89356417 -36.3125 9 C-35.63840088 8.73872314 -34.96430176 8.47744629 -34.26977539 8.20825195 C-23.07943628 4.01890061 -11.87384609 2.52331541 0 2 C0 1.34 0 0.68 0 0 Z " fill="#A372F1" transform="translate(230,54)"/>
<path d="M0 0 C0.33 0 0.66 0 1 0 C1.57406397 24.66929527 1.77722708 46.10236967 -11 68 C-11.56847656 68.98355469 -12.13695312 69.96710938 -12.72265625 70.98046875 C-16.26760259 76.7881468 -20.31585792 82.17196793 -24.53662109 87.4987793 C-26.41342523 89.87479692 -28.12623833 92.21295344 -29.671875 94.8203125 C-31 97 -31 97 -33 98 C-34.58738498 100.48460258 -36.00701416 103.01339067 -37.375 105.625 C-39 108 -39 108 -41.26171875 109.234375 C-52.40958316 116.42244164 -57.64025404 130.80337557 -61 143 C-61.48919922 144.77117187 -61.48919922 144.77117187 -61.98828125 146.578125 C-63.68023198 153.34592793 -64.59550561 160.03990687 -65 167 C-71.35475896 166.40049444 -71.35475896 166.40049444 -73.8125 164.875 C-75 163 -75 163 -76 159.375 C-76.33 158.26125 -76.66 157.1475 -77 156 C-77.99 155.67 -78.98 155.34 -80 155 C-80 125.3 -80 95.6 -80 65 C-72.14480139 61.63348631 -72.14480139 61.63348631 -68.6953125 60.53515625 C-67.95192627 60.29490723 -67.20854004 60.0546582 -66.44262695 59.80712891 C-65.67781006 59.56140137 -64.91299316 59.31567383 -64.125 59.0625 C-55.00703346 56.06197508 -46.67404328 52.4077197 -38.1875 47.9375 C-37.54014893 47.5967041 -36.89279785 47.2559082 -36.22583008 46.90478516 C-33.580307 45.486887 -31.07810192 44.05867489 -28.67578125 42.25390625 C-27 41 -27 41 -25 41 C-24.67 40.01 -24.34 39.02 -24 38 C-18.62857143 34 -18.62857143 34 -16 34 C-15.67 33.01 -15.34 32.02 -15 31 C-13.23908373 29.439766 -11.41739192 27.94724988 -9.5625 26.5 C-6.45374892 24.06812171 -4.19548258 22.29322388 -2 19 C-1.34 19 -0.68 19 0 19 C0 12.73 0 6.46 0 0 Z " fill="#681BE6" transform="translate(361,142)"/>
<path d="M0 0 C0.65608749 -0.00540298 1.31217499 -0.01080597 1.98814392 -0.01637268 C4.1396202 -0.02879914 6.28974228 -0.01241378 8.44116211 0.00561523 C9.94518605 0.00546012 11.4492104 0.00396909 12.95323181 0.00120544 C16.09790827 -0.00017574 19.24212708 0.01233327 22.38671875 0.03515625 C26.41068814 0.06356505 30.4338991 0.06079342 34.45792484 0.04806614 C37.56097353 0.04110103 40.66384789 0.04890724 43.76687431 0.06132317 C45.2503842 0.06582789 46.73391286 0.06618304 48.21742439 0.06225777 C50.29247341 0.05933659 52.3664882 0.07589266 54.44140625 0.09765625 C55.62021866 0.10305923 56.79903107 0.10846222 58.01356506 0.11402893 C61.50708841 0.54502172 63.39717389 1.33539574 66.15600586 3.50170898 C67.21850586 6.87670898 67.21850586 6.87670898 67.15600586 10.50170898 C65.69897461 13.20874023 65.69897461 13.20874023 63.15600586 15.50170898 C60.21517241 16.1108523 57.39303786 15.97520159 54.40600586 15.81420898 C53.61323242 15.79165039 52.82045898 15.7690918 52.00366211 15.74584961 C50.05362966 15.68711369 48.10457274 15.59743552 46.15600586 15.50170898 C46.03612305 16.10885742 45.91624023 16.71600586 45.79272461 17.34155273 C44.55732434 21.53281867 41.07548227 23.83508858 37.65600586 26.31420898 C30.29679417 28.81108438 22.34811228 28.33588651 15.15600586 25.50170898 C10.7288008 22.68439667 9.63978501 20.43864689 8.15600586 15.50170898 C6.38483398 15.5887207 6.38483398 15.5887207 4.57788086 15.67749023 C3.02062875 15.72439542 1.46333385 15.76989477 -0.09399414 15.81420898 C-0.87129883 15.85610352 -1.64860352 15.89799805 -2.44946289 15.94116211 C-8.23740423 16.06483607 -8.23740423 16.06483607 -11.35180664 13.17358398 C-13.19268689 9.87734815 -13.6331115 8.21056055 -12.84399414 4.50170898 C-8.53469313 0.94999485 -5.53273764 0.00077938 0 0 Z " fill="#411C7D" transform="translate(221.843994140625,337.498291015625)"/>
<path d="M0 0 C0.802099 -0.0087616 1.604198 -0.01752319 2.43060303 -0.02655029 C5.08001939 -0.04854293 7.72776416 -0.03399164 10.37719727 -0.01708984 C12.22038595 -0.02045837 14.06357246 -0.0253113 15.90675354 -0.03158569 C19.76959381 -0.03895709 23.63185587 -0.02824434 27.49462891 -0.00488281 C32.44259721 0.02358534 37.38920838 0.00721545 42.33712673 -0.02274513 C46.14364311 -0.0408281 49.94983869 -0.0350552 53.75636482 -0.02210617 C55.58039575 -0.01877387 57.40445592 -0.02285307 59.22845268 -0.03450394 C61.78068826 -0.04722725 64.33073935 -0.02781638 66.8828125 0 C67.63466324 -0.01012115 68.38651398 -0.02024231 69.16114807 -0.03067017 C73.08185238 0.04835922 74.86499345 0.53780595 78.00209045 2.9647522 C80.00610352 5.64697266 80.00610352 5.64697266 80.19360352 9.20947266 C78.65863803 13.65279379 77.11864826 14.46476902 73.00610352 16.64697266 C70.21433255 17.02193402 67.82630018 17.18602199 65.04467773 17.14868164 C64.2699411 17.15408463 63.49520447 17.15948761 62.69699097 17.16505432 C60.15119539 17.1775022 57.60653926 17.1610808 55.06079102 17.14306641 C53.28532858 17.14322146 51.50986581 17.14471141 49.73440552 17.1474762 C46.02061937 17.14885831 42.30722032 17.13633123 38.59350586 17.11352539 C33.83409629 17.08509975 29.0753276 17.08789176 24.31587029 17.1006155 C20.65270514 17.10756972 16.98968813 17.09978705 13.3265419 17.08735847 C11.57146904 17.08284439 9.81638029 17.0825068 8.061306 17.08642387 C5.61011874 17.08933467 3.15981573 17.07283769 0.70874023 17.05102539 C-0.37763733 17.05777786 -0.37763733 17.05777786 -1.48596191 17.06466675 C-5.58552324 17.00405918 -8.06959775 16.61981303 -10.99389648 13.64697266 C-11.74389648 11.77978516 -11.74389648 11.77978516 -11.99389648 9.77197266 C-12.09702148 9.11455078 -12.20014648 8.45712891 -12.30639648 7.77978516 C-11.27354667 0.73058521 -6.0945064 -0.08182185 0 0 Z " fill="#5B28AD" transform="translate(214.993896484375,314.35302734375)"/>
<path d="M0 0 C1.258125 0.309375 2.51625 0.61875 3.8125 0.9375 C10.72490126 2.56913539 17.99453793 2.76063302 24.9375 1.1875 C28 1 28 1 30.875 3.1875 C32.89291199 5.85826587 33.2338413 6.93536521 34 10 C35.64429829 11.68873879 37.31384218 13.35305515 39 15 C43.04905012 20.22114357 43.04905012 20.22114357 42.87109375 23.046875 C41.67404931 25.73083115 40.37930033 26.10813653 37.6875 27.1875 C36.90761719 27.51105469 36.12773437 27.83460938 35.32421875 28.16796875 C33.20970819 28.92492799 31.21177605 29.60857695 29 30 C28.34 29.67 27.68 29.34 27 29 C27 28.34 27 27.68 27 27 C25.9275 26.731875 24.855 26.46375 23.75 26.1875 C20 25 20 25 17.875 23.3125 C16.06342533 21.74742512 16.06342533 21.74742512 13.6875 22.1875 C12.800625 22.455625 11.91375 22.72375 11 23 C9.741875 23.350625 8.48375 23.70125 7.1875 24.0625 C6.135625 24.371875 5.08375 24.68125 4 25 C4 25.66 4 26.32 4 27 C3.34 27 2.68 27 2 27 C1.67 27.99 1.34 28.98 1 30 C2.32 30 3.64 30 5 30 C5 30.66 5 31.32 5 32 C2.525 32.495 2.525 32.495 0 33 C0 65.67 0 98.34 0 132 C-1.65 132 -3.3 132 -5 132 C-5.00879936 130.14624252 -5.00879936 130.14624252 -5.01777649 128.2550354 C-5.07489615 116.62977413 -5.14760091 105.00470186 -5.23571491 93.37963295 C-5.2805144 87.4025163 -5.31974922 81.42546933 -5.34643555 75.44824219 C-5.37237315 69.68394209 -5.41270726 63.91990878 -5.46318626 58.15577316 C-5.47991978 55.95250126 -5.49139348 53.74918314 -5.49761391 51.54585648 C-5.5071847 48.46859769 -5.53515903 45.39203154 -5.56762695 42.31494141 C-5.56619186 41.39640884 -5.56475677 40.47787628 -5.5632782 39.5315094 C-5.57581635 38.69575882 -5.58835449 37.86000824 -5.60127258 36.99893188 C-5.60588155 36.27071543 -5.61049051 35.54249897 -5.61523914 34.79221535 C-5.87193685 32.58192757 -5.87193685 32.58192757 -9 31 C-7.35 31.33 -5.7 31.66 -4 32 C-4 64.67 -4 97.34 -4 131 C-3.01 131 -2.02 131 -1 131 C-1 98 -1 65 -1 31 C-2.32 30.67 -3.64 30.34 -5 30 C-5.66 29.67 -6.32 29.34 -7 29 C-7 28.34 -7 27.68 -7 27 C-7.78375 26.690625 -8.5675 26.38125 -9.375 26.0625 C-12 25 -12 25 -14 24 C-12.66311123 17.89994464 -10.06041979 13.66276043 -6.4375 8.625 C-5.93025391 7.90183594 -5.42300781 7.17867188 -4.90039062 6.43359375 C-1.24503968 1.24503968 -1.24503968 1.24503968 0 0 Z " fill="#FAF8FD" transform="translate(235,113)"/>
<path d="M0 0 C2.64 0 5.28 0 8 0 C8.66 5.94 9.32 11.88 10 18 C10.66 12.06 11.32 6.12 12 0 C14.64 0 17.28 0 20 0 C20.66 6.6 21.32 13.2 22 20 C22.28895044 14.16649479 22.28895044 14.16649479 22.56811523 8.33251953 C22.60622314 7.60661621 22.64433105 6.88071289 22.68359375 6.1328125 C22.72025146 5.38918457 22.75690918 4.64555664 22.79467773 3.87939453 C23 2 23 2 24 0 C26.64 0 29.28 0 32 0 C30.83045279 13.35389757 29.54529754 26.68413819 28 40 C24.7 40 21.4 40 18 40 C17.34 35.71 16.68 31.42 16 27 C15.34 31.29 14.68 35.58 14 40 C10.7 40 7.4 40 4 40 C2.90910956 32.02721559 1.85484326 24.04973411 0.875 16.0625 C0.78750488 15.37808838 0.70000977 14.69367676 0.60986328 13.98852539 C0.04339197 9.28293827 -0.07396479 4.72846335 0 0 Z " fill="#5F34A5" transform="translate(322,388)"/>
<path d="M0 0 C0.825 -0.00386719 1.65 -0.00773437 2.5 -0.01171875 C5.19763276 0.74277541 7.11959952 1.62913105 9.02734375 3.72338867 C11.41037458 8.5355079 10.6167395 14.45544784 10.5 19.6875 C10.50386719 21.59402344 10.50386719 21.59402344 10.5078125 23.5390625 C10.43190937 30.74986022 10.29926148 35.38823852 5 40.6875 C1.61767033 41.24729324 -1.61729421 41.23944392 -5 40.6875 C-8.05823378 37.85303942 -9.88371476 35.26132508 -10.19287109 31.07714844 C-10.279979 27.530537 -10.33456271 23.98495332 -10.375 20.4375 C-10.41238281 19.20902344 -10.44976562 17.98054688 -10.48828125 16.71484375 C-10.58731431 6.55845337 -10.58731431 6.55845337 -7.7890625 2.87109375 C-4.85696317 0.57551458 -3.66737825 -0.10887529 0 0 Z " fill="#5C30A4" transform="translate(307,387.3125)"/>
<path d="M0 0 C2.64 0 5.28 0 8 0 C8.33 3.96 8.66 7.92 9 12 C9.99 8.04 10.98 4.08 12 0 C14.64 0 17.28 0 20 0 C19.56024635 4.1043674 19.0686659 7.92299803 17.875 11.875 C15.50989797 21.05088457 18.94663623 31.03751912 21 40 C18.36 40 15.72 40 13 40 C11.5783681 36.6828589 10.60990891 33.55780196 10 30 C9.67 33.3 9.34 36.6 9 40 C6.03 40 3.06 40 0 40 C0 26.8 0 13.6 0 0 Z " fill="#A675F1" transform="translate(229,388)"/>
<path d="M0 0 C4.62 0 9.24 0 14 0 C14.43273756 3.92812371 14.86169225 7.85641042 15.28173828 11.78588867 C15.49498147 13.76590173 15.71421577 15.74526664 15.93359375 17.72460938 C16.72681232 25.18464116 17.21130272 32.49777507 17 40 C14.69 40 12.38 40 10 40 C10 38.02 10 36.04 10 34 C8.02 34 6.04 34 4 34 C4 35.98 4 37.96 4 40 C1.69 40 -0.62 40 -3 40 C-3.20786348 30.77413356 -2.61123717 21.84269274 -1.5 12.6875 C-1.35691406 11.45837891 -1.21382812 10.22925781 -1.06640625 8.96289062 C-0.71756447 5.97447939 -0.35973907 2.98711903 0 0 Z " fill="#A877F2" transform="translate(182,388)"/>
<path d="M0 0 C0.88171875 0.45246094 1.7634375 0.90492188 2.671875 1.37109375 C3.56390625 1.82613281 4.4559375 2.28117188 5.375 2.75 C6.38820313 3.27400391 6.38820313 3.27400391 7.421875 3.80859375 C7.421875 4.46859375 7.421875 5.12859375 7.421875 5.80859375 C9.731875 6.46859375 12.041875 7.12859375 14.421875 7.80859375 C14.091875 40.47859375 13.761875 73.14859375 13.421875 106.80859375 C11.441875 107.30359375 11.441875 107.30359375 9.421875 107.80859375 C7.28131717 105.66803592 8.23546314 100.75911011 8.21655273 97.79077148 C8.20665314 96.84452911 8.19675354 95.89828674 8.18655396 94.92337036 C8.15483697 91.77966864 8.13014139 88.63595177 8.10546875 85.4921875 C8.08490802 83.31884863 8.06391179 81.14551384 8.04249573 78.97218323 C7.98718405 73.23962701 7.93781503 67.50703417 7.88964844 61.77441406 C7.83949965 55.92965417 7.7837791 50.08494775 7.72851562 44.24023438 C7.62082287 32.76306647 7.51940275 21.28585222 7.421875 9.80859375 C2.966875 7.33359375 2.966875 7.33359375 -1.578125 4.80859375 C-1.578125 4.14859375 -1.578125 3.48859375 -1.578125 2.80859375 C-6.68416142 2.61027172 -6.68416142 2.61027172 -11.578125 3.80859375 C-11.908125 4.79859375 -12.238125 5.78859375 -12.578125 6.80859375 C-14.888125 7.13859375 -17.198125 7.46859375 -19.578125 7.80859375 C-18.918125 6.48859375 -18.258125 5.16859375 -17.578125 3.80859375 C-16.918125 3.80859375 -16.258125 3.80859375 -15.578125 3.80859375 C-15.578125 3.14859375 -15.578125 2.48859375 -15.578125 1.80859375 C-14.1684903 1.10678844 -12.75004859 0.42265417 -11.328125 -0.25390625 C-10.53921875 -0.63675781 -9.7503125 -1.01960937 -8.9375 -1.4140625 C-5.28219751 -2.61837574 -3.40597388 -1.57397278 0 0 Z " fill="#B595E8" transform="translate(254.578125,136.19140625)"/>
<path d="M0 0 C3.0625 1.5625 3.0625 1.5625 5 4 C5.3125 7.75 5.3125 7.75 5 11 C2.69 11 0.38 11 -2 11 C-2.33 10.01 -2.66 9.02 -3 8 C-3.99 7.67 -4.98 7.34 -6 7 C-4.67166259 10.97809381 -3.06705083 13.22660558 0 16.0625 C3.44139217 19.25717472 5.70409715 21.6366201 6.30078125 26.40234375 C6.34060235 35.01697413 6.34060235 35.01697413 3 39 C-0.69153519 40.8457676 -4.97021939 40.48175083 -9 40 C-12.09799981 37.80873184 -12.80352112 36.58943664 -14 33 C-14.12781786 30.32605036 -14.04391871 27.67904143 -14 25 C-11.36 25 -8.72 25 -6 25 C-5.67 27.31 -5.34 29.62 -5 32 C-4.34 32 -3.68 32 -3 32 C-3 28.05594764 -3.18813778 25.96174448 -5.77734375 22.89453125 C-7.18903185 21.53389878 -8.6260423 20.19893508 -10.08984375 18.89453125 C-13.10809208 15.90097207 -13.92818973 13.78991297 -14.3125 9.5625 C-13.98162037 5.79047225 -13.27773315 3.97857413 -11 1 C-7.52837146 -0.73581427 -3.79560358 -0.45809009 0 0 Z " fill="#A471F1" transform="translate(218,388)"/>
<path d="M0 0 C5.61 0 11.22 0 17 0 C17 2.64 17 5.28 17 8 C14.36 8 11.72 8 9 8 C9 9.98 9 11.96 9 14 C11.31 14 13.62 14 16 14 C16 16.64 16 19.28 16 22 C13.69 22 11.38 22 9 22 C9 27.94 9 33.88 9 40 C6.03 40 3.06 40 0 40 C0 26.8 0 13.6 0 0 Z " fill="#663CA9" transform="translate(254,388)"/>
<path d="M0 0 C0.66 0.33 1.32 0.66 2 1 C1.67725098 1.4532666 1.35450195 1.9065332 1.02197266 2.37353516 C-0.4514334 4.45198606 -1.91324302 6.53834191 -3.375 8.625 C-3.88289062 9.33785156 -4.39078125 10.05070312 -4.9140625 10.78515625 C-7.68018487 14.75235807 -9.75794586 18.25625107 -11 23 C-10.21625 23.309375 -9.4325 23.61875 -8.625 23.9375 C-6 25 -6 25 -4 26 C-4 26.66 -4 27.32 -4 28 C-2.02 28.66 -0.04 29.32 2 30 C2 63 2 96 2 130 C1.01 130 0.02 130 -1 130 C-1.33 97.33 -1.66 64.66 -2 31 C-4.31 30.34 -6.62 29.68 -9 29 C-11.475 28.01 -11.475 28.01 -14 27 C-14 49.11 -14 71.22 -14 94 C-14.33 94 -14.66 94 -15 94 C-15.04628239 85.16846012 -15.08184825 76.3369618 -15.10362434 67.50532722 C-15.11407426 63.40471243 -15.12825537 59.30418042 -15.15087891 55.20361328 C-15.1725644 51.24844419 -15.18455952 47.29335489 -15.18975449 43.33813095 C-15.19345799 41.82700214 -15.20068975 40.31587783 -15.21146011 38.80478287 C-15.22591823 36.69283768 -15.22798037 34.58122476 -15.22705078 32.46923828 C-15.231492 31.26566681 -15.23593323 30.06209534 -15.24050903 28.822052 C-15 26 -15 26 -13 24 C-13.04125 23.071875 -13.0825 22.14375 -13.125 21.1875 C-12.96417551 17.08647562 -11.61591153 16.11588097 -9 13 C-7.37493988 10.75784984 -5.81408043 8.47248396 -4.25 6.1875 C-3.63318359 5.2912793 -3.63318359 5.2912793 -3.00390625 4.37695312 C-2.00092082 2.91912546 -1.0002217 1.45972526 0 0 Z " fill="#AE8AE6" transform="translate(232,114)"/>
<path d="M0 0 C5.94 0 11.88 0 18 0 C18 2.64 18 5.28 18 8 C16.35 8 14.7 8 13 8 C13 18.56 13 29.12 13 40 C10.36 40 7.72 40 5 40 C5 29.44 5 18.88 5 8 C3.35 8 1.7 8 0 8 C0 5.36 0 2.72 0 0 Z " fill="#A472F1" transform="translate(157,388)"/>
<path d="M0 0 C2.64 0 5.28 0 8 0 C8 10.89 8 21.78 8 33 C10.64 33 13.28 33 16 33 C16 35.31 16 37.62 16 40 C10.72 40 5.44 40 0 40 C0 26.8 0 13.6 0 0 Z " fill="#592DA2" transform="translate(276,388)"/>
<path d="M0 0 C1.14259529 0.02696457 1.14259529 0.02696457 2.30827332 0.05447388 C3.11840378 0.05374374 3.92853424 0.05301361 4.76321411 0.05226135 C7.43679632 0.0557405 10.10862892 0.0946152 12.78190613 0.13381958 C14.63706002 0.14314659 16.49222624 0.15026323 18.34739685 0.15525818 C23.2270567 0.17433688 28.10597083 0.22344517 32.9853363 0.27877808 C37.96560071 0.32995177 42.94598577 0.3527682 47.92643738 0.37796021 C57.69629603 0.43156307 67.46560154 0.51688645 77.23503113 0.62210083 C77.23503113 0.95210083 77.23503113 1.28210083 77.23503113 1.62210083 C76.3532444 1.63423111 76.3532444 1.63423111 75.4536438 1.64660645 C69.20521765 1.73423055 62.9570534 1.8337518 56.70890808 1.93948364 C54.3925474 1.97722345 52.07613895 2.01215965 49.75968933 2.04397583 C36.63477416 2.22630589 23.6289924 2.62809354 10.56997681 4.03039551 C5.82340367 4.51815598 1.96228746 4.42121394 -2.76496887 3.62210083 C-3.75496887 4.28210083 -4.74496887 4.94210083 -5.76496887 5.62210083 C-6.0151276 9.20567324 -6.0151276 9.20567324 -5.76496887 12.62210083 C-4.44496887 12.62210083 -3.12496887 12.62210083 -1.76496887 12.62210083 C-1.76496887 13.28210083 -1.76496887 13.94210083 -1.76496887 14.62210083 C-0.1170636 14.61339966 -0.1170636 14.61339966 1.56413269 14.60452271 C17.04180146 14.55036857 32.51059162 14.83255022 47.98503113 15.12210083 C50.63997604 15.17044334 53.29492394 15.21862153 55.94987488 15.26663208 C62.37829601 15.38323117 68.80667744 15.5018435 75.23503113 15.62210083 C75.23503113 15.95210083 75.23503113 16.28210083 75.23503113 16.62210083 C64.87345264 16.6915891 54.51192953 16.74490616 44.15016556 16.77753735 C39.33885217 16.79319812 34.52769812 16.81444394 29.71647644 16.84841919 C25.07400189 16.88099791 20.43168068 16.89895074 15.78910065 16.90673256 C14.01725093 16.91227874 12.24540968 16.92310901 10.47362518 16.939291 C7.99319272 16.96104568 5.5133951 16.96406861 3.03288269 16.962677 C2.29920471 16.97346283 1.56552673 16.98424866 0.80961609 16.99536133 C-2.33902984 16.97622723 -4.44953683 16.80364288 -7.20545959 15.21751404 C-9.02778248 13.35323657 -9.44514198 12.31571058 -9.76496887 9.74710083 C-9.86809387 9.08967896 -9.97121887 8.43225708 -10.07746887 7.75491333 C-9.22158292 1.91349171 -5.53270622 0.05402686 0 0 Z " fill="#A17FD7" transform="translate(212.7649688720703,314.3778991699219)"/>
<path d="M0 0 C0.56332031 0.22558594 1.12664062 0.45117188 1.70703125 0.68359375 C-3.6864838 5.44995589 -3.6864838 5.44995589 -6.7265625 6.62109375 C-14.33516102 9.7710767 -20.13060848 17.48357313 -25.29296875 23.68359375 C-26.15921875 24.67359375 -27.02546875 25.66359375 -27.91796875 26.68359375 C-30.69423508 30.19045648 -32.99183186 33.85635565 -35.29296875 37.68359375 C-35.82921875 38.50859375 -36.36546875 39.33359375 -36.91796875 40.18359375 C-39.63603674 45.12553555 -41.22003609 50.16565434 -42.29296875 55.68359375 C-42.62039062 56.29460937 -42.9478125 56.905625 -43.28515625 57.53515625 C-44.39092704 59.89241957 -44.65232414 61.72390274 -44.85546875 64.30859375 C-45.19574653 68.48914931 -45.19574653 68.48914931 -46.29296875 70.68359375 C-46.29296875 71.61171875 -46.29296875 72.53984375 -46.29296875 73.49609375 C-46.29296875 76.68359375 -46.29296875 76.68359375 -46.79296875 78.93359375 C-47.25144409 81.45520811 -47.32625499 83.57053539 -47.29296875 86.12109375 C-47.21372675 92.66846372 -47.76669564 99.16156624 -48.29296875 105.68359375 C-48.62296875 105.68359375 -48.95296875 105.68359375 -49.29296875 105.68359375 C-49.34276186 100.5790343 -49.37887284 95.47461925 -49.40283203 90.36987305 C-49.41283036 88.63677504 -49.42643348 86.90369365 -49.44384766 85.1706543 C-49.46836959 82.66581091 -49.47951371 80.16119239 -49.48828125 77.65625 C-49.49860382 76.89337173 -49.50892639 76.13049347 -49.51956177 75.34449768 C-49.52067419 69.89448423 -48.6646209 64.95006768 -47.29296875 59.68359375 C-47.009375 58.59433594 -46.72578125 57.50507812 -46.43359375 56.3828125 C-39.41344992 32.64364191 -24.21194817 15.30190872 -4.5546875 0.8359375 C-2.29296875 -0.31640625 -2.29296875 -0.31640625 0 0 Z " fill="#D3C0F2" transform="translate(184.29296875,69.31640625)"/>
<path d="M0 0 C2.97 0 5.94 0 9 0 C8.67 0.66 8.34 1.32 8 2 C9.32 2 10.64 2 12 2 C12 2.66 12 3.32 12 4 C10.35 4.33 8.7 4.66 7 5 C7 37.67 7 70.34 7 104 C5.35 104 3.7 104 2 104 C1.99413376 102.76416168 1.98826752 101.52832336 1.98222351 100.2550354 C1.92510385 88.62977413 1.85239909 77.00470186 1.76428509 65.37963295 C1.7194856 59.4025163 1.68025078 53.42546933 1.65356445 47.44824219 C1.62762685 41.68394209 1.58729274 35.91990878 1.53681374 30.15577316 C1.52008022 27.95250126 1.50860652 25.74918314 1.50238609 23.54585648 C1.4928153 20.46859769 1.46484097 17.39203154 1.43237305 14.31494141 C1.43380814 13.39640884 1.43524323 12.47787628 1.4367218 11.5315094 C1.42418365 10.69575882 1.41164551 9.86000824 1.39872742 8.99893188 C1.39411845 8.27071543 1.38950949 7.54249897 1.38476086 6.79221535 C1.12806315 4.58192757 1.12806315 4.58192757 -2 3 C0.475 3.495 0.475 3.495 3 4 C3 36.67 3 69.34 3 103 C3.99 103 4.98 103 6 103 C6 70 6 37 6 3 C4.68 2.67 3.36 2.34 2 2 C1.34 1.34 0.68 0.68 0 0 Z " fill="#D8C7F1" transform="translate(228,141)"/>
<path d="M0 0 C2.23828125 0.53125 2.23828125 0.53125 4.17578125 2.84375 C4.52640625 3.730625 4.87703125 4.6175 5.23828125 5.53125 C5.79515625 6.0675 6.35203125 6.60375 6.92578125 7.15625 C8.23828125 8.53125 8.23828125 8.53125 8.23828125 11.53125 C4.53381572 12.76607184 1.09398045 12.67683202 -2.76171875 12.65625 C-3.48617187 12.66011719 -4.210625 12.66398437 -4.95703125 12.66796875 C-8.15454754 12.66206927 -10.70754482 12.54930798 -13.76171875 11.53125 C-13.41541171 7.60643691 -12.11980503 4.68530808 -9.4921875 1.7109375 C-6.48669866 -0.33795105 -3.53981714 -0.20976694 0 0 Z " fill="#F6F1FD" transform="translate(251.76171875,99.46875)"/>
<path d="M0 0 C-10.37357631 4.40774487 -10.37357631 4.40774487 -16 5 C-16 5.66 -16 6.32 -16 7 C-19.465 8.485 -19.465 8.485 -23 10 C-22.99777939 10.95720444 -22.99555878 11.91440887 -22.99327087 12.90061951 C-22.9729455 21.94824261 -22.95798273 30.99586105 -22.94818783 40.04350185 C-22.94298281 44.69429417 -22.93592865 49.34506795 -22.92456055 53.99584961 C-22.91364675 58.48920434 -22.90770525 62.98254131 -22.90512276 67.47590828 C-22.90328376 69.18499086 -22.8996928 70.89407254 -22.89426994 72.60314751 C-22.84405959 89.09240764 -22.84405959 89.09240764 -24 97 C-24.33 97 -24.66 97 -25 97 C-25 67.3 -25 37.6 -25 7 C-19.86258546 4.79825091 -14.98043173 2.90802681 -9.6875 1.25 C-8.97271484 1.01667969 -8.25792969 0.78335938 -7.52148438 0.54296875 C-2.23954417 -1.11977209 -2.23954417 -1.11977209 0 0 Z " fill="#7433DD" transform="translate(306,200)"/>
<path d="M0 0 C0.99 0.66 1.98 1.32 3 2 C3 2.66 3 3.32 3 4 C3.66 4 4.32 4 5 4 C5 5.32 5 6.64 5 8 C4.01 7.67 3.02 7.34 2 7 C0.8125 4.4375 0.8125 4.4375 0 2 C-6.20783718 1.90023228 -6.20783718 1.90023228 -11.7421875 4.26171875 C-14.16210826 7.10405171 -15.09116161 9.36464643 -16 13 C-8.74 13 -1.48 13 6 13 C5.67 11.68 5.34 10.36 5 9 C5.66 9 6.32 9 7 9 C7 10.65 7 12.3 7 14 C7.99 14.33 8.98 14.66 10 15 C9.67 15.66 9.34 16.32 9 17 C-0.19995338 19.04443408 -9.99370577 18.65759502 -19 16 C-19.33 15.34 -19.66 14.68 -20 14 C-19.34 14 -18.68 14 -18 14 C-17.896875 12.948125 -17.79375 11.89625 -17.6875 10.8125 C-17.00682769 7.03786262 -16.37673987 4.97092484 -14 2 C-9.82543797 -0.57840596 -4.77967774 -0.6086481 0 0 Z " fill="#B391EC" transform="translate(254,98)"/>
<path d="M0 0 C0.66 0.33 1.32 0.66 2 1 C1.67725098 1.4532666 1.35450195 1.9065332 1.02197266 2.37353516 C-0.4514334 4.45198606 -1.91324302 6.53834191 -3.375 8.625 C-3.88289062 9.33785156 -4.39078125 10.05070312 -4.9140625 10.78515625 C-7.68018487 14.75235807 -9.75794586 18.25625107 -11 23 C-9.824375 23.433125 -9.824375 23.433125 -8.625 23.875 C-6 25 -6 25 -4 27 C-4.66 27 -5.32 27 -6 27 C-6 27.99 -6 28.98 -6 30 C-6.5775 29.690625 -7.155 29.38125 -7.75 29.0625 C-10.21905868 27.80714968 -10.21905868 27.80714968 -14 27 C-14 49.11 -14 71.22 -14 94 C-14.33 94 -14.66 94 -15 94 C-15.04628239 85.16846012 -15.08184825 76.3369618 -15.10362434 67.50532722 C-15.11407426 63.40471243 -15.12825537 59.30418042 -15.15087891 55.20361328 C-15.1725644 51.24844419 -15.18455952 47.29335489 -15.18975449 43.33813095 C-15.19345799 41.82700214 -15.20068975 40.31587783 -15.21146011 38.80478287 C-15.22591823 36.69283768 -15.22798037 34.58122476 -15.22705078 32.46923828 C-15.231492 31.26566681 -15.23593323 30.06209534 -15.24050903 28.822052 C-15 26 -15 26 -13 24 C-13.04125 23.071875 -13.0825 22.14375 -13.125 21.1875 C-12.96417551 17.08647562 -11.61591153 16.11588097 -9 13 C-7.37493988 10.75784984 -5.81408043 8.47248396 -4.25 6.1875 C-3.63318359 5.2912793 -3.63318359 5.2912793 -3.00390625 4.37695312 C-2.00092082 2.91912546 -1.0002217 1.45972526 0 0 Z " fill="#BCA0EB" transform="translate(232,114)"/>
<path d="M0 0 C4.03441396 -0.02513051 8.06879625 -0.04305855 12.10327148 -0.05493164 C13.46949052 -0.05989273 14.83570444 -0.06666372 16.2019043 -0.07543945 C25.18866001 -0.13162733 34.05153774 0.15299477 43 1 C43 1.33 43 1.66 43 2 C41.9805127 1.99476318 40.96102539 1.98952637 39.91064453 1.98413086 C36.13493729 1.96605624 32.35923388 1.95455895 28.58349609 1.94506836 C26.94807289 1.94003379 25.3126542 1.93320573 23.67724609 1.92456055 C21.32909025 1.91245665 18.98099381 1.906763 16.6328125 1.90234375 C15.89942657 1.89718246 15.16604065 1.89202118 14.41043091 1.88670349 C10.57877344 1.816844 10.57877344 1.816844 7 3 C4.94463942 3.21204435 2.88858441 3.41909945 0.82983398 3.59521484 C-13.00970156 4.78978245 -26.70947352 7.47825408 -39.08203125 14.1171875 C-41 15 -41 15 -44 15 C-43 12 -43 12 -40.11328125 10.5 C-38.85261472 9.98441863 -37.58507638 9.48544164 -36.3125 9 C-35.63840088 8.73872314 -34.96430176 8.47744629 -34.26977539 8.20825195 C-23.07943628 4.01890061 -11.87384609 2.52331541 0 2 C0 1.34 0 0.68 0 0 Z " fill="#C7AFF2" transform="translate(230,54)"/>
<path d="M0 0 C0.33 0 0.66 0 1 0 C1.00586624 1.10833694 1.01173248 2.21667389 1.01777649 3.3585968 C1.07493061 13.79155261 1.1476537 24.22429852 1.23571491 34.6570406 C1.2804878 40.02093829 1.31972859 45.38475881 1.34643555 50.7487793 C1.37239958 55.92306893 1.41275276 61.09706268 1.46318626 66.27116966 C1.47990179 68.2475333 1.49138679 70.22394818 1.49761391 72.2003727 C1.50720418 74.96373313 1.53520196 77.7263285 1.56762695 80.48950195 C1.56619186 81.31093185 1.56475677 82.13236176 1.5632782 82.97868347 C1.47481121 87.14995455 1.47481121 87.14995455 3.48195171 90.59700298 C4.23338562 91.29148651 4.23338562 91.29148651 5 92 C5.6875 94.1875 5.6875 94.1875 6 96 C3.77788746 95.11115498 2.3076889 94.42177428 0.88137817 92.46661377 C-0.4338334 88.78587937 -0.26059792 85.14336959 -0.22705078 81.28417969 C-0.22734283 80.40577423 -0.22763489 79.52736877 -0.22793579 78.62234497 C-0.22654367 75.72208745 -0.21098794 72.82208758 -0.1953125 69.921875 C-0.19158195 67.90977112 -0.18873518 65.89766543 -0.18673706 63.88555908 C-0.1791039 58.59190854 -0.15945807 53.29836789 -0.1373291 48.00476074 C-0.11686389 42.60214728 -0.10773389 37.19951605 -0.09765625 31.796875 C-0.07621193 21.19786841 -0.04207975 10.59894334 0 0 Z " fill="#8C5FD8" transform="translate(280,208)"/>
<path d="M0 0 C0.99 0 1.98 0 3 0 C3 11.22 3 22.44 3 34 C2.01 34 1.02 34 0 34 C0 22.78 0 11.56 0 0 Z " fill="#8653D6" transform="translate(264,210)"/>
<path d="M0 0 C0.99 0 1.98 0 3 0 C3 11.22 3 22.44 3 34 C2.01 34 1.02 34 0 34 C0 22.78 0 11.56 0 0 Z " fill="#976ADD" transform="translate(231,210)"/>
<path d="M0 0 C0.99 0.33 1.98 0.66 3 1 C3 8.92 3 16.84 3 25 C1.68 25 0.36 25 -1 25 C-1.02886984 21.02084841 -1.04675406 17.04172347 -1.0625 13.0625 C-1.07087891 11.92619141 -1.07925781 10.78988281 -1.08789062 9.61914062 C-1.09111328 8.53955078 -1.09433594 7.45996094 -1.09765625 6.34765625 C-1.10289307 5.34742432 -1.10812988 4.34719238 -1.11352539 3.31665039 C-1 1 -1 1 0 0 Z " fill="#F3EFF8" transform="translate(306,395)"/>
<path d="M0 0 C1.2890625 0.01289063 2.578125 0.02578125 3.90625 0.0390625 C5.25261518 0.07247594 6.59896935 0.10633563 7.9453125 0.140625 C9.31507819 0.16071144 10.68487216 0.17895845 12.0546875 0.1953125 C15.39395236 0.2423444 18.73176812 0.30806636 22.0703125 0.390625 C22.0703125 0.720625 22.0703125 1.050625 22.0703125 1.390625 C19.2373544 1.5873582 16.40434927 1.77322141 13.5703125 1.953125 C12.38308594 2.03723633 12.38308594 2.03723633 11.171875 2.12304688 C5.97511471 2.44251984 1.21749688 2.18749414 -3.9296875 1.390625 C-4.2596875 2.050625 -4.5896875 2.710625 -4.9296875 3.390625 C-5.9196875 3.720625 -6.9096875 4.050625 -7.9296875 4.390625 C-8.73657155 8.33539147 -8.92969179 10.39060785 -7.9296875 14.390625 C-2.6496875 14.390625 2.6303125 14.390625 8.0703125 14.390625 C8.0703125 14.720625 8.0703125 15.050625 8.0703125 15.390625 C5.31866818 15.52580403 2.57366729 15.62477751 -0.1796875 15.703125 C-0.95699219 15.74501953 -1.73429688 15.78691406 -2.53515625 15.83007812 C-8.32309759 15.95375209 -8.32309759 15.95375209 -11.4375 13.0625 C-13.27838025 9.76626417 -13.71880485 8.09947657 -12.9296875 4.390625 C-8.58030301 0.78691913 -5.59323338 -0.09899528 0 0 Z " fill="#8C68C9" transform="translate(221.9296875,337.609375)"/>
<path d="M0 0 C3.54433654 1.41773462 4.33806119 2.67612238 6 6 C7.95021083 7.22527948 7.95021083 7.22527948 10 8 C10.66 8.33 11.32 8.66 12 9 C12 9.66 12 10.32 12 11 C12.5775 11.268125 13.155 11.53625 13.75 11.8125 C16.05550043 13.02929189 18.02056192 14.30333879 20 16 C20 16.66 20 17.32 20 18 C21.65 18.66 23.3 19.32 25 20 C25 20.66 25 21.32 25 22 C25.886875 22.226875 26.77375 22.45375 27.6875 22.6875 C31.43380532 24.17188513 33.33729434 26.02403485 36 29 C30.99971686 27.65846062 26.80932497 25.51629997 23 22 C23 21.34 23 20.68 23 20 C22.44828125 19.91621094 21.8965625 19.83242187 21.328125 19.74609375 C18.24581146 18.75830535 16.26098716 17.09258173 13.75 15.0625 C12.85796875 14.35222656 11.9659375 13.64195312 11.046875 12.91015625 C10.37140625 12.27980469 9.6959375 11.64945313 9 11 C9 10.34 9 9.68 9 9 C7.68 8.67 6.36 8.34 5 8 C5 7.01 5 6.02 5 5 C4.34 5 3.68 5 3 5 C3 4.34 3 3.68 3 3 C2.01 3 1.02 3 0 3 C0 2.01 0 1.02 0 0 Z " fill="#B38BF3" transform="translate(136,161)"/>
<path d="M0 0 C0.66 0 1.32 0 2 0 C2.125 7.75 2.125 7.75 1 10 C0.7724985 11.87056791 0.59037189 13.74685958 0.4375 15.625 C0.35371094 16.62789063 0.26992188 17.63078125 0.18359375 18.6640625 C0.12300781 19.43492187 0.06242187 20.20578125 0 21 C-6.52307692 20.50769231 -6.52307692 20.50769231 -8.9375 17.9375 C-9.288125 17.298125 -9.63875 16.65875 -10 16 C-8.35 15.67 -6.7 15.34 -5 15 C-5 15.99 -5 16.98 -5 18 C-4.01 18 -3.02 18 -2 18 C-2.02320313 17.03578125 -2.04640625 16.0715625 -2.0703125 15.078125 C-2.09738281 13.18320312 -2.09738281 13.18320312 -2.125 11.25 C-2.14820313 9.99703125 -2.17140625 8.7440625 -2.1953125 7.453125 C-2.01537302 4.27179508 -1.68998582 2.63478104 0 0 Z " fill="#743AD8" transform="translate(296,288)"/>
<path d="M0 0 C0.99 0.66 1.98 1.32 3 2 C3 2.66 3 3.32 3 4 C3.66 4 4.32 4 5 4 C5 5.32 5 6.64 5 8 C4.01 7.67 3.02 7.34 2 7 C0.8125 4.4375 0.8125 4.4375 0 2 C-6.43389256 1.84617585 -6.43389256 1.84617585 -12 4.625 C-13.45542866 6.36031879 -14.7765262 8.09516071 -16 10 C-17 7 -17 7 -15.875 4.4375 C-11.94368489 -0.67320964 -6.0540759 -0.77093101 0 0 Z " fill="#A881E9" transform="translate(254,98)"/>
<path d="M0 0 C8.55868691 2.90964401 16.06631355 10.30558451 22 17 C23.375 19.875 23.375 19.875 24 22 C22.140625 21.73046875 22.140625 21.73046875 20 21 C18.796875 19.36328125 18.796875 19.36328125 17.75 17.3125 C15.40051846 13.2410382 12.7275388 10.94535222 8.8671875 8.32421875 C7.03283994 7.02329025 5.57898278 5.59225154 4 4 C1.90010348 2.82425289 1.90010348 2.82425289 0 2 C0 1.34 0 0.68 0 0 Z " fill="#9466E5" transform="translate(318,73)"/>
<path d="M0 0 C0.33 0 0.66 0 1 0 C1 6.6 1 13.2 1 20 C0.34 20 -0.32 20 -1 20 C-1.226875 20.556875 -1.45375 21.11375 -1.6875 21.6875 C-5.00319796 27.52944402 -10.3591665 30.71068022 -16 34 C-14.70048028 30.10144085 -12.78181675 29.01182061 -9.5625 26.5 C-6.45374892 24.06812171 -4.19548258 22.29322388 -2 19 C-1.34 19 -0.68 19 0 19 C0 12.73 0 6.46 0 0 Z " fill="#8242EC" transform="translate(361,142)"/>
<path d="M0 0 C0.55816406 0.22816406 1.11632812 0.45632812 1.69140625 0.69140625 C-3.71430804 5.46854911 -3.71430804 5.46854911 -6.80859375 6.62890625 C-10.5026179 8.19886652 -12.57809862 10.77041146 -15.30859375 13.69140625 C-15.96859375 13.36140625 -16.62859375 13.03140625 -17.30859375 12.69140625 C-13.67688384 7.72806937 -6.67991841 -0.89291634 0 0 Z " fill="#CCB7F1" transform="translate(184.30859375,69.30859375)"/>
<path d="M0 0 C0.99 0 1.98 0 3 0 C3 5.28 3 10.56 3 16 C2.01 16 1.02 16 0 16 C0 10.72 0 5.44 0 0 Z " fill="#895ED5" transform="translate(264,251)"/>
<path d="M0 0 C0.66 0 1.32 0 2 0 C2.24234375 0.99 2.4846875 1.98 2.734375 3 C4.82548023 11.6247972 4.82548023 11.6247972 8.3125 19.75 C8.869375 20.8225 9.42625 21.895 10 23 C9.67 23.99 9.34 24.98 9 26 C0 7.15533981 0 7.15533981 0 0 Z " fill="#AF8CEC" transform="translate(138,183)"/>
<path d="M0 0 C-1.875 3.875 -1.875 3.875 -3 5 C-4.70772358 5.08713831 -6.41898649 5.10700007 -8.12890625 5.09765625 C-9.68061523 5.09282227 -9.68061523 5.09282227 -11.26367188 5.08789062 C-12.35228516 5.07951172 -13.44089844 5.07113281 -14.5625 5.0625 C-16.2012207 5.05573242 -16.2012207 5.05573242 -17.87304688 5.04882812 C-20.58208495 5.03699826 -23.29101599 5.02051543 -26 5 C-26 4.67 -26 4.34 -26 4 C-24.84242188 3.96261719 -23.68484375 3.92523438 -22.4921875 3.88671875 C-20.95309439 3.82102575 -19.4140333 3.75457958 -17.875 3.6875 C-16.73417969 3.65366211 -16.73417969 3.65366211 -15.5703125 3.61914062 C-9.88934274 3.3497843 -5.33795874 0 0 0 Z " fill="#412770" transform="translate(293,325)"/>
<path d="M0 0 C0.99 0 1.98 0 3 0 C3 4.62 3 9.24 3 14 C2.01 14 1.02 14 0 14 C0 9.38 0 4.76 0 0 Z " fill="#976EDB" transform="translate(231,252)"/>
<path d="M0 0 C0.66 0 1.32 0 2 0 C1.58234056 2.50595662 1.19935817 4.62832837 -0.0078125 6.87890625 C-1.42195371 9.90205064 -1.44058266 12.77990013 -1.65625 16.07421875 C-1.7696875 16.70972656 -1.883125 17.34523437 -2 18 C-2.66 18.33 -3.32 18.66 -4 19 C-4.20413361 13.26157749 -4.27141454 8.39460953 -2 3 C-1.34 3 -0.68 3 0 3 C0 2.01 0 1.02 0 0 Z " fill="#CCB5F0" transform="translate(141,120)"/>
<path d="M0 0 C0.66 0.33 1.32 0.66 2 1 C-0.11401412 4.17413133 -2.24297407 7.33794466 -4.375 10.5 C-5.27992188 11.85931641 -5.27992188 11.85931641 -6.203125 13.24609375 C-6.78320312 14.10332031 -7.36328125 14.96054688 -7.9609375 15.84375 C-8.49509277 16.63974609 -9.02924805 17.43574219 -9.57958984 18.25585938 C-10.0483252 18.83142578 -10.51706055 19.40699219 -11 20 C-11.66 20 -12.32 20 -13 20 C-11.27434366 16.18292321 -8.90200466 12.84865359 -6.5 9.4375 C-3.21483015 4.74296111 -3.21483015 4.74296111 0 0 Z " fill="#B291EB" transform="translate(232,114)"/>
<path d="M0 0 C0 3.85925655 -1.25546855 7.08508599 -2.5 10.6875 C-2.73847656 11.38939453 -2.97695313 12.09128906 -3.22265625 12.81445312 C-3.81105678 14.5443507 -4.40499575 16.27236267 -5 18 C-5.33 18 -5.66 18 -6 18 C-6.3690205 8.58997722 -6.3690205 8.58997722 -4 4 C-3.34 4 -2.68 4 -2 4 C-2 3.01 -2 2.02 -2 1 C-1.34 0.67 -0.68 0.34 0 0 Z " fill="#8756DC" transform="translate(304,270)"/>
<path d="M0 0 C1.32 0 2.64 0 4 0 C5.01241247 1.88923398 6.00947425 3.78669944 7 5.6875 C7.556875 6.74324219 8.11375 7.79898437 8.6875 8.88671875 C9.9672274 11.92226262 10.28851043 13.76026826 10 17 C7.21139281 14.74255609 6.14454172 12.20200833 4.828125 8.91796875 C3.47783488 5.79064588 1.73359395 2.92917599 0 0 Z " fill="#B190E8" transform="translate(185,258)"/>
<path d="M0 0 C-10.37357631 4.40774487 -10.37357631 4.40774487 -16 5 C-16 5.66 -16 6.32 -16 7 C-20.455 7.495 -20.455 7.495 -25 8 C-24 6 -24 6 -21.89868164 5.11450195 C-20.54311157 4.68077271 -20.54311157 4.68077271 -19.16015625 4.23828125 C-18.17982422 3.92439453 -17.19949219 3.61050781 -16.18945312 3.28710938 C-15.15755859 2.96548828 -14.12566406 2.64386719 -13.0625 2.3125 C-12.03447266 1.97927734 -11.00644531 1.64605469 -9.94726562 1.30273438 C-2.25398013 -1.12699007 -2.25398013 -1.12699007 0 0 Z " fill="#8440F0" transform="translate(306,200)"/>
<path d="M0 0 C0.33 0 0.66 0 1 0 C1.125 7.75 1.125 7.75 0 10 C-0.2275015 11.87056791 -0.40962811 13.74685958 -0.5625 15.625 C-0.68818359 17.12933594 -0.68818359 17.12933594 -0.81640625 18.6640625 C-0.87699219 19.43492187 -0.93757813 20.20578125 -1 21 C-3.31 20.67 -5.62 20.34 -8 20 C-8 19.67 -8 19.34 -8 19 C-6.02 19 -4.04 19 -2 19 C-2.02320313 18.21496094 -2.04640625 17.42992187 -2.0703125 16.62109375 C-2.17284781 10.65207397 -2.04580539 5.62596482 0 0 Z " fill="#B397E8" transform="translate(297,288)"/>
<path d="M0 0 C-0.60803426 3.12308506 -1.62014042 5.19251662 -3.5 7.75 C-4.16515625 8.67039063 -4.16515625 8.67039063 -4.84375 9.609375 C-5.2253125 10.06828125 -5.606875 10.5271875 -6 11 C-6.33 11 -6.66 11 -7 11 C-7.35475877 7.18634321 -7.2619932 5.41557542 -5.1875 2.125 C-3 0 -3 0 0 0 Z " fill="#6A26D7" transform="translate(344,217)"/>
<path d="M0 0 C0.66 0.33 1.32 0.66 2 1 C0.00715862 2.3440093 -1.99419671 3.67541292 -4 5 C-4.78375 5.556875 -5.5675 6.11375 -6.375 6.6875 C-9.94094346 8.47047173 -13.03547047 8.66402292 -17 9 C-13.62411578 6.16425726 -10.05588012 4.67829522 -6 3 C-4.906875 2.4225 -3.81375 1.845 -2.6875 1.25 C-1.800625 0.8375 -0.91375 0.425 0 0 Z " fill="#7B35EC" transform="translate(323,190)"/>
<path d="M0 0 C7.59 0 15.18 0 23 0 C23.33 0.66 23.66 1.32 24 2 C22.02 2.99 22.02 2.99 20 4 C19.67 3.01 19.34 2.02 19 1 C12.73 1 6.46 1 0 1 C0 0.67 0 0.34 0 0 Z " fill="#492981" transform="translate(267,316)"/>
<path d="M0 0 C0 1.65 0 3.3 0 5 C-4.625 7.125 -4.625 7.125 -8 6 C-7.34 5.01 -6.68 4.02 -6 3 C-5.34 3 -4.68 3 -4 3 C-4 2.34 -4 1.68 -4 1 C-2 0 -2 0 0 0 Z " fill="#B69AED" transform="translate(243,137)"/>
<path d="M0 0 C0 0.66 0 1.32 0 2 C0.66 2 1.32 2 2 2 C2 3.32 2 4.64 2 6 C1.01 5.67 0.02 5.34 -1 5 C-2.1875 2.4375 -2.1875 2.4375 -3 0 C-5.64 0 -8.28 0 -11 0 C-11 -0.33 -11 -0.66 -11 -1 C-3.57142857 -2.42857143 -3.57142857 -2.42857143 0 0 Z " fill="#B290E9" transform="translate(257,100)"/>
<path d="M0 0 C0.99 0 1.98 0 3 0 C3.33 2.31 3.66 4.62 4 7 C2.68 7 1.36 7 0 7 C0 4.69 0 2.38 0 0 Z " fill="#F5F0FD" transform="translate(212,413)"/>
<path d="M0 0 C0 4.07546013 -1.55304448 5.80536362 -4 9 C-6.25 10.375 -6.25 10.375 -8 11 C-7.03349282 5.55241409 -7.03349282 5.55241409 -6 3 C-3.4375 1.5625 -3.4375 1.5625 -1 1 C-0.67 0.67 -0.34 0.34 0 0 Z " fill="#A37BE5" transform="translate(326,241)"/>
<path d="M0 0 C0.66 0.33 1.32 0.66 2 1 C0.625 2.5 0.625 2.5 -1 4 C-1.66 4 -2.32 4 -3 4 C-3.226875 4.639375 -3.45375 5.27875 -3.6875 5.9375 C-5 8 -5 8 -7.625 8.75 C-8.40875 8.8325 -9.1925 8.915 -10 9 C-9.67 8.34 -9.34 7.68 -9 7 C-8.34 7 -7.68 7 -7 7 C-6.67 6.01 -6.34 5.02 -6 4 C-4.04402816 2.60287726 -2.04563599 1.26220093 0 0 Z " fill="#7C35EE" transform="translate(343,176)"/>
<path d="M0 0 C2.97 0 5.94 0 9 0 C8.67 0.66 8.34 1.32 8 2 C9.32 2 10.64 2 12 2 C12 2.66 12 3.32 12 4 C10.02 4.33 8.04 4.66 6 5 C6 4.34 6 3.68 6 3 C5.38125 2.87625 4.7625 2.7525 4.125 2.625 C2 2 2 2 0 0 Z " fill="#CBB2EF" transform="translate(228,141)"/>
<path d="M0 0 C0.99 0 1.98 0 3 0 C3 0.66 3 1.32 3 2 C4.8871875 1.690625 4.8871875 1.690625 6.8125 1.375 C10.4014758 0.78664331 10.75073878 0.83382585 14 3 C9.05 3 4.1 3 -1 3 C-0.67 2.01 -0.34 1.02 0 0 Z " fill="#6235B0" transform="translate(215,349)"/>
<path d="M0 0 C0.66 0.33 1.32 0.66 2 1 C2 2.32 2 3.64 2 5 C0.35 5.66 -1.3 6.32 -3 7 C-3.33 5.68 -3.66 4.36 -4 3 C-2.68 2.01 -1.36 1.02 0 0 Z " fill="#B393EA" transform="translate(271,139)"/>
<path d="M0 0 C2.475 0.99 2.475 0.99 5 2 C5 3.32 5 4.64 5 6 C1.30581799 6 -0.77836178 4.71820705 -4 3 C-2.68 2.34 -1.36 1.68 0 1 C0 0.67 0 0.34 0 0 Z " fill="#B99DEE" transform="translate(257,138)"/>
<path d="M0 0 C1.485 0.99 1.485 0.99 3 2 C3 2.66 3 3.32 3 4 C3.66 4 4.32 4 5 4 C5.33 6.31 5.66 8.62 6 11 C2.1334716 7.777893 1.11940982 4.85077588 0 0 Z " fill="#986DE4" transform="translate(348,104)"/>
<path d="M0 0 C-0.45082469 1.46067199 -0.91093537 2.91848032 -1.375 4.375 C-1.63023437 5.18710938 -1.88546875 5.99921875 -2.1484375 6.8359375 C-3 9 -3 9 -5 11 C-5.36637589 4.64948454 -5.36637589 4.64948454 -3.625 1.5625 C-2 0 -2 0 0 0 Z " fill="#7435D7" transform="translate(357,194)"/>
<path d="M0 0 C4.29 0 8.58 0 13 0 C13 0.33 13 0.66 13 1 C12.33613281 1.02578125 11.67226563 1.0515625 10.98828125 1.078125 C5.45558259 1.43351002 2.03433925 1.83118278 -2 6 C-1.34 4.02 -0.68 2.04 0 0 Z " fill="#DDD8E5" transform="translate(268,353)"/>
<path d="M0 0 C-0.66 1.32 -1.32 2.64 -2 4 C-4.31 4 -6.62 4 -9 4 C-6.1329385 1.1329385 -4.08408532 0 0 0 Z " fill="#2B1455" transform="translate(293,325)"/>
<path d="M0 0 C-1 3 -1 3 -2.875 4.1875 C-5 5 -5 5 -8 5 C-7.67 4.01 -7.34 3.02 -7 2 C-4.56723614 0.81480735 -2.71982714 0 0 0 Z " fill="#D4BFF4" transform="translate(194,64)"/>
<path d="M0 0 C4.92307692 4.30769231 4.92307692 4.30769231 5.3125 7.8125 C5.209375 8.534375 5.10625 9.25625 5 10 C2 6.25 2 6.25 2 4 C1.34 4 0.68 4 0 4 C0 2.68 0 1.36 0 0 Z " fill="#B799EB" transform="translate(195,275)"/>
<path d="M0 0 C0.33 0.66 0.66 1.32 1 2 C1.66 2 2.32 2 3 2 C3 3.98 3 5.96 3 8 C2.34 8 1.68 8 1 8 C-0.35439668 5.29120665 -0.06501451 2.99066732 0 0 Z " fill="#9262E5" transform="translate(355,118)"/>
<path d="M0 0 C1.875 0.1875 1.875 0.1875 4 1 C5.25 3.5625 5.25 3.5625 6 6 C4.125 5.8125 4.125 5.8125 2 5 C0.75 2.4375 0.75 2.4375 0 0 Z " fill="#8A5ADD" transform="translate(336,89)"/>
<path d="M0 0 C1.98 0.99 1.98 0.99 4 2 C4 3.98 4 5.96 4 8 C1.10067643 5.60490662 0.49831724 3.68754757 0 0 Z " fill="#5D3D94" transform="translate(230,352)"/>
<path d="M0 0 C1.8125 0.1875 1.8125 0.1875 4 1 C5.8125 3.4375 5.8125 3.4375 7 6 C6.67 6.66 6.34 7.32 6 8 C4.9970458 6.85675161 3.99770973 5.71032809 3 4.5625 C2.443125 3.92441406 1.88625 3.28632813 1.3125 2.62890625 C0 1 0 1 0 0 Z " fill="#AB85E8" transform="translate(161,228)"/>
</svg>
